<mxfile host="Electron" modified="2025-04-21T13:08:23.509Z" agent="Mozilla/5.0 (Windows NT 10.0; Win64; x64) AppleWebKit/537.36 (KHTML, like Gecko) draw.io/21.1.2 Chrome/106.0.5249.199 Electron/21.4.3 Safari/537.36" etag="PxTW95dOQm96LtXdTjv0" version="21.1.2" type="device">
  <diagram name="第 1 页" id="mD9M1BsIY9w3jB3MD5nT">
    <mxGraphModel dx="2072" dy="979" grid="1" gridSize="10" guides="1" tooltips="1" connect="1" arrows="1" fold="1" page="0" pageScale="1" pageWidth="827" pageHeight="1169" background="#ffffff" math="0" shadow="1">
      <root>
        <mxCell id="0" />
        <mxCell id="1" parent="0" />
        <mxCell id="SJGOTdjTq_HpJzbm1Io4-36" value="" style="rounded=0;whiteSpace=wrap;html=1;sketch=1;hachureGap=4;jiggle=2;curveFitting=1;fontFamily=Architects Daughter;fontSource=https%3A%2F%2Ffonts.googleapis.com%2Fcss%3Ffamily%3DArchitects%2BDaughter;fontSize=20;labelBackgroundColor=none;fillColor=none;" parent="1" vertex="1">
          <mxGeometry x="400" y="77.11" width="960" height="362.89" as="geometry" />
        </mxCell>
        <mxCell id="w12Q39UHSDCIKb3LfXtM-23" value="" style="rounded=0;whiteSpace=wrap;html=1;sketch=1;hachureGap=4;jiggle=2;curveFitting=1;fontFamily=Architects Daughter;fontSource=https%3A%2F%2Ffonts.googleapis.com%2Fcss%3Ffamily%3DArchitects%2BDaughter;fontSize=20;" vertex="1" parent="1">
          <mxGeometry x="818.13" y="119.16" width="177.5" height="280.84" as="geometry" />
        </mxCell>
        <mxCell id="w12Q39UHSDCIKb3LfXtM-16" value="" style="rounded=0;whiteSpace=wrap;html=1;sketch=1;hachureGap=4;jiggle=2;curveFitting=1;fontFamily=Architects Daughter;fontSource=https%3A%2F%2Ffonts.googleapis.com%2Fcss%3Ffamily%3DArchitects%2BDaughter;fontSize=20;" vertex="1" parent="1">
          <mxGeometry x="420" y="137.22" width="180" height="262.78" as="geometry" />
        </mxCell>
        <mxCell id="SJGOTdjTq_HpJzbm1Io4-13" value="P2P or Relay" style="image;html=1;image=img/lib/clip_art/general/Earth_globe_128x128.png;sketch=1;hachureGap=4;jiggle=2;curveFitting=1;fontFamily=Comic Sans MS;fontSize=20;imageBorder=default;labelBackgroundColor=none;" parent="1" vertex="1">
          <mxGeometry x="200" y="174" width="80" height="50" as="geometry" />
        </mxCell>
        <mxCell id="SJGOTdjTq_HpJzbm1Io4-14" value="" style="endArrow=classic;html=1;rounded=0;sketch=1;hachureGap=4;jiggle=2;curveFitting=1;fontFamily=Architects Daughter;fontSource=https%3A%2F%2Ffonts.googleapis.com%2Fcss%3Ffamily%3DArchitects%2BDaughter;fontSize=16;entryX=0;entryY=0;entryDx=0;entryDy=0;exitX=1;exitY=0;exitDx=0;exitDy=0;" parent="1" source="w12Q39UHSDCIKb3LfXtM-3" target="SJGOTdjTq_HpJzbm1Io4-13" edge="1">
          <mxGeometry width="50" height="50" relative="1" as="geometry">
            <mxPoint x="110" y="200" as="sourcePoint" />
            <mxPoint x="280" y="220" as="targetPoint" />
          </mxGeometry>
        </mxCell>
        <mxCell id="w12Q39UHSDCIKb3LfXtM-50" value="1" style="edgeLabel;html=1;align=center;verticalAlign=middle;resizable=0;points=[];fontSize=26;fontFamily=Comic Sans MS;" vertex="1" connectable="0" parent="SJGOTdjTq_HpJzbm1Io4-14">
          <mxGeometry x="0.2561" y="1" relative="1" as="geometry">
            <mxPoint x="-29" y="2" as="offset" />
          </mxGeometry>
        </mxCell>
        <mxCell id="SJGOTdjTq_HpJzbm1Io4-15" value="" style="endArrow=classic;html=1;rounded=0;sketch=1;hachureGap=4;jiggle=2;curveFitting=1;fontFamily=Architects Daughter;fontSource=https%3A%2F%2Ffonts.googleapis.com%2Fcss%3Ffamily%3DArchitects%2BDaughter;fontSize=16;exitX=0;exitY=0;exitDx=0;exitDy=0;entryX=1;entryY=1;entryDx=0;entryDy=0;" parent="1" source="SJGOTdjTq_HpJzbm1Io4-16" target="w12Q39UHSDCIKb3LfXtM-3" edge="1">
          <mxGeometry width="50" height="50" relative="1" as="geometry">
            <mxPoint x="290" y="330" as="sourcePoint" />
            <mxPoint x="110" y="319" as="targetPoint" />
          </mxGeometry>
        </mxCell>
        <mxCell id="SJGOTdjTq_HpJzbm1Io4-16" value="P2P or Relay" style="image;html=1;image=img/lib/clip_art/general/Earth_globe_128x128.png;sketch=1;hachureGap=4;jiggle=2;curveFitting=1;fontFamily=Comic Sans MS;fontSize=20;imageBorder=default;labelBackgroundColor=none;" parent="1" vertex="1">
          <mxGeometry x="200" y="294" width="80" height="50" as="geometry" />
        </mxCell>
        <mxCell id="SJGOTdjTq_HpJzbm1Io4-26" value="" style="endArrow=classic;html=1;rounded=0;sketch=1;hachureGap=4;jiggle=2;curveFitting=1;fontFamily=Architects Daughter;fontSource=https%3A%2F%2Ffonts.googleapis.com%2Fcss%3Ffamily%3DArchitects%2BDaughter;fontSize=16;exitX=1;exitY=0.5;exitDx=0;exitDy=0;entryX=0;entryY=0.5;entryDx=0;entryDy=0;" parent="1" source="SJGOTdjTq_HpJzbm1Io4-13" target="w12Q39UHSDCIKb3LfXtM-21" edge="1">
          <mxGeometry width="50" height="50" relative="1" as="geometry">
            <mxPoint x="470" y="260" as="sourcePoint" />
            <mxPoint x="380" y="199" as="targetPoint" />
          </mxGeometry>
        </mxCell>
        <mxCell id="SJGOTdjTq_HpJzbm1Io4-27" value="" style="endArrow=classic;html=1;rounded=0;sketch=1;hachureGap=4;jiggle=2;curveFitting=1;fontFamily=Architects Daughter;fontSource=https%3A%2F%2Ffonts.googleapis.com%2Fcss%3Ffamily%3DArchitects%2BDaughter;fontSize=16;entryX=1;entryY=0.5;entryDx=0;entryDy=0;exitX=0;exitY=0.5;exitDx=0;exitDy=0;" parent="1" source="w12Q39UHSDCIKb3LfXtM-20" target="SJGOTdjTq_HpJzbm1Io4-16" edge="1">
          <mxGeometry width="50" height="50" relative="1" as="geometry">
            <mxPoint x="370" y="320" as="sourcePoint" />
            <mxPoint x="730" y="450" as="targetPoint" />
          </mxGeometry>
        </mxCell>
        <mxCell id="SJGOTdjTq_HpJzbm1Io4-35" value="Lan B" style="text;html=1;strokeColor=none;fillColor=none;align=center;verticalAlign=middle;whiteSpace=wrap;rounded=0;fontSize=20;fontFamily=Comic Sans MS;" parent="1" vertex="1">
          <mxGeometry x="866.88" y="40" width="60" height="30" as="geometry" />
        </mxCell>
        <mxCell id="SJGOTdjTq_HpJzbm1Io4-49" value="Lan machine&lt;br&gt;192.168.56.6" style="image;html=1;image=img/lib/clip_art/computers/iMac_128x128.png;sketch=1;hachureGap=4;jiggle=2;curveFitting=1;fontFamily=Comic Sans MS;fontSize=20;imageBorder=default;imageBackground=none;labelBackgroundColor=none;" parent="1" vertex="1">
          <mxGeometry x="1240" y="294" width="80" height="80" as="geometry" />
        </mxCell>
        <mxCell id="SJGOTdjTq_HpJzbm1Io4-50" value="Interface&amp;nbsp;&lt;br&gt;192.168.56.2" style="image;html=1;image=img/lib/clip_art/networking/Router_Icon_128x128.png;sketch=1;hachureGap=4;jiggle=2;curveFitting=1;fontFamily=Comic Sans MS;fontSize=20;imageBorder=default;labelBackgroundColor=none;" parent="1" vertex="1">
          <mxGeometry x="866.88" y="170" width="80" height="80" as="geometry" />
        </mxCell>
        <mxCell id="w12Q39UHSDCIKb3LfXtM-3" value="" style="rounded=0;whiteSpace=wrap;html=1;sketch=1;hachureGap=4;jiggle=2;curveFitting=1;fontFamily=Architects Daughter;fontSource=https%3A%2F%2Ffonts.googleapis.com%2Fcss%3Ffamily%3DArchitects%2BDaughter;fontSize=20;" vertex="1" parent="1">
          <mxGeometry x="-80" y="160" width="170" height="122.78" as="geometry" />
        </mxCell>
        <mxCell id="w12Q39UHSDCIKb3LfXtM-5" value="" style="group;movable=1;resizable=1;rotatable=1;deletable=1;editable=1;locked=0;connectable=1;" vertex="1" connectable="0" parent="1">
          <mxGeometry x="-50" y="120" width="130" height="37.77777777777778" as="geometry" />
        </mxCell>
        <mxCell id="SJGOTdjTq_HpJzbm1Io4-1" value="" style="shape=image;aspect=fixed;image=data:image/png,iVBORw0KGgoAAAANSUhEUgAAAgAAAAIACAYAAAD0eNT6AAAAGXRFWHRTb2Z0d2FyZQBBZG9iZSBJbWFnZVJlYWR5ccllPAAAA2ZpVFh0WE1MOmNvbS5hZG9iZS54bXAAAAAAADw/eHBhY2tldCBiZWdpbj0i77u/IiBpZD0iVzVNME1wQ2VoaUh6cmVTek5UY3prYzlkIj8+IDx4OnhtcG1ldGEgeG1sbnM6eD0iYWRvYmU6bnM6bWV0YS8iIHg6eG1wdGs9IkFkb2JlIFhNUCBDb3JlIDUuMy1jMDExIDY2LjE0NTY2MSwgMjAxMi8wMi8wNi0xNDo1NjoyNyAgICAgICAgIj4gPHJkZjpSREYgeG1sbnM6cmRmPSJodHRwOi8vd3d3LnczLm9yZy8xOTk5LzAyLzIyLXJkZi1zeW50YXgtbnMjIj4gPHJkZjpEZXNjcmlwdGlvbiByZGY6YWJvdXQ9IiIgeG1sbnM6eG1wTU09Imh0dHA6Ly9ucy5hZG9iZS5jb20veGFwLzEuMC9tbS8iIHhtbG5zOnN0UmVmPSJodHRwOi8vbnMuYWRvYmUuY29tL3hhcC8xLjAvc1R5cGUvUmVzb3VyY2VSZWYjIiB4bWxuczp4bXA9Imh0dHA6Ly9ucy5hZG9iZS5jb20veGFwLzEuMC8iIHhtcE1NOk9yaWdpbmFsRG9jdW1lbnRJRD0ieG1wLmRpZDpGREE0RDI4NjM3RkNFRjExQTE0MDg5NzI4OUJBOUIzMCIgeG1wTU06RG9jdW1lbnRJRD0ieG1wLmRpZDowRTVFQThBQUZDM0MxMUVGQUNCQjkwNjFFNzI1NzA0QyIgeG1wTU06SW5zdGFuY2VJRD0ieG1wLmlpZDowRTVFQThBOUZDM0MxMUVGQUNCQjkwNjFFNzI1NzA0QyIgeG1wOkNyZWF0b3JUb29sPSJBZG9iZSBQaG90b3Nob3AgQ1M2IChXaW5kb3dzKSI+IDx4bXBNTTpEZXJpdmVkRnJvbSBzdFJlZjppbnN0YW5jZUlEPSJ4bXAuaWlkOkZFQTREMjg2MzdGQ0VGMTFBMTQwODk3Mjg5QkE5QjMwIiBzdFJlZjpkb2N1bWVudElEPSJ4bXAuZGlkOkZEQTREMjg2MzdGQ0VGMTFBMTQwODk3Mjg5QkE5QjMwIi8+IDwvcmRmOkRlc2NyaXB0aW9uPiA8L3JkZjpSREY+IDwveDp4bXBtZXRhPiA8P3hwYWNrZXQgZW5kPSJyIj8+PHB0cwAAnX5JREFUeNrsnQd8VMX2x39bspveISEQeu+9I0GKir09u6I+yxPrs72/jWBBfZZn771hBxsCgvTee4cACQkhvSe7m/3PmQRFpAUy987unq+fu7sEzN07d+6c35w5c44FDMOYyz0IQTyiUS4OO6LETyL/OCyIEO/h8IoDCBN/DhXvoeLP9B4ijmB5WOAUP3OKz47aI6j2sIu/s4m/s4nPdFjFYZH/ecUB+Sev/A/yqBaHR/zMI/7kEZ/d4nDVHlXysKBS/F2l+FxRe5SLn5WJ9zLxc3ovFX8uEe8l4s/F4r1I/NZiceZC8dsKxbcuQI44/if+P4ZhTMPCTcAw9cwExAnTlijMbYL4U0NhBBuKJ62B+ExHvDwsiBU/jxPvMeI9JEBHn3Jx7fniPVe854mf5NQeB8SfD4ifZ4vP2UKG7BctlIWHxL9jGIYFAMOYwpNIFnPfpsK4J4s/Nak9GosjSR4WNKqdiTP1P1qR5yFTfNpXe2SII10eHuwVrb4Hj4h3hmFYADDMSc3eq9BKPBmtxJ9aCoPTQrzT0VwczVDjRmf0hZYtdosjTRy7xH3cJd53ivu4Aw5xsBeBYVgAMAFMKuzitb08LGgnjENb8bmteG8j/hzHDeTHeIUAsGCb+LRVvG8Vf94iPm+WR6qMd2AYFgAM4yfGvqN47SyOTvKwiD970YEbhjnCaLhJ9I2N4tOG2mO96D8buWEYFgAMozP3IQyR6I5q9BB/6iYG8m6id3cVn3k9njkVKO5grehLa8TnNbBiFYqwGs+jlJuGYQHAMEbzNWxiXtZHGPs+YkDuJX7Sq3aWzzBGsV4cK8QIukIIhGXoKI5/yPgDhmEBwDD1RqoMwOtfe/QTR1/U7GdnGF2g/AlLxbFEHIvlkSoDERmGBQDD1MHgk+t+sDgGiWMgaiLwGcbXIAGwUBwLxDFf9Ou13CQMCwCGOZRH0QU2DBWfhooeOQRemUCHYfxttN0v+vY88WkOPOJ4Auu4URgWAEygzfCbiJ43XAyGw8WfhqEmmQ7DBBqUxGiWeBZmimdhpngu0rlJGBYAjP8xXhr8UeLTSHH04AZhmL+xShy/iVF5OsYJQcAwLAAYn+QhJMCBs8QnOs5ETXEbhmFOjCJxTBXHr6gSxwTs5yZhWAAw+pIqs+udU3sM5QZhmHpjjjh+lkeqzFzIMCwAGJN5FN1gw/niEx09uUEYRjkrxfEDPOJ4QiYoYhgWAIxhM31KunNR7dGNG4RhTIMEwPfySJXJiRiGBQBTz4xDU9Fb/iE+XYqaRDwMw+gFJSL6Bl58jfHYw83BsABgTp474EQcrhCfLkNNIB/DML4BBRB+hVxMxKuo5OZgWAAwJ0YqUsTrVeK4Uhyh3CAM47OUieMLcXwunuvZ3BwMCwDm79C2PSeuhRfXiD914QZhGL9jnRjxP0UlPuFthQwLAOZggp7ra2f8DMMEBp+L0f9DTjjEAoAJNGhtPwb/hBU3gLfuMUwgsxLV+AD5eI9jBVgAMP5MKtqK15vFcRM4Mx/DMH9CmQffFcc7YpzYys3BAoDxH8OfIl5vRU00P8MwzLH4ShxvcdAgCwDGtw3/JeJ1rDhSuDEYhqkjJABeF+PIt9wULAAY3zH8tLZ/hzi6c2MwDHOKrBbHq2Jc+YCbggUAo6/hv0283i2ONtwYDMPUM9vE8ZIYZ97gpmABwOhj+G8Xd/Lf8KIFNwbDMIqtxi4x1rwoxp3XuDFYADBmMR7/Eg/ifeJTS24MhmEMZqewIM9jHN7kpmABwBhn+K8Thv9B8akDNwbDMCazSViSZ4UQ+JibggUAo87wny8M//+JT/24MRiG0YwlwqI8LYTAD9wULACY+uJRDIAND4tPZ3NjMAyjOb/Ag6fwBBZxU7AAYE6WVDQRr4+hJnMfwzCML0GZBR8X41g6NwULAKZuxv8h+QoEcWMwDOOjuOQ4looJ3BQsAJjjMR4XwytUM9CRG4NhGD9ho7A2j2EcvuOmYAHA/H3GT4V6nhLHJdwYDMP4KZRW+GEuOMQCgPnT+D9Ua/wZhmECgYd5WYAFQGDzGIbDimfEp97cGAzDBBjLUY3/4HHM5KZgARA43IwgJOE58ekubgyGYQKcl7EP9+MdGTDIsADwY1Jxnkyf6eWCPQzDMLWWaJtMa56KH7kxWAD4H2+LWX8m/ic+jeXGYBiGOSKvoxHuwS3sDWAB4D+z/jNBZTSBdtwYDMMwx2QLqKx5KqZyU7AA8HXj/7R4/Q83BMMwTJ14Royf/8fNwALAFw1/d5A7CxjIjcEwDHNSLAQtm6ZiNTcFCwDfYDz+BS/e4IZgGIapF0t1G8bhTW4IFgD68gqcyMNb4tMYbgyGYZh65SPE4lbciUpuChYAevE4BqAa74hPnbkxGIZhlLAeVtyMx7jUMAsAXWCXP8MwjJGWi5cEWABoQKoM9LuNG4JhGMZQ3hDjL+dVYQFgiuFvLl4/FEcKNwbDMIwpzBbH9WI8TuOmYAFglPEfJV4/FkciNwbDMIypZInjOjEuT+emYAGgFl7vZxiG0dGacVxAHbFxE9Rp5v+seOUa1gzDMPpxNlIQitmYwU3BHoD6badUfCHeL+emYBiG0ZovxXh9pXj3clOwADjVWX+SeJ0ojtO4MRiGYXyCueK4Qozf+7gpWACcrPGnfP5fiaMtNwbDMIxPsVUcl3EdARYAJ2P8R4jXb8QRzY3BMAzjkxSI41IxnnNcAAuAE2S86DBefM0NwTAM4xeW7h8YJyd0DAuAYxr/G4Xxf48bgmEYxq+s3T+FCHifG+JPeBvgoYzDneKV95EyDMP4H+dhKPIxB0u4KVgAHD7zf1C8vsANwTAM47degLMwDBWYjQXcGCwAakjFI+AEPwzDMIHACKTAI0TAXBYAPPMfJ14f52eCYRgmYDgdw0ClhOawAAhk4+8V83+GYRgm0EgJdBEQuAKgxu3PM3+GYZhAFgEBvBwQmNsAKeDPi2e47zM+++BabLBY7eJdHFbbIe+HHlb5Dvlupf9JPPA17/ToW2rf/4oXXq9XvosP4rW65t1L79Xi3SM/17zXHtX07j7k3S1/zjA+ZAn/g3Gy2BsLAL+GtvpZ8DL3eEbrB1MYd6vVIQ+LLUi8B4mfHXwXf2cJqjXkGiIEQ7XXJYVAdTW9u2rePfReJQ/6O4bRq9/iLjE5fIUFgP/O/DnJD6MVVhsZead4d9Z+dtR8Fu/aGvj6EAgkBDyVte8HP1fKzwxjokUMqGRBgSMAOL0vY/KjZrMH1xr6mnebrcbwc0LOP6dgJAQ8JAbkUVHzZ3cFuLIrY+CjGjBpgwNj5Kkp7PMb92zGsJk9zeSFwbfZQmrfg2uNPVNXakSBEANCCHg85fKdPAcMo5CRgVBAyP8FQE1J31ngqn6MSoNPM3p7SK3BD5GfZQAeU/9+Aq8HHjcJgXIpCORnIRIYph6hKoLD/L2UsH8LgFQk1Rr/ttyfmfqd4QcJIx8qjxqDH1oTac+YIAiqhQgoqxEE4l1+rnZxwzCnytZaEbDPXy/Q7ufiZiIbf6a+kAY/KEy+28ngCxHAaPCgC+FlDwoH6CBBIIy/u1YIeFyl8p1hToK2tTYkBX4ahOK/HoBUeeMu5z7MnLxhsUmDb7eH/WH4Gd/joBBwu0vlO+coYOrIl8KeXMECwHeMPyV0eID7LVPnB8JqrzX44WJWGSYj9hn/gXYWuMkr4CqRgoDzETAnyH+FXXmQBYDujMe/4MUb3F+Zusz0yYXMRj+AxYA42DPAHMda3oZxeJMFgL4z/1HidRr3VOZEqDH6ETXv9hBukACGdhKQCPC4iuU7wxyFM4Sdmc4CQD/j31y8LhJHIvdR5mjQ7N7uqDH6dmH8GeZw3LUiwF1VLL0EDHMIWeIYIOxNml9MgvzoxnzIxp85osqVUeIRtYY/gqP3mWMPikE1/cQbHF8jBqqK5bssiMQEOom1tmYYewD0mf2/Ll5v477JHD7bD5JGP1JG8TPMySJ3EbiK4GKvAFPDG8LujGUBYDYc9MccaQbniJSHlWf7TD1CCYbcVUU1h6uYGySQ8YOgQN8WAI9jAKqxkHsiIyP5a41+kDi4wA6jFi9cB4WAOHgHQYBixUA8JmPPWAAYyitwIg/LxafO3AsD+PmzOv4w/PbaTHAMYyQ1AYM1QoCLFAUc6xGL3rgTPlmMwnerlfTDe+J1FPe/ADX8NiccwXFwhiaI91jxZwc3CmNSX3TIAFOKM7Fa7fB63ewRCBwaohxNMBs/sAfAKHjdP2Chsrp2ZxSCHFGcsIfREgoSdFUVwl1ZKMsYMwGAj8YD+J4AqCnvu4p7XCAa/uhaw+/kBmF8QAhU1gqBAhYCgUEPXysf7It5AF7nfhY4kLEPkoY/mg0/43N91xnSUIpWV1UBXEIIkChg/BayTYN8amLlY7P/p8XrFdzPAmDwtDpq1/gTpfGnIj0M44vIAlO1tSasFpssV8wxAn5JMlIQjNmY6TN904eM/5ni9VfuY34+WIoBUs74nTFcfpfxS6g8sasyX3oEWAj4JWcJezWVBUB98TaCkIl14lM77lv+S42rP0ZGVDOMv0Mphl1VNUKA8Su2oBG64Ba4dP+ivrEE0BuvSFXF+CXkHqXtfOTu53V+JlCQ8S0yqNUBeKs5h4D/EI8SxGI2prAH4FRJxXni9QfuU346ADpj4BAHF+hhAhmKC6iSywL5HCjoP5wv7NePLABOlpsRhMbYAC/acF/yIyxWafR5nZ9h/srB+AASA+Dqgz4+zmEbMtAJ7+i7FKD3EsC5eFG8juae5D9QoR5nSILcHsWFehjmr9AzUVPEipcF/IA4RCASs/UNCNTXA/AYhsOKGdyH/GVgcyAomGb9sWz467NdLVY4bY4/DoctSL5HOSMQGxyN0KAQ+ecgq10cQfLvHbQtzUr/ruY+VFGFu2o3qjyuv3x2ifdSVxlyyvNRWFks/67KU4VK8XeV9O6uhIdnqcqgyoOuyjy4KvJZCPj0jcQIPK7n1kB9N1db8Qz3HP+A9vEHBcdysZ6TJCwoVBjzKEQ7IxEXEiONe7OIJCSFJyAhNF7+nH5G79HBkYh0hMMmhAGJg3oZv4SRJ0NfUlWK/MpCKQboKKgswv6yXOwr2Y/0kizkVxRKsUD/hj4Xi3/PnJo3gLxlNnuYEAF5MpkQ44s3UtqyPuwBOFFS8ZB4fYp7jo/3e1mwJ1bM+uNgqSdj5M+Q0W4T0xwto5rK96bCyDeNTELDkDg0DI2Txt+pedEjd7UH2eW5yBVCILM0GxnF+7G7OAPb89Ows3Avtubvkp4Fpm54hQBzVeaiSggBDhL0SR4Wdm0CC4DjG/+2oH2UjG/P+p3RcAjDTxXSmMMfOosw5tFoEtEIfRO7oVNca7SPbY0GIbHy5zST90fIa5BbkY8DZXlCCKRhQ+5WLN+/DmmF6eLnBdLTwBwbj6sUVUIIcO4An6SdsG9bWQAcWwB8I14v4b7Cs35/wW61oU10zcy+fVwr9Enoip4JnaT7noE0/iuEEFiWtRabcrdLT8G2gjQZh8CwN8CP+FbYt0tZAByN8bgYXtFIjG/O+h1RCAqO47V+AbnuhzcdiN4JXdA2pgU6iBl+hIO9IScCBR5uztuJ7QW7pTCYsWcBdhTs4YY5DLerBK6KXFlxkPERLGJyOw7fsQA48ux/g3jtyL3Ex/q01S7d/VS8J1CL9sSHxMgZ/shmgzEsuT9aRCXLnzGnTl5FAXYXZWD23iX4bfd86R3ILsvlhiFvAO3YECKAlgW8HFvhC2wUdq4TC4C/G38O/PNBaI3fERwvZ/+BBgXq0Qx/YFIvnC6MPq3pM+rZX5aDGbsXYEnmaizNWoNNeTsCvk3IC1BVkSNjBBjt0SYgUA8BkIom4nWnOHiDuA9Ba/1k/K224IC5Zlq3P6/VCKQk98OApJ6IC47mjmAiFFg4f99yLNq3Et9tnYp9pdkB2xbVngopAig2gNFbr4mjpbB76SwAagTAO+L1Ju4XvgHtTybD7wiJhy9VlD5ZaL89Retf1u5sOeOnLXmMfhwoz8PaA5vx9ZZfhChYgfTizABsBS+qynOkEKBEQoy2vCvs3s0sAB7FANiwkPuDb0ABfmT8KV2pvzOq2RAMa9ofV7Q7FzHBUXzzfQhKQvT11l/w+55FmLJrdsBtMXRXFUkRQIGCjKZ4MBBPYFFgC4BU/Cxez+beoD+ycl9IA9j82OVPwXtXtD9XBvLRrJ/xfVbsX495Gcvw5eafAipewENLAuUHZHEhRkt+EfbvnMAVAONxPryYzP1AbywWm3T308yfPvsbtD1vSOM+uKHzpdLoU1pdxv+gVMaUeOijDd9hbvpSmX/A3/F6PTVxAeU58jOj2+CKCzDOvHL35gqAVCwWr/24F+gLBfg5hfGnIj7+BgX0XdhmFK5qfz66NmjPNzuAoLwCn2z8HpO2T5dbDP0dKipUKUQABQoyWrFE2MH+gScAxuM6Mfv/iO+/vsj1/pAGsoSvP9EupiVu6nqZXONvFtmYb3QAk1l6ANN3z8M7a7/E+hz/zkDudhXLJQGOC9DOCzAG4/BxYAmAVGwUrx347uuJXO8PbgCb3X/W+wcl9cL1nS/B6BYpssIewxyk3F2B3/cuwnvrvpKBg/6Kx01bBTkuQDM2CXtoSgI8cwTAePxLzP7f4PuuJzTrdwrj7y9Z/Sgl73UdL8L5rUfyzWWOC2Ub/HjDd/hp5+9+eX2UMbBSiADyBjDaeAFuwzi8GRgCIBUUituS77pmfVAG+wnjH9LQL65ncOPeuKvnGOnqZ5i6Mid9Cd5Y/Rmmps31y+urLM+WIoCDA7Vgp7CLrfxfAKTidvH6Kt9vvbDaHHAEN5TZ/fzB8N/a7Srp6rdxRULmFJm9dzFeWfUxZu7xv3QllDWwqiIb1Z4qvtHmc4ewj6/5twAYL5SOFy34XuuDzR4iZv4NfT6f/4BGPXBLtytxYetRfFOZeufXXXPw7rov/U4IyDoC5dnwuMv5JpuJBbswzljPuLECIBW3idfX+U7rgz9E+lOq3gf73IzL25+LYJuTbyqjlImbf8J/l72DnYX+U6KYdwhow1hhJw2LjzNaAGwVr234Hmti/B2Rcr3fZvfNiHhK4DOm08W4q+f1aBASyzeUMQxKKvTq6k/kroGccv+IqPe4y2RcAKURZkxjm7CTbY06mXFp3VJxg3i9nu+vHpC73xmSKN3/vsjFbc7EK6ePw5Xtz0NYUAjfUMZQHDaHzB5JcSblngpZhMjXoSJfsrKn141qTyXfZHOIQwr2YjZW+ZcHIFVeUHe+vxoYf2eMnPlbfdBd3jm+HR7pNxZntRjKN5LRhgX7VuCxBf+TqYZ9HTL+5AngXAGmsVrYyx7+IwBScYl4/Ybvqw7GPxbOUGH8rQ6f+t5OMeP6V7er8J++tyLEHsw3sq6DurcalR4XZu9dhCJXKUqrylBYVSz/LtIRjvCgUJkciXImUFtbefdEnXFVu/Hyyg/xkjioGqFP95fqKlSWZcsUwowpXCrs5rf+IgBmidcUvqfm4giOkzN/izXIp773aU364rH+d6BPYle+iYewMnsDlmetw+a87dhVlI6iyhKUuctR4RYzOE+VNPiuapc0TJ5qDzxeOqrh9XqPMhhYpOG3W22wicNOeSGEGHDagsTP7HKphYIso4Ij0SwiCe1jW6F7w45y9wXzJ+tytuCpJa/LXQO+jFf0HZkroCKXb6rxzBZ2c5jvC4BUafhn8f3Uwfgn+FR2Pwrye6jfbbipy+UI8pOshHVhWdZa5JTnyap1G3K3YWveLuwtzkR2ea6cYZJR98Jr+vckwUDeg4YhcWgS2QjtolugY1xrNAyNQ1xITMCWVf5k4yQhBF5DVmmOD4sAtxAB+1kEmMMwYT9n+7oA+FK8Xsb3ko1/XaA1/vED75aFewJlNj8vfRnW5mzGlrydwmgcQFFViZzJ+3TfswUhPCgMjcMT0C62JTrHt5U1GQJFFJDxf3Des5i8fTqLAKaufCXs5+W+KwBqtjNs4fvIxv9EoZnkI/3H4rZuV/v1fSFD/8P2GZifsVzuJ8+vKJLu+kCAlhNinJGyEuOApJ44u+UwRDrC0Cmurd9e8zdbp+DBuc9Kbw6LAKYOtKvdPu+TAuB58Xov30OzjH9srfH3jTX/gcIYPHfaf2Skv78xP2MFtubvxLS0eViStVoY/ELuoIdAgYj9GnWXdRto+YDSOfsbaUXpuH/OM7L8sG+KAFetCODAQAN5QdjR+3xPANwBJ+KQTc8230PjkVv9QhPl3l5f4J5eN8hAP3+KPidj//32aVidvRE7CnbLYDzmxDwEraKaokdCJ1zQagTOapHiV9f30soP8MTi1+Cu9r0iPNUkAsqyeIugcRQhFw3xKpQkZlAnAB7DWFiNLWzAHDT+0TLJDxX40R1a438x5WG/mPFtyN0qZvbFeG/dl1i4b6UM1jtaxD1zogOUBfEhMXKp4OYulyM2JMovlgooX8B9c57GquwNvicCaIdJOYmAAu6ghjQ4bsfjalLoqxMAqVghXnvy3TN49uSIRDDN/G3675W/qM0Z+F/KI4h2+q6TiIz+zoK9mLFnAX7ZOQsHytk9qpLY4Gic03KYXCpoGZ3s02KgzFWOhxe8gA/W+16KlGpPBSrKsjhtsDGsFPa0l+8IgPEYDi9m8H0z2PgHhUu3vy/k9qdsfvf3udmnDf/326bLvd70mTGe9rEtcUbzobis3WifFgJvr52I/5v3X5mjwZeQtQNIBHABIfVYMALjMNM3BEAqPhOvV/FdMw4y+mT8SQToDFXue3nYo3IG54tGP6+8EC+ufB+L961CmbuCO54GUGbIngmdcG+vfyIxLN4nxQDtBrlz1njsKPCtCoNk/EkEkBhglPK5sKv1vjWq/gXAQ0iAA1l8v4yDcvoHhzaS7n+doSj/l4c9hrYxLXzO8C/MWIl31n2Jrfm7uMNpTMuoZNzY5TIMS+7nc0JgX2k2bp8ppnl7FvqWCKgqQkVZJhcQUk0VEjEB++t14ljvX3IEbhOvI/luGQPt76c1fwr805lrOl6AD854Fgmh8T5l+J9Z+qaM2J60fbrP7uEOJPIri/C7MKA/7fxdirVmkUkyI6EvQJkvL2t3jiw1vDRrrU9NQCwWW40XwMeWMXwKO7IxG/WqDuvfA5AK6rld+G4ZYv4RHNYIjmC9jSpt77u39z99plUpK99zy96RMzFfz8QX6FAmQso8+HC/sT5VS+KtNV/IDII+NUGtyEFFaab4xDtfFLFO2Nd67cT1KwA477+hUGEfWvfXFcrf/8rp43Bl+/N8oj3npC/BG6s/l4laqnkm42dS2YKhyX0xtts1GNXcN+JPyOs0duY4lLp8Z32d4gGogBCjjHqtD1C/SwApeBi89c+YmQ1l+QtNgEXTxDnkdp04+mWc0/J07duSXP13zXocE5a+Id3GXp7B+CVpRRn4btuvWJy5Cq2im8n6BDrTIbYVhjUdgPkZy3wmc6TNHgJQ1Ul3OXc4NbiF+f9JPw9ATeY/2gQdyvdILTV7/RvJtTcd6ZXQGe+OfFoMsk21bkfKx//Eotekq59K5TKBg9ViwaDGvfH4gHvkDgKdodwS1097QBaL8gUoGJCCAjlHgBLKkIvY+soMWH8egNG4RrxeyvdHtcIORXBIQo3S1pCRzQbjs7NelNv9dJ7xU732++c+zTP+AIXu+J6iffhs02TsKNwtkwrpGiwYFhSCC1ufIdNJb87boX3bUmAypSAnIeANkAJXBhIkptg7MBur9RIAKXhavLbm+6PywQqSbn9dt/ud12oEPj3rBVnRT1fD/8nG73HXrCewOHO1zyVeYVQIAa/oF9vw9dZfUVxVigahMVoKAYqnuaD1KCla1uXoX2CV0pBbrFbeGaCGYCEAPq8Xm1IvX2ccmorftJvvi+K7HtoIjpAGWn63qztcgNeGp8pgKx0N/67CdDw0/3nsLsrgjsQclaSwhnh6yP1oE9Nc2zwCd89+Ah+u/9Yn2rOq/IBcDmDqXbk2w3icctao+vEADMNN4nUU3xV10FY/XSP+x3S6BK+ePk5b4//k4tfx7LK3UVhZzB2JOSbFrlJM3v4bdhbuRZcG7bT0BpzZfCiKKkuwbL/+uQJsQWHwyqBAzhRYr1iwrz5yAtSPAEjB/8RrY74raiCXf03Ev02773Zj53/gpWGPaGn4v9s2FTdNf1i6eBmmLqQVpePLLT/LWIEoZ7h2QmBEs0GocFfKpSzdsdqdqK6u4kyB9Uu0EADvmS8AUtFZvD7F90PRw2MLlsZfx6C/27tfg/+e9h/tvtfK/Rtw9+wn8enGSajiICTmJHFVuzE3fanMytc5vi0ah+vlgRuW3F/GsSzct0LvyaqYuFBgIG0N9Hrd3LHqh8Zi4v2dEAGnlHTh1AVACm6lvsj3Q8WTY4UzJAFBzijtvtpdPcfgyUH3ajfrf2/917j993FIL+Z1R6Z+yC7LxZebf0aVx4W4kGitvAGnNemLEDHDnr13ieYTGQcNaHC7qXIg77qpJ/YLATDHbAHwsnhN5HtR/zhC4mW2P924pesVmDD4fu2M/+2/j8e3W6fwnn6m3qmunWnPy1iOQY17aiUC+jfqIWbWXizQ3BNAXkyOB6hXYoUAeMs8AfAousGKVL4P9U/Nun+iduv+N3W5HM8N/T+tDD8FbY2Zdj/28qyfUQwVhPp002QE2eyIdIRpIwSGNOnjE0WEaEmT4wHqjUQMwWTMPfkKgadmXU7HLWD3v4KHxCmNv27r/pe3O0dG++tk/MctfBlvrf0C7mqe9TPGQOvu5HLfWpCGbg3aayMChjcdKFMGr9i/Xtu2+zMeoEx6A5hTNRbIPJVlgFMTACl4Ubw24rtQv1DQn27lfS9qcwbeHjlBplDVgelp83DllHukCGAYM6CkPN9um4oW0cloH9tKi+9EmTh1TxZUEw8AuF28LbceiBIC4B3jBUAq2oOj/+udg0V+oNGeeiro88lZL2hh/Mngf7jhW9wz+wmUccERxmSoXPQPO34T75VoEBqrhTeAntftBbuxMXe7tu1WEw/g5qJBp04jMRH/SoiAHGMFQArGgJP/1PNDESqj/imPti70aNgJE0e/BEetajfb+D++6DUpADh/P6MTizJXaZU86KzmQ2WiIMpnoCcWmdq82lPB9QJOnd0nmxToVATABPHanNu+vp4HC4JDE2F3RGjzlZpFNsZ3576OeDGzMZtlWWtx3dT7sXz/Ou4rjJaQsf111xz0SuyM5AhzV0ZtVhvObjkMs/YuRlbpAS3biyY6FjHu8VLAKeMUAuAj4wTAQ0gQ/+dr3O71h0z1q9GWPyo+8o0w/jqsbU7c/COu+fVe5Fbkc0dhtIZSCX+1ZQriQ2LgsAWZ6g1w2hwYnjwQk7dPR4lLz613cimgmrcGniLNMRBvYR5KjREAw2XZ3wu43evrIQgTs/8EGR2rhTK3WPHVOa9gSOM+pn4PcvlTudb75z7De/sZn4FyBkxLm4twB6UQNjcuIMoZgZ4JnfH9tqna7pSxCqHkcfNSwKkZEWw4mRLBJycAUkAbwTtxq9cD0vWfAHuQPq5/yu1/cZszTTf+zy59G2+vnch9hPFJlmSuxv6yXLSPbWmqCKDliNbRzWS+DC2HQDHx4aWAU6ZKCIA6l4g8WQHwPmjdgTllHMFxWrn+7+9zM+7sMcZ043/7zFTMTl/CHYTxabbm78LK7A3ok9jVVBFAS3mh9hAZE6DlBFYuBfCugFPReUIAPKNeAIzHcPF6E7d3/XR6Z0girJq4/s9oPgSvnp5quvGn/f2b8nZwB2H8AgrCm5o2FynJ/UwVAf0bdUd6cRbW5mzW1BPgQLWnTAoBps44MQzzhQjYVZf/yVrn03h56199EeSMFSIgWIvvQi7Cd0ZOMPU7rDmwCedOvhlphencORi/IqNkP874bgzmmOzV+l/KI+ib2E3TCVGwHBOZk+QkbLP1JE4zklu6Pox/jEz6owMUrfzuqKcR7Yw07TtQCd9zJ9+E3HKO9Gf8k+KqUlz+852Yn7Hc1Gf99eHjEaLJxONv30+MiTQ2MidFnW1z3QRAKpqI1x7czqeG1eqo7eR6ZPsjt3/PhubFdE5Lm4czvx+DwkoOAmL8mzJ3BS744Rb8tGOmad+hbUwLfHLW85q2kEWOjTRGMnWmR62NPmHqFgMwDBeCt/+dusoNiYdDE1fXDZ0vxX29/2na+WkgvHbqfajiLUBMgEDbBCfvmI7G4Qno1qCDKd+hVXQzmSdgjoaBtlQrwAsPPK5S7ix1109rMRtr1AiAFNwrXrtxK5889qBwmetfhzK/gxv3xkdnPie34JjBlF2zMWbq/XBx0A8TYFAi66lpc9AorAG6N+xoyncYkNQTG3K3yZ0KOooAShNMpYOZOlEsBMCkE27nOv5yLv17iuji3koMi8cHZzwrk/6YNfO/aso9bPyZAPYEeHHnrMfxxaYfTfsOLw97zPS0xUc0TH8skzIqbfSJT0MfRRchFx7k9j01419T6c983hk1QRb6MYOZexbi6l//zdn9GEYwJW02WkQ1Qef4toafO9QejK4N2mPi5p+0axfaJk0eAPIEMCdMJIbge8xFdv16AGwYym178lC2K10U7XWdLsbZLcxx5izNWiONP8/8GaYGr9eLsTPHYbZJSXpoKfCeXjdoO2nSJUW6z1AHW10X/y8LgFPsyLT+bzatoptiwqB7TTk3lUw9f/LNKHNxti+GORQSxJf8NFZ6x8zgkf63o1+j7tq1C42ZvBRQZxQIAAuGcLueHFZbMIIc0Vp8lzeGP4FwR5jh56UMf5f9fIfcBsUwzJFFwNVT7pGlrw2fNFqseO30VIQFheo3eRJjJ42hTP3b6hML/05FV/G6hlv25HCGJmqR7//hfmPxQJ+bTTH+F/7wL+wvy/Ht58pigdPukAmTmkc1QZf4dmgakYRIRzgihKiin4cekmAlrSgDq7I3YnvhbuwtzkR2aY4sy+r28PIHc3Rig6Px84XvolOc8TEBH6z/BvfMflK7Nqksz0ZlWRZ3jhOnm7Dbx1WSJyoAbhOvr3ObnoSytochJKIprNYgU7/HwKSe+PGCdxFk8HoaGf+bpj8s330NypqWFJGAllHJ6N6gEwY37iXrq59qe8zLWC6OZVicuQo5ZZz5kPk7baKb4+OznjNFBFBejh80qxxYXe1CefEeeNycG+AEGSvs9hv1JQA+F69XcpvWneCwxrLin6keCJsD8y7/Cu1iWhpu/B9Z8CJ+37PIdwSb1YpOYmZ/adsz0SehGwY06qG0fRbuW4mvt03B8sx1MkEMwxyEigdNGHyf4SIgs/QABk68BHkVBVq1R1VFLipKM7hjnBhfCLt91XHHuxPriXhBvEZzm9aNmqQ/ibCYtNf+IOT2v6C1sSUcyLh9sfknfLXlF5+4Vw3D4nBLt6vw/Gn/wYN9bkG/xO7K90dTZbheCZ1xbYcLcW6r01HoKsGOQjHLqebtkUzNEhIlDEqOSDS0iiAtZ9Gy1rS0uVq1h9XmRLW7nJMDneBtxGy8fOoegFQ0F6+7uD3rTkh4E9OrW9E69e+Xfi7d2Uai61ri4bSKaYbrOl2EEckDTXG3Hkk4vb7mU3y/bTrKXRwwearYrDbYxUGiyu2jwip14F24p6ex2/Q83mpc+MOt2qUKdlXmobyEq4WeIC2E/U47VQFwuXidyG1Zx9m/I0IIgGamz/6nXfyxrANuJFTZb+R312g94DaLaowHet+MHg07amH4jyQEXl39Kb7c9JOYBXr5gToGJG4bhMaiaWRjmdSmSXgiYpyRYiYbjmhnBAYl9ZZLLUVVxbLgVLGrFJml2ViVvUHOsrPLclHhqtT2+ihb55SLPlC6HHUkNuftxGlfXYZKjz4zbq8QJuUlu+Gu4sJhJ8AVwn5/eaoC4CXxehe3ZV1n/8mm71+9ruNFeOX0cYYbrvMn34ID5Xla3peo4AiZ9GRU08FaGv7DoXoJt89KRS4HC/7FIDYIi8XApF4Y0/FiNAiJOaV7SX22qKoUn2/+Eb/vXYj9JQe0E6/xIbH48YK3De+zTy99E88sfUszL0C+EAF7+UE4Pi8L+333qQoAiuDqz21Zl9l/JELDm1L6P9O+A61fL7ziW7mWZ6Txf3DefzEvfZl298Rpd+LGLpfi6vbn+4ThP7xdn1vxLiZtnR7Qz1W8mOWf03IYLm93rvLgzA83focfd8wQYkCfravkrXp9+HhD+2+Vx4WUr6/UaxePtxplJXvgripiY3NsFgv7PeBY/+DYQYBfi78/gLegS+F6H4H2/Nvs5ibUoKQeRpYapQHiqy1T8LWGQX9Dkvvg4zOfw1XC+BsZTFVf0HembWHxYXFYkLE84J6nxPAGuLf3TXi031hc2/EiQ4IzRzUbgtOTB6B9XGtsLtiJokrzXc5ZpQfk2nzTyEaG9WOKoWgT01yvWgGyeqmXBcDxScJteArfHH0N8dibwjeiD+peMTCwZ/9BEbA7osw1eE364LzWIww957b8NLy88kOt7kVIUDAeHXAHUhr39blZ/+Ec/P603v3EwlcD4lmKcIbj4X634bTGfUy5f3ROOgbVls19YN6zyC8vNLVNPtrwHUY0HWRoe5zWpK+sHfLLrln6jLNijLUHFcDt4liAY2CtteGLT84DMAwXitezuB1PHIeY/dtNTKdJiX7eHvEUmhhY4pNm/1f8cjeqql3a3Ie+Sd0wcfRLcuDyxVn/0WamUY5w9EvqIcsp+zPntxmJt4Y/gdEa3D86Pxnckc0GwWOpxprszaZ+n6lpc3BWi6GGtkuXBu3wycbvtangSVk5qYiS28VegGNSjbWYg6UnJwBSZAbA7tyKJ4YtKAzBoQmmRv7/o+1o3NrtKsPOR8b/4fkvYGu+PjtF7+t7M+7pcb3Pz/qPZow6i+uKC43Bb2nz/e76aJ3/s7NexJnNh2h3/6jtz2o+FP2FAFuQucK0ZQGqGbAuZ4vMIWGUCIgLiZFprBdnrtZnemsLgsddBq9GEw/tsCAbszH5ZAXAE9TvuRVPDGdIA1Mr/oXYnfhUDJ5RzgjDzvnllp/lnn8dCA0KxtujJuDWLlf4zaz/aATbHCh0l2Jjzja/uabBTXrjg1HPyKp0Ot+/5pFNMLRJX+yvyMXWPHOEb0bJfiRHJhm6NZCCED/f9APK3HpU85QTLW81LwMcG7sQAG/WXQDchzA45BZA5kRm//ZgOOXs32bad/hPn1sxumWKobP/MVPvR7XX/H3qLWOaYvJ5b4mBuV9A9DcykK2jmmJp9lpkl+b6/PU81H8sxna72me8NtT+7WNaolVMc8zau8iUTA1z05diQFIPKUgMEZ1ighHpDMdUjTIEWqx2eNwlQgdwga2jdVX0xvNYiCO6SY7uq45k13+dZFZQFKxWh2nnbxGVbLjr/7pf79div3TPxM747MwX/NLlfyzoet8e/iSCg5w+ew1BNjs+OPNZPNj7Zp+7f/R9SbRMOv9thAaFGH5+Et53/D7e0C16Yzpdgs7x7bS5BzTm0tjLHINj2PKjC4Bq9OCWO1EVGiT3/pvJfb3/KXN4G8Vnm37AtoI009s+pWl/vDZsXMAZ/0ON0H9Pe9AnvzsJl6/OeRUXtz7Tp+9BSpN++P68NxHmMD74d3dRBt5c84Wh53y0/+16Tb7E2Gsxudqq1hzDlh8rWq0bt9wJzmJEB7TZQ0w7f6e4NjI5ilHMz1iBt9Z8bnq7j26VggmD7g1Y43+Q3g27YHByH5/6zuHOMEwWM+dTLa+sC7QW//MF7yE+1Pjsn59unGRozv4zm58mtxrrAo29QSZPwDSnW90FgJcFwAkr0KAIU89/Z88xsuCJEZC78b65E0xf9x/ZYgge6Ts24I3/QS/A04Pul+50X4D290+/6CMMSPQvJ2PPhp3w4/nvyJ0MRkOFt4xcCvh3zxt5DPYVvCcjACzoyi13Ah1PKE8z3f80+NPWP6OYvXcJNuVuN7XN+zfugfH972Tjfwhd49vhDiEEtX9erHZ8Ofplv713dF20jdFpNzYeaEfBHkza9pth50tJ7qeVF8DscVhrjmHLjywAUtFRvDq55fRXng/0uUkWRzFq9j9+0SumXm+Xhu3w4mkPsfE/Ape0PgNRwfoOghbx39fnvIrBjXv79X2g5YCJZ79s2HN5kP+t/ABrDmwy5Fx0bXf3vJ7HYt/AWWvTT9gD0Jnb7AQeAluwqaqze8OOMlOaUcb/sQUvmVoatElkIxn1zsb/6LPPMZ0u0vb7PTXkXgxvOjAg7gXFNjyf8pCh53RXu3HfnKcNWwqglMQDk3pq5QWgMZk5cZt+NAHQidvrRDpcBKwmRp/e3v0amRveCPYU7cOMPQtMu1bK6//12a+w8T8Ol7U9W1Y+1I0rOpwro+UDif6J3XBTt8sNPefSrDXYlLvTsPM90OdmfSZkcjcWewHqYtNZAJwsFoupLqcOsa1wcRtjtk/RjOLeORNMbe53R05g43+CXoBrO12o1XdqFtUYd3S/NiDzNFzf8WK0im1m6Hn/b/5/DfMCDEseoNWSjhyTLVy89tQEgOXI6wXMXzuamWl/b+h8qWFrjDN2L5SpR83i9p7XomVUMne6E/UCtDnb8PXno87KxGD83sinAzpPw9unPymDH40iuywXPxpYLOqmLpdpNC6HcyxAHWz636VSqiwRzNUVjkNwWGM4gs3JV94gJBYrrv7RkJz/NJMY9e0YlLhKTblWSvSj617/wqpirDiwHhml+7G3JBPp4p1+FuuMRnxwNFpENsHopinis/F7w/tNvAibc3eY3kaU4pey/AU6r635FA/Pe9648cnuxO+XfmbIc1PursDgL/+B7QW7tWjrqopcVJRmsJH6O0HCvv8lZ/KRZGl7bqfjzGpk+knzVOaYzpcYVvDnw/Xfmmb8Y0NjtDP+2wrTMGffUvyWvgDr8rYisyxbGn1vZZEsTAKKCTkYKBkchTZRLXBe8+G4vfM1aB7R2LDvSaVrzRYA7eJa4pwWKTxgCIY16YcuDdtjnUGlhCvclXhxxQd4f9Qzys8VYg/GNR0vxLiFepSOobGZxujq6irueH+37ev/YstYAJxEB3OEw2ozJ++/U5z38nbnGHKutTmb8eGGb01r5+eGPKiN8d9RtAd3LXgSfb+7CLfMfRRfb/sRm3K3oNRVhmCbE5FhjRAV0QRRYQmIikyWR4g9BNvyd+CFVW+j//eX4HPx/xjF2S1ON30ZILX/XRy3UQu1w/gBdxl6zu+2TpVZO42AMpHGBUfrMUETYySN0czxbfvfRwgL2nE7HRubibP/C1uPQutoY4KKnlr8umnFfkY0HyQDHc2mxF2GJ1a8joGTLsMrK99EVbUbYcKwR4rBLkocoeKzQ8z6LUcIPKKf07+hf5tdnoerp43FC2veM+R70170xpGJprXbmS2GollkEg8Wh0BbA89vM8Kw83nFf08sftWQgMDEsHhcIMYmHqM15gi23XqEXsOS/VgdSwz4Zgb/XdfpYkPOQ4PGtN3zTLlGKhLz+IC7TZ89frD5Wwya9A88tmACsssOICa8EYKsdjmztsBSh+fOgihnOILsobhv3nh8tvUHQ74/1W83gyBbEB7rf7sWs3+XEGwlrjJT81ccyoO9b5FbWo1iceYq5JTnG3KuW7tdqc04TWO0mfVZtOQItv1IMQAsAI6pLMPFbM9myrkp17hRiTeeFLN/r0n5/h/qd5upxiO7PBf/mjcO32//hR4ahIc1kLUWqmmN/2SfPdGWYc4IFIpf+O9FT6NfQne0iVLryaF99z9um2F4+13b8UJT79+Owj2Yl7UMK3M2Iq0oA7mV+YgUzy3tJOka2w6DEnuhc6w5309uDex8Cd5Y9Zlh53xxxfuID4lRfk/axrTAua2G4ycDdyAcVXSLMZrGao+7nI3WMWy7/QgqoQ14G+XRlaXdvNk/Bf8ZAa0bTk2bY84A2aANRphYIW5mxkLcMf9xbDqwAREhcX+so9eHGPIKARHliMCBkn0Yt+wVfDHiBaXX0j+xu1yaMFLIUQ78Gztfasq9SytOx8trP8LXO6ZiX/428bAGw2JzwibuYTX9t9sFuEoQG9UcFzQfiX93vR6dYtsY/j0vb3uODK4td1UYcj6q35FfUWzIua7ucIEWAuDgWF2FA2y0DrXth/HXJYAJiBPGP45b6iizf3uoUJVhppybov7Pb2XM+uHLKz80rdrf04MeMG32+Nzq93DOrzcL478RMWENlQTR0bqszRaMX/fOwfo8tWuz1I6xIcYGZp3fepQp9++N9V9g0KTL8NKK17CvNAvRFJApBFykIxxhQaGIELPBqOAYREc2RUFlET5Y8wGG/ngVJqx80/Dv2q1BB9FOIw095/hFLxsSCzA4qRdaRjXVY7wWYzWN2cxBt4iw7RP+at//OsJVoRW30rE7lMWkyOqL2pyBaKf6ugMr92/Ab3vmm3KNl7U/G0Ob9DX8vBWeStw4+yE8sOBJVHlciA6NVyqAQoVBKijeJ2aqU5RfW6to4wZjm9WG6zoYW4uA7tcdCx7H2LkPS8MfGd5IPCdRUmgd2QvjlcsBURFJyC3PxcOLnsY1v98n97IbyS1drhDtZdxYQimCjYgFCHeE4ZyWw6ADNFabNWHTlsNsvPUwhcAC4BjY7eZ1pkvanGXIeV5Y8Z4pa/+hjhDc1WOM4ectEwP/P6bfiQ/WfoDIkBhhHMKg+uptFENisWBR1ippwFTS1MBI/NOS+2Bw414G3rtyXD7jbry24k3Rf8KF4Y+WAZfe49zBg39P/z4iOBafrf8CF00bi9zKQsO+O8XzGF1O96WVHxoj5NudLbfGBvqYrakX4BgCAGjJLXSUQdseIoNKzKBLfDv0a9Rd+XnIRTjdpMj/m7pcbrjrmAzB9b8/gJ+2fIew0IRa42HMee3OSKzO3YRtRWlKz0XZCI3iX12vNuxc5KEZM+tBTNoyCeFhDeGwOY5r+I90H0iMRYYnYOr2n3HtzHtPKdCzrtzT80ZD+/vc9KWGlAvuLMarXgl6FJS18W4AHMvGWw97Ilpw+xxNAJjn/j+v1Qi5/Uw1X2z+SfmM9EhEOsNxWdvRhp6TtoVdNeNefC2Mf3hEY0Pa9y8eDzEo5RSnY3OB2sptCaHxhlxPfGgsmghDahS3LxiPbzZ9i1BxfXaL/aS9ViQCSPiFhSdiihAB1/x+PzwGiYAGITFIijCuzSinx6cbJxtyLsoMqMWEl5YB2AtwVBt/uEVjAXBUJWlOJ6I1tSvan2vI7H+iEABmcEu3Kw2d/dMAP2bW/Zi4cSIiwxLkLNALY5c9LLWvaUXpio1MrCHXc1WH8wy7h5Sf4c1V7yJYXBslW6qPexck+kB4WCK+2Pgl3lhvzBY9aq8LDA4G/GLzD4YEA45ukWJY39N17NaUYwqA5tw+f0emljQpmpS2ciVHNFJ+nuVZ65BrUMKQQ4kKjsCFrYwdBO9e8CS+XPc5QkPiYTVzz6voV1RESCUxzmiZw0Dp8yFmWRe0MiYLHO3xv3/Rs3JQpxz09SXc6LdQOwU5IpC6/GWszTUmZ/95LYYbGgxY6irH9N3qg3xp19J5rUZAB2jsNit1u4Y0P5YAaMbtc4Rxmtz/VOTFBIxIr0kzgpdXfWzK9V3e/lxDZ/8Tt/+C11a/h+DwxJNaN65nZYmsshy5R10V/RK7KV+66tKgnQxqM4KHl76IvNL9iBAGpr7X62kZgXZo5JVk4ZFlxhS2GZDUE+1ijQ29emvNF4Z4AUY1H6LF+E1jNy8DHNnG/zkyPAkquG7j9jmSADBn9k8znOFNByg/DyUJ2WFCKU+qkX51+/MNO9/Wgl24d+FTsDtCZZSyqca/ZmiCq9oF9V9D7QlSkvsb0lqTdv2Gb3ZMQQht81O4UyU4OAY/7fgV3+z81ZDrOs3gra9ZpQewOW+n8vP0SeyKxuGJ0AHOB/BnU9Ta+sMEQCWactscaYy2mNZ5hjcdiCQDAqteX/2JKdc3qEkvdI03pvikx+vBrfPGIbMgDWH2MA2MP2T54AhHhOlV+05Nwlhk8hcj7t9za95HtasUDptab1ywvWYL27Or3pZldVVzbovhht+3zzapDwak6oBm5PU4qgCwcIrbw2299RBdkMwtc+SOY9Y2EiNcaOQKnJO+xJTru6vH9Yadi1Lvzto1A2GhDQAdjL8UAF5EBPn2zCQmNAqjmqnvp5N2/oZFGYsQGhJnwG3xIlKcZ0XmCkxOU19LYXDj3jIWxkgWZKwwZEvgiGaDNBnHQ9gLcARbf+jUowm3zFGUowlQEM3gpN7KzzM3fZkMDDKaNrHNkRhqTNbphftX4pkVr0njYfR2v2NbGg9Cg4wQl+pmPp3i1OfSp4p+b2z8Qs7gVM/+D20xqzAar6z7xBBvUU+D983TNtiZexYqP88ZQhw2DNUjuzwLgL/behYAmnaaPgldDUnj+uXmn025vgsMzBn/1Mo34Kl2wWl36uH6P8QDEK44OGlB5kqlyW3Oa6k+0nth1krMSl+AyOBYQ7NUUpzIsgNr8eueucrPdV5Lc5YBVAcD0jbmIY37aPG4sQA4tgBozO1y2CzAYjfN/T80uZ/ycyzKXIU1OZuMfxCtNgxPHmDIuSanTceU3XMQ6ow2NMvbiQmAaoTa1aZMLa4qEeLHo+j5sGCQAeWp39jwOTWW4Vs2g2xBcFcV46PN3yo/V5e4drI9jWRHwR7kVxQZIPZHavG40VhOYzrzp60/VAAkcbv8vcNYrcbvH6WZx8hmg9Ubx23TTcn7nxzZCAMaqTcclPnsmZXvAJ4qvVz/B6l2Kc/UV1JVqux3R4jZnWovDuVJmJu5XIhGc7ZsWuzBWLh/NXYV71V6HoqYjwqONPz63lv3lfJz9BbXRjuazIbGck4L/FdbzwLgOALADMj13yFWbV0mcv39uGOGKdeX0qSfIef5ZOskLMlYhDBnlHZ9q7K6Ck5h/FtGqI29LfOoq3LXLEr9quEve2bhQFk2nCYlcgkNCkdGwS7Mylis/FxNI4wfguekL1W+DJAo+vlAAzxFOo/p+gsACxpxuxymGE3qLEZUCSsSM8N9pdmmXN/l7c4x5PpeWPM+rEEhYvYfpF3fqnBVoE1Uc7SIVBvnkV2Wq+x3G7GFc1bGEniqik3z4FCKYKAa8zKXKz9Xx7jWhl9fXkUBMor3qx1HLVZt4gCsLAD+YutrBMAExMELJ7fMIW0kHnyz1CLt/1fN55t+MOXawhyhiHSor6o4a98ibDywHhHHqA1v3vMncJWJ2X8TNFK8BLApd4ey3z2wUQ+l3z23Ih+bCsT3N3HQrqncGIUF+1chRxhLlbSPMacY61dbf1F+Dlri0MUDYLEEeL47svVk8/8QAOVIBPO3jmLG+j8Zx24NOig/z4zdC0xp11bRzQyJ/v9y+88y177Fq1/fkqGIXg9aRqnPvL2rSN3adaOwhkq/+5rcLdhesBNOk4u5hNqDsS1/J3YW7VF6nhZRTWRiJaNZtG+l8mUAKmneMsr8XHMcB1BLrc2vEQA2JHCLHNZRbOYErVBaUNX7ZinxT1bZAVOuz4jMYDuL0zEzYwmCbE7tZv9y8u9xwRocjS6x6oUQpX1VgdPuUJ7Cdl3eZpSX5SDEZq5zUhplIdhWHFiv9DzntDwddpvxSx0ZJfuRrngZgPKa9DI414FuY7teM9wam38wBqAht8jhHgBzOgllBVM9C5i6a64p0f+EEWuBX2//BQfK9sNpC9Kyb1V4KtAwJB6DG6lN9ESzusKKYiW/m5ZyVK/LbyvcDdRjxb9Tsxp2bMjbpvQUdosdIUHmiJ2paXOUn6N/o+4BPbZrRsM/BYCXBYAOKpEMP7nKVLMoc6UpbRrqCEGjsAZKz1ElZte/7pkjt/7ZNF3r84rZZL+GXdE2qrnS8xRVlcBd7Vbyu6OdaresVVW7sKNoDyxWPUKT6NncWrhL+XkiTFru+H3vIuXnGJDUQ4/tgOwB+MPmW2t7dwNukUM7iAM2m/HrRI0jEtE2poXSc6zM3oBNeTtMaVda2lAdOb4kezVWHNgAuyNS0+fOS5vLcU1b9VUQp+6eq/ReqiSvohDbCnbDYdejjjtFsu8qzkCZW23abDNyARB7ijKUxwG0j22NxDDzTQ2N7VabAwFNrc0/uATAAuBwhWhC5ajW0c2UD6zb8ncZUuHsiALHgNKga/O2oLQkA2GauvkqPS60jmyKEY3VF0mZn6Fu65pqT06xqwQZpVlwaLKFkwRAiasU+8rUbp2ND44x5fqqvV7M2qu2KJhNtKERHs7jGz8LewHwVwEQD+YQhWhO51Cd/If4ddcc09q1eaT6xDGb8neKG+iEjoU/KdVrZXkezm8xQgZFqYZSvarCqTgwL7eiAK5qlylR8UcWABa4PG6leRWI6GDzPFc/7Zip/Bz9dIkDYAEQzwLgqB4Ac9Ydeyd08elZ4fFIVuwBKHdXYF3uZliCQjWM/QcqxPezB4XgvOanKz8XxXkUVRYr+/00m1NJRilFpVugi5IjD0BldSWyynOUnifUxC1qG3O3KV8G6KtJPgCrLeDT3hwiACyIZbNvbuegsrCqk2WszdmMA2IGahaNwtXGmtLWxrVCAIRous+3ojwfw5sNw5BG6ndCLM1aC0+1uuJHQYq3q5W6ygCNZBx5IqgscX5lodLzUH0Fs6Cg0d1F+5Seg3IBxAVHswAwv0PH/ikAvIgDU9Mu1iBTOkeziCQ0i1RbkHF62nxTB1DVD/7WwjQUVBRos258KBQ8FhIai0d7/ssQt/asdLW561WnV/ZquIZDVRVLVQcBOiJMvcZ5GcuU/v6Y4Cj0MsDTeSICwGLVc5uwIXgPzQRoQQyY2o7hMCVVZO9EI9z/y0xrV5vVqrzCIQUAihuoX/IfWj+uKsU1bS/EoMReyk9HbtxlWWsVCwC1HgC3x63VXaQYAKouSbNkpQLAaa4AWJ+zRe04YLGie8MOGjyStsDeCVBr8624ByHiSePciAcfdJP2HXeIVV8IZGv+LtPa1SYMRrDqwLHyfA2fMwuqXBWID0/EQz1vNeSca8UgXlJZqvY5URwDQAGTFs3uJGUDpDgTlYQHhZp6lVvz05Sfo01084Ae6zXxAISQ7bciHtFgDvEAmNMpOserTQu75sAm5JhoIJ0G7OcurCrWrj95UI3yijzc3XUMmoU3NuSc322fqvwclZ4qtf1Fu9mZV3pyHIo9H6rb9XgcKMvF/IwVSs/RNLKx8iBSncd6bRC234pyFgB/7RTGDzz0MCRHqK3GvDp7o6mDixHlXPMqi3SbM6K47AA6JfbC3V3GGHJOcv/PT1e/06NCcV9yyEJc+vgAZOZs8Zyq3v6oeonhuILVW43tBWq9AE0jk5AYZn7y2YBPBlROAsCOKDb7h3QKEyoANo9qgljFAXKUAdBsY6iagqpC6OQ4LnNXwuEIxyuDHkaYQa7dabvno9xVofw8VYoFQLBdPw8ApZYOtjsV95ly0690wT61HoAkYfybRJhfgNaMsV4rhO23opoFwB9GyqTAkHYxLZUH/2zM3W7y8KmePMX12usqeaqEIHmgx604vfEAw2b/H2341pBzUc0FlcQ49RqWqP+SFytGcYppI8Tb8Vixf73yczQJ10AAmBTwrRGRVlgRAcbUDtEquqnymeve4kyTB1C1EoCWNygGwKKFA8CCwrJsnJZ8Gsb3vsuws+4u3ofdhRmGnMulqMjQQRoEx8ButWmTCqDaWy3jEqiKo1oPgPkCQFUJ6UNpKca8QJ3w6SUAxAub/toOYdK+0BZRycoHrwLN1sfrG7uYnVnFA+012WCQkCuszEe4MGAvDXpEbh8zik83TTbsXCqzDBKUES/aEQG316OJB8Ar80s0CFGbM02HQNZyd7nyjIDtFBc9033M10cAWNgD8IcHwKQ1IdU58mftXax8+9JxRYjCrHQEBVImhJib0ZqMf7GrFA5bEL4Y8T/0iO9o2LkpxmPqTuPqPOwvU5sSN8IRjuTwRqisdmkxNlBWRVr/bxGhdieHEbPv408YvEgv3q/0HLQVMMRufhR+QMcBCNtPHoBwNv0HO4PxapBSfyaGqTVcuRqsjVd41FcgbCYGZ7OSANG++HJ3GTyeKryb8izObT7c0PM/vexN6ekxivwKtSlxKSNe2+gW8JhUufJvRhEe2b/iFFfry9Ekl8WKbLVxAMmRSYYFxuo25mtEuFWMlywADgoiEzpDfEgsGoSozcS8Pmer6W1b5XZh5t6FSs/RMYaqKRovAGjmXyZm/pVCaL04+DFc2/YCQ8+/LGsNfjM4zXNJVZkwitUK2xRoG9UCEKJKh50dNCvuGNNG+XmKKkugA1vzdir9/ZQWPNJhvvM5wNMBh5MHIAyMaWowxhkpRIDaWYUOAoBmp/tK1LoVByb2FJ262tDrIuNE+eErq0oxftAjuKfrGMPb9pnlb8NrcPBDhZiZz01Xm1q6fXRL0cB2eEyOA5ACxONG99j2ys9V5jJ/GyCRVpSu/BxJ4RrkAghsD0AYxQCEgqlVg3bDz0n7/1WnVd1TlKFF++5XXEu9k5ihNY9sblgktUXct6KqYrjE+V4a+gQe6zXW8DYlr8rMtAWmCLpixUlrOsW2QUJUMyGwzI1foeQ4VGOiT0O19Tpmpy9BpUePJY+s0hzl52gakRSQY74+Bg+hZHlYANQO5ma4gxLDGig/R3Z5rhZtTOV6VUJuxdFNT4OrIl+525hy1ReI83ir3Xj/9P/iri7XGd6eFKn9yIIXTNspt71gt9LfT0sAbYUAqDY5Ox5FxXcQYoRK2apkc94OpSWc64IRGQkpGZDZKYFpzLdokJbYJEIpBoAFQK0SNKMjqM6IRUaC1mt1YJMByYho/T3UGY0SuXasQjRTVTg3CoSYSQxtiEmj38UN7S8xpT1n7l2EjTnmJXhanLlK6e+n3RTd46lynNe04E55vysLMSSxF2IVJyfaXrgbulDhrsD8DLUppZtENEK4w9wV6JqJX4B6Abw1HgCuBCg7gjmdoLHijFgHyvJMX0M9iBHVCPsldMdl7S6AW8zOq+t5XVzO+isLUFqehwtbn4PFF3+H8w2O9j9U2E1Y8oa5gk7MWFVzVvJpCAmJNa2ORRUlPLI5MDSpr/Jz6RCrcxBa9tiSrzYQsKkQAGF2882PWWO/BoSQAAhm82/OWhCVx1UdCGN2DYDDxcgixbNGIrX3HWgS0xZF7tJ6WQqg3yGTKZVkIU4YoxdOexzfn/EGmoWbs4ZJxp8C/8xOG0t71lUnjBma1E/mA1CdevholFUVo0VMa6Q07q/8XDsK9PEAELsK1QYCNgyNR6TT/E1oARwHEMwC4A8VaHwKYEosEqe4CJARs7QThSLVtxao9wI0FYb5lcGPyhJuRa6SUxIBNPMsqMhFqasM13S6EnPPn4h/d7vB9Jn3j9tmmH4/K91VyteKQ+3BOLfZMHirXYZvB5TLDuK8KY36IClUrVCnct255TrVsgDSFacPDwsKkdugA3Hs10cAWBDgRZHNU4GUW1z1Xti0wr1atfP03fMMOc+FLUbiuQH/QXXten3NTP5EB4SarX2FJfvgrvZgSOMBmHzmW/jk9OfQUcwGzYRm3P+eMyGg7uc1bS+A3RYMt8FbPF0eNxyOSFzTTn1eh4152+Gp9mj1rKreCugQ41+UFrkAAtQDIGw/BQGyADBJBTrtDkQHqy3FkK9ZDYA5e5cqdxsf5L5uN+K7M99Em7h2KCzOQLGYxctwMm/tcchncvFTuuTCigIUCNEULAani9pdgs9HvCBn/ec2P930tqN2G7f4FfEd9bmnM/YsUn6OzrHtMLrpUJSU5xhWW4HOUuGpQL+GXTEsSb37f/KO37QbE/MV9zN6xlSPf+wBOAbC9pP0CfCiyOZ1ArvFjoggtVGwZq2dHo3iyhJsztuJTnFtDTnfRS1GyQRBn2/9AZ9v+wnrcjfLGT6FB3qF0T+488Mu7n/b6OboHtdRRp4PSuyF/gndtWo72if+2655Wn0nWrcmYaLyftJWsZs7XY4padOFSKuUnjPV0Fzc66nE3d3GGNKOS7PWaDcmVikOvKQYKEqExgLANBwsAEzsBNHOCATZ7IofYpd2bf3Jpkm4uM2Zhp0vMSQe93a7Ef/s8A9klh2QpZEzyvYjtyIfscExaBbeCElhCbIErepc76cy+39swUvafa/SqjJsMkDQnd00BUOaDMastN/gDGukeCyworg0C33FzP/spsOUt+GyrLXILy/U7t5WKS7E5LQLARAcZfp1BroACOhciIc+9EZDATCqA5vciuu2nwwr9q9XPms8ErTeSIdMMetDUFuNmf6glveSmLdvKS4xQNCN63U7FmetlIWlaPaoinJXqRDmwXii792GeBt+2vW74amcdZg8kGcnWgsPQMAmAgqysgAw0QNgwPpXVbV+HgBaBqAkNsyJGf/nV7yPrbk7tf2OVBPAiLgO2ot/V9cxqJSVCNUIZzLDlZVFuLnLtRjVZLAh7ffb7vla3lcSnKorTEbzEoDpAiCAkyEf2guMV4HhBpTD1CW16OG8s+5Lw4IBfdn4/7BzJr7fOlXr77kzfw/yKoxxYf9fj1vRJaEbCstz633mRjU5iiry0aFhV4zvfach10N5MbZotFX3LwLA65G7YFQS4dCgGG3gegDstA0wYOXPX1Wg8Z0gyIDtJ26vnm7jvYX7tMpRoKcA2I5nl7zlE9/1002TDTlPpDAYb572hIydKa4srLclNPo9Ja5SMSLa8frgccrzcxzkx50ztBXptC1RdRbRIA224AXsEoCw/bQNkAVATS/wOwFA6l3XwYV4fsV77AU4CpN3zMAtvz3sM9/3l12zDLuXgxJ74rWhT8HjcUujfaoDOBn/YvF7XFWleG7QIxhmQNa/GoG3FT9ouP3vIJRKe+G+lUrPQfUeAnHs1wIvCQCwAKgZBEzwACju/FRatNqrrwDYlLMd6SX7ufMdBm0J++f0B7W+d4dTUlmKtTlbDDvfzR0uw4QB/4FbGO5yV9lJl9SmvAK039/jKkFq//txt4FVHfMqipBRpG//pzwZqrcCauEBQMAuAUgBELBX7+8egFl7F2tvRO6a/Th7AQ5hXsZynD3pRpmFztd4a+0Xhp7v/3regv8OGYfKqhLkV9Y9BoFm/oXi/60QIuLpQY9iXO87DP3+/13+tvb3tFJxEDF7AEzFagUQsFd/+HBgNA6r2s5P6Wy98Grd6pnF2fhs8w/c/UDlfRfikp9u0zJ3w4mwev9GzNyz0NBz3t/tn/hg5EsymrywNFu2neU4Azr9Pe2OKSjZh3B7GN49/Tn8p8cthn5vyv0/P3259vdUdV/UQgAErgmkYsgsAA4OCoZ7ABR3frOrxZ3wzHH1F1pVLTTL+F/28x2ocFf69HW8s36i4ee8vt1FmDL6fQxrloLyyiJZtdEjszxa/jbjp7iYgpJMlFcVY1TLM/Hz6Hfwz/aXGv6dX1vzqU8s8aheAnDazM9EbwlUD4B4IOxigsgCwCwPgGIBoLpSW31BA+E1U+/F12e/YnhyILOh5Y81BzbjtpmPaZkMpq78ljYfa3M2o2t8e0PPOyChO34/7zN8smUSvtj2E6btnQt4hJg61MAIY2a1h2B0q9G4rNXZuLbdhaa0Ec3+f9wxwyfuZ1ZpDo/9/oqXBADDaEB6USYeXfgSnhh4d8CIADL+H278Du+u+dJvrol2nfxv5Qf4cNR/TTk/GXU6FmWtxMyMxcgsy5Y1N1xeF5LDkzCiyUD0adDF1Db6dPNkVLh8w9OjehsgO6DNxQ6LXCbmu2ACqtfXInVIslEHZu5egHaxLXB1+/P9XgSQ8X98yWuYunOO313b5G2/4Y5uG9AzoZNp32FAYk956HjfP9kwyWfuZaxTba5+X9rp4ncI22/VPkrMj3EpFgChQSE+1yZvrPoMCzJX+vXOANoud920+/3S+B8c1B9c8Czv7jiC8adyzpU+FOcRpThdOW1VZkzCSwIALAAOtobhAkBxcRdKNeyLLrb7Zz+NWelL/M6A0PV8tmkyRnx7Dbblpfn107R03xpxvdt4WDkEynmhWznn42FTnCWvSosCVwFrAqUAYB8MtYQJAViqC/UMbdJXJjrxRR6e97xfiQC6jhdXvo+xM8f51AzwVHhiyWvsBTjk/j+26H8+971D7MFqx0ANtrz6Q/DtSVJNAsDDj6dJHgDFnZ+22Fh9uNIViYCvt03xaSNC331K2myc9+Mt+HbL1IB6ovYU7sMXW35iESD4edcsbM7xvdoXqsshq95myB6AY+KhPAAsAGpkoPECQLH7y261wWb17USPLy3/EHf6aLZA+s5PLnkdV/x8F3JK8wLysXpt5SfIKstBIEPZHZ/xkaJOh0LplQc06qFWAOhQrjxQPQAWEgBeFgA1GtD4lRAjOr/dD3Z6Ls9ch5HfXYtPN03yCSFA3/GV1R9h1PdjMGXn7IB/tm7+7eGA9QLQdd804yGfjHa3WWgCodaDWKmBB8AbqKvgwvaTdXCDMUUFFlWqT9Rjt/pHrafSqnLcPjMVg5r0xnNDHtRymyAN9rSD4dVVH0v3t1GzNLrHDrsDofZgWV+CBtVKjwsuITAr3VWmr3HmlOXhyaWv45G+YwMq0VNN3McHyCz2zYJX1K/siuuVFFYWswfAPNx0d11gRB8wXgUWVBYpP4cO1bbqkwXpyzHkq8twXuuRuKfH9ejWoIMWA/203fPxxppPcUCRq58MfcOwODSJSES7mFbCkLZGg5A4mQOfgj2PtFbrrnZj5t5FyC3PR05FPnYU7Mb63G3YU5QhjHK+obPSKTtmo31sa/k5EEQA9Ylfd8/Ft1t+9dlrIOOveheAEWOgjmO/JrhYAPzRC4zvBDnlNYOwVeFD5m8CgKBsc5O2TpPu9UvanoVrOl6AAYk9DP8ev6bNxldbf8H0tPkorSqr/3tnsyM5MgkXtzkTF7YaWWfDSQP4Gc2GHNNA/bBjBnbk71by/Q/nxWXvoVt8u4AQANsK0vDEwld9+hpUpyqnGKiCCvMFAAJcAFSBESrQ+FAIcn9RHECwwoIY5Br2V2g73ecbJ2Piph/RKqapEAIXYkTyQKUGZkPuFryz7iv8Jmb8GYpcuzTTv6TtaFzd/jxl10K/l477ev5TioFvtwlBlaY+Un3M1AfwxdkOjG6e4rf9cvruebhh2oM+fx2qq5VS4au8ikLTr9OMsV8TqlgA/NEJjFeBbtHxSAQEh6oTAME2h9/fO/KiUGKdx+b/DxOC3sCIpoNxZvMhSI5ohJQm/U/pdy/LWoPthXsxL2MZZu1diMySA8rW1KOCIzC2+9U4p8Xphs6SD4qBS9qcgZ3iWmnr5bRdc2X8QP0/Z15pHKdd9JEWyzf1DRVCun76g9JL5es4FU8eKjyVvARgugCwoJJzAZqjAmkGm19RhITQeGXnUJ3IQzeoyMrPO2bKg7ZARjgj0Di8oSwEE+kMR4QjDFGOSMSHRMtaCYdmSqTBaE9JJjJLs5FVegAZJVlyrVyFITwUcvXf1PVy02sgHBQC57YcLr0CtDzw/vqvZRvUJ1SmmnZ1TBz9MoY3Heg3fY9KOl/9679RVlXuF9ejeuyokOMfewBMQ9h+KgfMyZjNEgCeKhRVqY2CbRTWEKuwMSDvKc3CCsoL5bHhgJ5pabs0bIfXh43XbjZ8UAyc32oEvto6BR+s/wbF9bhrhUTVP36+A++f8QwuaDXS5/vazzt/x5hp98Pl8Z9NVcnhjZSPf3p4AAJUAAjbT9FnFWz+zekERrjA2se24purIRT4eUfP6/D28Ce1doWTCHh8wN2YdtGHuKLDefUasEq7FG6Y9gA+3TTZZ/ME0Pf+Wgik66be51fGn2gW2VixAKhkAWAuFSwADnYCE4pSUB7srFK1WdK6NezAN1czooMjMfn8t/DkwH/7TEQ8fc+3hj+BmZd8ip6J9Vfml7w0t88ch499JMnT4cb/s80/4Kbp/yfEjP8ZkcYRCUp/f2bpAZS5zF8u8VYHbCocKQDKwZimAmmdWSVtopv5bEEgf6RpVBKmXPg+hjbp55Pfv2dCZ7w2LBWpA++q1zTTb6/+AmN/H+czIoC+552zn5Dlq/0Rio1pH9NS6Tn2FmWi2FXKHgDzKKdaAGVgTFOBqgUAzdwCLRBQV/omdcOXo1/2+X3w9P3v6XkDpl30MZLqcZa4av9GnDnpBny7baq2QqDG5f8Lzpp0I5ZnrvXbvko5AM5qkaJWAJRkopQ9AGaqvDKS8CwApAo0pxOoXgIg4kNi+QabzKgWQ/DS0Ef8KglOn8Su+Pac1zCyxZB6+51FFcW4cdqDeGzRS9qJAPo+4xa/gpumP4RCHRLYKIR2y6gmvThTixoJZo39GlBGxYBYANSqQDP2g9I2GK/ifZiUPpYxj+4JnZDa/06/zIBH1zReXNv9fW+u1987I20Bhn97DZ5d/pbpQoDO/+zytzHsm6vw2655AdFn40NilJ9jT9E+06+TxvyA9QAI20+JgErB1HYEFywKs/IdCUoHTEcDhbP0djEtsSBjBd9kE2gW1RhvnJ7q1+lvD15bq6imuOP31HqLhqd8ARMWv4m31k7EmI6XyERFRrajdPdvm4KPN3yP/PLCgOq3yRFJim2PF3uKMzWY+LkCORFQKSUCKuFEQH96AWCwAMityEd2WY5SAeCPGdd8gXBnGCaOfikgct8fzBvQPLIxrvz1HuSVFdTb76bf9eLy9/Duui8xNLkvbup8OVIUBVGS0c8o2Y+PN36PWXsXG1IjQUfaRDdX+vtp6bPMzev/piJsP3kASsBIqoUaNLp4bnFVqdwOo9JIJIU15JtrArRtLpDK3xIDGvXEz+e/i+um3S/TM9frs1JZgp+3/y6P6JBI9E3shsvbnoMWUcno2fDktyauzN4gUyB/s+0XLNq3CoUVxQHfd7sr3j5MFSl12AJIY34AU0KZALm3/6EGzekMu8XDoJKY4ChZLpYybzHGMLrVMLQUhikQIdHz8RnP4ZaZj2Jd9mYl5ygoL8L0XfPkQVUPG0U0FOdtI71diaHxCLY74bQ6EBIUjCGN+8h9+r/vXSifAUpBu680G2sObMLG3O3IKjkgkxIxByeGFnSOVytcqVqiDuORN5AFgLD95AEo4i5vrhpMK0xX+vspWpvy3h8oz+ObbACxodF4pO9tATf7P1wEvD38Cbm3n7b3qYSM997CffKYunPOX42ZxSKzF1IRourAXeutE7QFUHXf3ZafFtBjviYUWVHNHoA/O4M5inR7wW7l52gczjsBjOKZwQ8EtPE/VAS8fvp4We/AtEmOMPweMftn43/iGLEDYFdRuhbXataYr8fFo9gKKwq5y9cOFiapQRIAVBZY6WAc34ZvsAG0immGznHc1n/1BDyJhPB4bgwfoV2s2gyAJMbSNdgBYOaYrwXC9lvhZgHwR8f0VJmSFnJX4V7kV6q9DT0adOQbbACP/T975wEfVZX98d/MZCaVJIQEktBCIPQuXcAgiuCirL2XdV0bdt0VWYEga2/s2tDdv713sSHSkd577yGkkp5Mpv7vuRN2ESkp8967M3O+fO7MBCXvzb333fO79557zqB7ePZ/EhHwyYX/QpQtkisjABjRerCmv59OWWgdAbVOxl+M9Z5Q9otykQCIRAl3eWM7hJP2MMu0VcQDUnrBarZyI2tI58T2MvcC83vIS58cAxn16Zmo7ZYNOT3nVRaF7IRPGYTtN6OQBcBvOoVBe0I7ivdq+vvJOzohIo4bWEMmDRjPs//T0DKmhd8jBjL+hU4MJUVpGzqcVgC8CgSfCen9f6KQBMBLqIaJMwIerwqNYEvRLs2v0TGhHTewVsatSbI8j86cGhJHl7Q/Xx6RZNSEojlqLWL36OD0rPJYrwRk81+ibICEF8Xc9Y91ihpDrrsmb7Pm1xiW2o8bWCOu6nSh4bN/yqxW6VJby1Md0RHJDBajSqL1+X9yAKT4C6E81itBrc0Pq1UDReIvUrn707KQMZ1if1m2jAiYEp2k2TXObTMET658nRvZz4RZwjAmLVP36xbXlOGX7CVYlb8ROVX5OFR+BCYT0DomBS0iE+VsrmNcGtrHtkG7WHVWJ0gEvH7u4xjz9Z/8ljeA8Q/DWw3Q9PcftZdidd6mkB7rFVkBKPqfAPCCI8T8VxX6HENMJn2DApfVVMgH46L0czW7RpQ1As0im6Komhd8/EnfFt1kWFq9cLideHLd6/hizyxsKahdObLYYDH7Hmc3RbWjFKcuMcBZo4QQSEOXpu1xVYc/4PqMcUrUGQWnemH4RNw7/3HuQIoQLfpKZ42PANKJp0IFxp+QPwFQa/PNtT8WcvevrReP05ClIXKKWZe/RfOZ1+CUPtzIfuaP7c/X7VrbS/Zh9A+3YOqSJ7ClcDNiI5shPioJceGxiBEDOBX6HBeRgPiYVDGox2BP2SF8v2smbpj7EIZ/cw0+2vWdEqFv+yX3wMi0s7kDKUL7eO33/5WZ/Ysx3hvaUQALWQCcpnMYwZZC7fOej2o7lBvYj1jMZs0y0/1u9lSWjYuE8Z+/fw5iYpIRH5kkQ92eyqOa/j7MbEGcLUaIgZYIt0Rgcc4KXDfnfiEi/oyFOSsNrTsyNtMG348m4THckRTgvDbai7GVuRtCeoxXVQAUcPc3vnNQREDKDqglPZI6y1jfjH9IjErQxfmv0F6MMT/+GbuLd8uZvcVkqddRKvp/Iyw2xEXEIzY8FnMPLsSI767H7YsmYU/pQUNFwOND7ueOZDAmUS5qP1LbcZUdAFWi4H8CwMsC4Hjcbrsh1yVHQK3jAVBAlvYcrMZvDEzprct1Jq+ajh35GxEX1bzRZ6gp21vTqERYTWF4c90bGPn9jfhy78/G1WFyL/RqwZEqDRWykQmNSqlcF3YU70NORX5Ij/HK4D1eAJiQz4/A8erQTl4iul+XUpZuLNiu+XXYD8B/XNguU/NrzD+8HG9s/RQRkYnyyfXXbCwqLAJNYlriQHk2rvrlXiEy/gmXAZHRaBXg+WETZNY+xhiGttT+iPCSw6tR7VLA8FJmyFAXALU2/9gTxwLgNwLAIRSiMeepl+Ss0fwaYzU8aRBSz5DJhE5x6Zpf5/mNb8HjrEK4n7duSEqYxXeIt8XBZrFh2vKnMe6n23GkSv8FQTpFcX23P3KnMoix6SM1v8ayI+sUmf1Xh/YJgONsvk8AuJHHj8BJVgEM4NfDq1BSU6bpNZKjE9EiirOzNZYoa6Q8Aqgl6wq3YcmRVbBYI7SbEIk/4WYboiKT8OOu73Hl7Hukz4He3NHjGkRYw7lj6UxCRDy6NNNWyJY5KjQ/5aT62K4UtTbfJwAikcs1ckL9GLRUlVtZiM0anwagJddhrfpzIzcSPfKm/3RwIUrLcxBtjdb0OiQCbGYrYpuk4NfsJbhk1p26rwRQv7yp26XcsXRmSGpfzR1ZNxXuwN6SQyE9titFrc33CYCJKIIJNVwraqjEOQeXaH6NW3tcxY3cSFoLY6kldFZ/ed46wBIhHfe0hkQAXSc2Kgm/HlqMy36+CwU6B225qculiLJFcefSkbHp2udmWJ27SYkEQLwCAEhbP9EXCdB83NN/hB+F41VitWHZohZla38+O9YWjeZRzbihG0G6xsl/DlfmYXXBZth0PidvFiNEEyEClh36FXcumqT7KsCfu1/OnUsnYqzR6JnUWfPrLD68Sg3jL8Z0tyvEc98dZ+uPd7vN4cfhuDryug3rKHRcho4Eaj3Q6uHBHuyDp5YcqjyCI+WHEWEJ13l88Mo4A7Exyfhyx5eYuPIFXa9/TaeLEGWL5A6mA/2Su2u+/E85TpbmrFVmYuc14KSLYuSwAKiLWjRIAFQ4KrHw0ArNr3NJh1HcyI2ZKZu1PbZ2sNwn1E0GfLdj2wGRUYl4avXLeGfH17quAlzXZRx3MB24tbv2W4Fr8zej0lkV0mN6IAiAw1wvv1eLRrH48GrNr5EUlYCM+DRu6AZCTnNaUuosF9bf2LPx4RabuAcL7l08BesKt+p23Ws7XYyw2uRGjDZQYrD0eO2zRH6/Zx6P6Wpx+GQCIJvr5fedxSg/ADoOqHXWLJppXdZxNDd0A7FqHFKZjubBYMcpr9eL+Ih4lNeU4p4lj6NGp/PTFJUus81A7mQackXGGM2X/6uc1ViQvUKJ78v7/7+39SwATjv4uQzrMLRvtkSHVYCL24/0zfKY+q8AaCwAtF5hqI8IiItKxJJDS/DM+n/rdt27el3PnUwjKIiVHuJ/7qFlyKlQI8yMb//fxY1/UgHgxiGul5N1GuP2rvQ4DkgzgD4axwAP2r7h0daZSBUBUKsCYLZG4cX1b2JNgT4BXZKF6EjTYYk6FOmV2EVGX9SaXw78ymO5cgPX/2z9/wRAOA5yzajVab7bO0/zqIDEfX1v5oZuAFUarw6Fh1kNyUlxKppYo1FaVYgHlz2pS0x3EqeXsqOqJlzdeazm1yitKcf8Q8t4LFeN42z9/wTAY1IVuLl2ft9pjNoGKLaX4lcdtgHaxqYiJbo5N3Y9sbu03Q+3mtVL2xwT1RyLDszDuzv1ORVwecZoma+A8WMbCiE3XIdIoHT072CZGofLaAxnAVA7/3/sZCsAPg5w/ZyAmIEZ2XG+3j1bl5nW7b2u4bautwDQdhYsfTO8bqhk/sLMZlhssXhxw1u6rE5R3+zcrAN3Nn+Kqo6jNXf+I+apNvtXaDXNQH5j408UAPu5fk7ReQyC4gHoMdCOajsUTWzR3Nj1oLimVNPfnxSRgMjwODgVClxCDoE0g9x1dBde3vy+Lte8LINPqvhPwFlwW8+rNb8OxTL5RofJSyCM4Yqx/3QCYB/Xz8k6TyW8Hqch1y6oPqrLgySPBPJAWy/opIaWJEclIT2urRo51E/EbMWb2z5DTpX2mcSHt+wvDRfTeEannaPL7H/W/kXIrypSQ7SKsZvGcOb3Nv63AsDEAuBkUO5ol6HbAL/A4/Vofp2bul0mQ8AydUPrAa5ZRFN0iG0j+p96ebpibFHILt6DD3d+q/m1yFu9TVwqdzg/cEv3K3S5zkfbZyrznWns9rgd3PgnsfEnrgDs5Ro6xSqA0zgFuTRnDTYWbNf8OhR8ZUjLvtzYdaTEru3WjMVkRroQAHCqF7wkzBQmRg8LPtw1EyU15Zpfr6sOs9Zgp3dSVyRHJ2p+nR3Fe3VxXg6EsVtB9p5aAHixh+vnFJ2ItgF0mIWfDIfbiZl75+pyrb8PvIsbu45QlLO1+dqeiU9r0pKitsCjmAMT5QqIiUzAhty1mHt4qebXO7f1YO5wjWR8nxt0Wf7/ZPv3ukWMPGM/FWM2L/+f2sb/VgDYWACcWgBUCyVZYdj1P97+nTQ4WhNri8GQVF4FqKswq9F4eT4jLg0RUUnKDKi/WQWg4cNixbf752h+rUHJvTQPvRzMUOrqbjqcpiB/lZl75ijzvWnM5vC/p7bxvxUAE1EkFEIR19LJcRmoJCmc5uwDizW/Ds0Q/j5wPDd2Hdl6VFvNPCylHzrGtYVDwWVMWgWItMVi1qFFOFB+WPN+2TwqgTtcA3li6MO6zP4XHFqB3SXqnCZ38ez/+Ae2SNr4UwoAwoRdXFOnUpPGbQMQb2/5UpfrNI2IxTAdAoUEA+SfoSUx1igMbN7bZ24VPMccZrKgoLoYvxzWPmx129hW3OEaQFcx86dgX3rwyY7v1bF3tPzP+/+nte0nyzW6k2vqFAKAogIa2KGW5azVfM/52Gzrgb63cIPXgW1Htd81G5s2AhG2JnB51QvUKQcQjxPzspdrfq0uCe25wzWAiQPu0mX2TzP/H/YqlPpXjNV8/v/0tv1kKwAsAE6Dy2WcHwDtA7+1+TNdrkXewoPZF+CMHCg7rPk1RqQMRMvoFnB6FMxkJsP0mrCxaDtKHdqeBhiU0ps7XAPEfLpOCZVeWf+eUn3UyLFa0RWAOggAL3ZwTZ1OVVbAa+BMbOaeucguP6LLwPH4kPu5wc9AlaMaW4q01cxNbDEY2WoInM4q8QyrFxffGhaOg5W5WFOo7epUp6btlfz+Ss/+B96py+yfApbN3K2O8x+N0UY6bSvJSWz7ybYAtnNNnUYAuKrhMrBjUYatL3b9pMu1KADL5R05OuDpoABNs3VIeToubSRdDW54lKsDyllQXpWPTYXazh16JXVGlC2SO10dGZTSB+3i9PGb+GjbTBTZS9SZ/bP3P+pi21kANGgVoNzQ67+x8RNdjgQS9/X9ky8pDXNK5h7S/hz8ea2GYGirs4WhLVRuFiyjR7od2FayW/NrxYU34Q5XpzYx47lzJugy+6e4/x9s+4bH6KAQAFlwifFlG9fVadSlo8LQ0JJ0JPCLXbN0uVbPxM64p89N3OinQQ9HQJvZhvHdr5fR91SMCYCwCByoyIFb4+2x2PAY7nB14Iaul8hnVw8o69/OYnWiyMvQ7Q5e/v8NZNPJttdhBYD2CrZyjZ2mg3lEBzNYYf5n06fyHLYeXJoxCs0im3LDn4LCyqP4af9C7duh3SgMTO6PakeZepVgsSG3qlDzZeD48FjucGcg2hqpS8a/Y7yy/n2lvj+NzTRGM2e26eZT/O9buMbO3MmMZEPBNny7+xddrkXLiP8Y8iA3+mlYdmSdDqsAVtzV7VqYxLvbq5YvgFXcU54QAIX2Yk2vkxjJwYDOBG3bddMpd8IP++ZjxZH1PDarzxYWAH7uZC6DvUxfWvu2bqsAvZp3Rs+kztzwp+AXHRwBiaszxqJvUg9UOMphMqnjC0DJgUodFajU2DelRVQz7mynoWVMC4xNH6Hb9V5c/X+KjcsVLAD8IAA2c32dAa/X8I62Pn8rvt+jT+ANmlE8O/wRmE1mbvuTsK1wt1yV0WMVYFK/u0EnAsgXQBWHQIvZjGpXFarddk2vww6pp+e1kY/rNvv/bu88rM7bpN7sX8GImQqwue4CIEvuF9RwnZ2hszlor8lp6D08u/pN3VYBBqf0xfjeN3DDn0wPij/v6+QJTUcC/9LtelRXFSizFWAWf7xCkDg1fh48PLifEnL8S9IpXwIdf3153btKfX8ai10Onv2fhJpam17nFQAa0TZyvZ2hw4nZjstgh6yNBdvx1a6fdbveNZ3HokVUIjf+SZi5d47mQYGO8Y/+DyAjsRvKHaXKCCCYzJqvEOkldgMNco68s9e1us3+5xxcot7evxiLPRqvQAXo7GTjqYX7qTBhA9dcHTqdAvtN09e+DZdHn+iENMC8ft40bviTkFdRiOzyPF2u1TwyAc8MngCTKUy2vdEbAdIsC+Nv4S0iQ6DtOb2MP/Hkitd5LA4UTmPLT/e0sgCoo+pUYRXg2z2/6HY9yhNwVac/cOOfhH9t0G9Z9JJ258vYAJVV+YbPi+n8f5Q1GlEWbSP1ebwe7mQnMLRlP3RP1M/4f7N7Ntblq+UnrsI4rDANEABmrON6Cxzl+fzqf+uWiINmGvf1vRlJfCTrdyw7vEaXjI3HmHTWeHRq3h2lVQVS6huFQ/S9ZuFxiLVpG6inuKaUO9lxRIZF6Dr7J8fTZ1a9wWNwIHEaW35qAVCG9VxzdcMplKfRcae3Fu3Gmxs/1u16NOD869wp3PgnzoQ9Hry19XPdrtc8shm+uuB1tIptg9Lqo4YdDXS7nWgR1Vzzc/q5FQXcyY5jxnnTdF36f2fLl3KsUeqZE2Ovk2f/aIgtP7UAeB6U+J6PA9YBr/Q+Nb4DPrf63zIrl160jU3FXb2u5w5wAl/umKWbMyDRtWkHfH7Bq0iIaoYSe4kQAfruw8ujiM5KpMe2RkJ4nKbX0jrQUCBxSYdRyGiaptv1aGx5VsXZvxh7vQafxlKYzbW2vJ4CwMcarr86dkJnqeHhJ4vtpXhmpX4PKM08ru86DhnxadwBjoMSNX2w/VtdrzmoRW98fP50RFhsqJAiQL+VAA9lKPR60LlpuubXKqnhpV6iuRB7f+3/F11n/9PXvIXCarUEmC8sO28LNdSGm88g7VkA1BG3y67EKsC7W7/EZo3Tsp4oAl4emeXLCMf8l//b9LmuqwDEqFZD8eF502E2m1EiZsp6BQmqFn0/KiYZw1P6aXodqs8yFgBS3L035nldjf+Wol2YsfEjJWf/NPYyDbPhpxcAXqziGqw7TkcpvF6XoffgcDsxeel0Xa85OKUPnh72N+4Ax1HjqsGbmz/R/bqXpl+A9877J5pGJKCkurB2DNBWCDhd1egY11YIgAHa1qno21UOzvH+QN9bZFAuPcla+k/djhrXFRprnQ6e/TfGhp9eAHSV/5jP3dR1FcBZCWeN8asAcw8uxewDi3W95tkt+2Jc+/O4ExzHB1u+xcbC7bpf96r2Y/Djhf9Bh6YZKK3K1zRaoNfrCwA0Lu18WM1hmn6vlbl8Mnl4q/64vOPooB9P6iQ8xVhLYy5zSjy1NryBAuBKkORbyfVYd1xyFcB4zfTo4ufk0qxe0HLkIwNuR/v4ttwJjvUFjwvTVryi+1YAQT4BC8d9iDHpo1FeVSD7gr9XAuj32d12pEan4tbOV2j+nZbnhvbJZEr0Qyttei79Vzgq8cjiZ9Sb2Iox1sWz/zNq5lob3kAB4GMF12M9Bn3KEqhAx9xdcgBPr5yh6zVpYHp/zPOICovgjlDL7H2Lsa8025Brp0a3wPdj3sSDZ90FhzDUJdX+PULnFhMMR3UxHup1C1rFJGv+fbYd3ROy/YhWVz4Y85Kuxp94etUM7Crer+REi8/+N95210UALOd6rB9yX0qBVYAZGz7CJh0dAo+JgOkjJnEnOI4HFz1hyCqAfMBNZrwwZCI+v+A19EjqidLKXBkwyh+rAeWV+RjS5hzc1vVqzb8H1d+hsiMh24eeGf4I+rbopq/1OLIeL697T73KEGMr7/3XiTPabhYAmqjTMiU6qN1dg78ufEr3jHEUlvS+vn/ijlAL5Qh4d+vXht7D5emjsWjcR5gy6BGEidlkSVVeg9IJH/v/Syvz0K5pB7w38jnEWKO0n/0X70Wloyok+8+NXS/BoJTeul6T+sbDi55SdoLFYX/9IwDOfHZrAUqQiZvFp3iuz3rJVITZ4gyLzHaM7IpcpEQ3R5/mXXW7Jp1Rbh6VgLyqIuws3sddQbAufzPObTMYLXVYKj8VEWHhyGw5CCNSByLHfhTbj+6A3V4Mr9kGWx0c+Kgv13gcqBAz//RmnfHpBS+je4I+S9KU9np7UehtAZzTaiAmDLhd96X/V9a/i093/KDeqComMzXVefC4HTyonJ79yMLUxgsAIhN0vqcH12ndoQ5qsdhgCYs0/F6WH1mPqzqPRRNbtK4ioHNCOlbnbRZCoJDloCiLc1ZheMv+sm6MhPbrr8u4GO1i28BlsuBQZS7KRKnxuOCpneHTQOvxesXPXpmAh1aTqoRYcAkBcEWnS/Heuc8J45+h2z1PWvoiSkMsBkB6XGu8dt5U3Y3/9qN7cevsCcod+yNcjmI4qnk8qQM/isn7V/4SADRt4fRv9R71PQizxeoemvVEaPDeV3oIl3cco+t1ydANSOmJWfsXodzBx3VK7GU46ihDRnxbw0UA0TuxC67NuAgXtB6KYa3ORkp0Mhyir5Q6K2CuXbkiERBmtqB70wxc0uFCTBvwEB7tcweaahzy93gWZ6+S/iyhBCVV+mrc67obf+LGnx7CXjFeqDf7d6OmKs/wiKsBwgwhAM4Yx6du69NZ6AlOD9wgIqJbwhbRTIl7eXXkVFzf5Y+6X5ccuM7/4kZUOjmIi5HtUBfKHBUocZTjaE0JSmrK4PQ40TI6Ba1jktHEGm3IPd29IAvvb/46ZPqHzWLFzD/+WwbY0pvnVr2Jf6x4Vcl6cdiLYK88zANI3egl7PZG/wgAYipy4UULrtf6YQmLRmSTNjCbrUrMKhZe9THS49rofu3v9szFDbMe8gWOCXHCw2yYdcnb6NuiOz8gdRGPX94UUg6Ab13wDC7LGK37ddfnb8UoUdc1Cu6ve4QQrS4/CLeLVxLPiAl5mII6ORvVfW3ai8Vcs/WHOqyzRo0EGjS7u3tuliHXvqj9SLwz+jl5LC3UqXE5cNWP9xp2NDCQWHpkXcgYf5qN/XvUU4YYfwr4c8ecx5Q0/gSNoWz8/W+r657BJVPO/i/k2m1Ae3hcsIRFKbEKcKj8iDzKNbRlP92v3Tmhvdz7/nn/opDvE7QdsjR3PQan9FbCH0DV2f+kZdNRVB0aKYCzhtyHW7tfaci1Jyx+DrMP/KroJKoaNdX5hudZCSBex4K6RfCt+3TMjYVcrw3D47bD6ShR5n5eWPMfrM7bZMi1B6b0wnPDH+VOIdhWuAtPrnydVwJOwa6S/dhZtDckvuvjQx7AqLZDDbn293vn4f82f6Zs3dDYSWMo439bXfcVgEXIRyZuFZ9iuYYbIAI8Dnkk0GyxGd8/vB4sO7IW13S+GOE63w/NdiPCbEiLa435h5aFfL+gOAkOuNC2SSqvBJww+79r3pSQSP87YcAdGNPuHEM8/ilk+KUz75LOniriclbIc/8qRFYNELLxOCb4XwAQmSC31F5cxw2gtgNbbXFK3M5RewlyKwswNv1c3a9Nhi7GFoWEiKZYmrMm5LvGxvzt8JpN0tOeRYCP7/bNw+fbfwj67/mXHlfh6s5jDTH+xA0/PYQ9QgSoChl/t6uKH4i68y0WoM5HZuonAEbI2f8fuY4buArgtssVABWCAxGUJyA+PBb9k3saIgKaRcYjo2k7zDm4JOT7xrq8LQizhCE1pnnIiwCa/d/6y0TpLBnMTBp0D67oNMYw4/+3RU/j692zla0fcvyTs3+m7pjwkhAAdT6yX98VgCLx+iDXcuNWAizWaJhMFiVuh3J9D07tg7TYVoaIgChrBLondsIvBxYj1A8IrsnbDLvHKdqiZciKADL+f1/6InYEedjfKYPvxeh2ww0z/u9v/QbTlr+s7mTJ44CjOp+D/tSfe4QAqHOihPpZIfrFmRgnPqVwPTe8Y5vMFoRZY5S5p4XZK3Fph1FoYtP/nsjQ9WneDSnRSTJiYKizqWA7Dlflo2vtiYlQ4/t98zBjfXBH/ZMOf2lDDTP+mwt3yKV/l0ddr3qHvVCZ49MBxDpk4bn6/IP6T0MzkS5ez+a6bsQigNsJc1iEEg6BBIXp3VCwDdd2udgvaWIbQu/mXZHRNA3f750Pb4ivBewuPoC1BVvk1kwoiYC1+Vtw46yHZO6BYITCK79+3jS54maU8ad8Cpd/Nx65VQXK1hM5/jmq8mXoX6ZevC8m6XO0FQAj5Oh8I9d1IwRAbce22silwqTEPR0sz5FCYGSbIYbdQ9dmHTAotbc8luRwO0O6j5CD5o8HFmJE60EhIQJo6f+qH+9DqT04vf7ptM0HY17EJRkXGNqelORn6ZG1Ko+O8sw/B/1pACZMEQKgXulX6y8A6AKZ0g8gnGu84ZBDoMlslQGCVGFV7kYkRSYYGqKWfBEuSBuGnw8slpELQxmKzvbRju/QJjZV/hysQoCM/+1zJ2FP8YGg/H5NI+Lw4YUv4XyDzvkfY/LSl/DeVrVzKjjsR+XeP1NvypCF2+r7jxrmieY7DtiN67yxKwEumSvAXIdc7Hrxy4Ff0TOps1yONwoydJmtB2JV3qaQTyVM+7SURyFYYwWQ8X969RtYfGhlULZfWlwrfHXxaxiQbOzp6Xe3fImsZf9Uuq7cLrsw/nkycipTb+j43xd6CQDyFuPjgI0VAKKjU9bVMJtasZXIGe/cNoOREt3cUBFAUQMPlediT+nBkO8rFCtged56DAqi0MFk/J9Z/SZm7poTlG02KKUP3jz/CcP2+49/nv88e4Ly9UXG3+UoA9MgnhcCYL0+AmAIjoh/+TDXuR9UL8UGMKsTG4CgqGDLctbhik4XIiLMuJ0eMnTdEjtIp5N1+VtDvq8UVB3FB9tnwhZmRRNrVEALATL+4+dlYcHB5UHZVtd0vgiTB99tuPHfVbwf1/54H6pcaofS5TP/jVVPuAOLUW/HiYYJALpQJkaIT2lc8/5YCXAjTAzoJoW2AorsxViasxaXZVwg85MbKQJaN0mWfgkLslcIcRLay4Nu0VfmC6O5tnAr+rfoEZAiYGXuBlz5wz1BuedvFc/wk0MfxpVCPBtt/Cnx14Vf3YK8qiKl64z8oWrI65/P/DeUhZiGVxvyDxsejSYTieJ1FNe9PwQAebybEGZrotR9Ha7Iw+7Sg7ikg7HNTEaO/BLOb3s25mcvR0kNLxPmVhTg/W3foNJVJeonISCEAM36v9r9M26d/SjKaoLPwTM5Ogkf/+GfMp2v0e1Bp2iu+eFebDuqfkAl8vp3OUrZEDScV7EAS/UWAEfF691c936a2bmrldsKIHYc3Yvs8lz8IX2EEgPs8Fb9fcKk5AD3Ga8Hy4+sx48HFsEj/sQovC1Axv/xFa9gxvoP5X0HG+e0Goh/j3oC/Vr0MPxeql12XP3Dffj18Grl642X/v3CfUIANMhbuuECgC6YiYvBUQH9uBLg8mUMNFuVuq+NhdvljO28tsbHfyIDR/ECKJvgkpzVQWlM6gsdF5x/cBl+PvgrEiObysgSqggBMvyLc1bhpp//is0FO4Ku7i0mM/424HaM73294Uv+hMvjxs2z/ipP8ygvYF3V0vh7PU4wDWYtsvBkg/tvoy6diWQAI7gN/CUAnLWnAmgrwKTUva3K2wi7q0YGplFBBAxM6Y1hrfrL2AXkr8BAijQ6Mjjn0FJUuqsRZ4sxTAiQ4Z8r7mPCr8/hrU2fy74TbLRukoL3xryAG7r8URnBdeecSUon+DlutGOvf/8wQ0zGFxojAIahBGbcwW3gX1VMzoAqBQg6Bi03y2Zv2V+ZAXhIy75yFWBDwXbuPLVQuNdFh1bik53fY6UQbrFCCHSIb6ub4f9x/wJMWvYS3tn8JYqqg1OcXd5xDF7MnIj+yepkR7973hR8tH1mQNSfw14k9/6ZxhoMPIBFaPAeSuOnmVny7GEvbgn/YbaEIyK6pVIJg46Hkpnc1/dmpe6Jwgf/deFTyKnkQeVktIhJRP8WvXB1pz8gPa61X5eryejnVhbi/e3fYGnOGuRVBG/wpoSIeDwz/BFRfx2UWPI/xsRfn8er698PiDqkWP/2ysPwuGv4wWwcG4T97d2YX+APATBZvE7ltvAvFByIRIBq/gDHeGLow7i79w1K3ZMMLLPyDXy7Zw53oNNAKZjbN22LjPg0dE7ogNToJLRp0hLntBpQp3+/KncDthfvxe7SA1iduwkbC3egLEhj+B/PiDaD8cTZDypl+IkpS6dj+tq3A6IOPR6nNP689O+fphf293GjBQAFjt/EbeF/bJFJiIhS18dy6pD7cH/fW5QTAQfKcjBh8bPi/TB3oroKTrMF4WHhotgQFRYhtw1ibNEyM1+1qwYOt0PGYKC9/GJ7KWpcoXNmmxwrnxr2N+Vm/cRfFz2NNzd+HDB1aa86Akd1AT9w/qGHsL+bjRUAPhGwQrwO4PbwMyazEACpsEUkKHuLEwfehUf6367cfZEQ+Hj795ix4cOQDx7ENAxK33tj10txW8+rlTP8xL3zpuLdrV8FTH1Soh97VQ55O3Pnajwrhd0d2NhfYvHLrWQiHhwUSAO88Hgc0ifAbLEpeYeLD6+Sx9CMTCN8Msgrm/IZZLYehPX5W5GveDQ0Ri3IT+K90S/g9l7XKhdbgVZl/vLLxIBx+CNo35+P/PmV6Q0N/uN/AXAOsmHCA9wmGkgAr0sUNywUKthkUfIeV9JRvOoSjEobpty9tYxJlkmFOjZNx9r8LTJICsOcirjwJnio362YMOAO9Evuqdz9Uf+95of7pNNroECTGDL+blcldzD/zQ3/goVodPhE/1gUupFM0AHxDtwyGjxAtd6yqoUKPp61+ZtxpCIfY9plKndvNIPrl9xDhhKOEkJqQ8E2uIWoYphjWM1WXNdlHKaPeAyXdLhAyYiKFAL7hp8ewrxDSwOqbmuq8mTEP8ZvzMJUvOaPX+S/KWUmyF2dUwRrhNtVBZPJDIs1Wtl7JMO6s3gfLkgbLpOiqCgEaFuAViqyK3Kxr/QQdywGQ1v2w9ujn8Wfu1+pbChlOt56ozD+tOUWSJDDH5/39ztPNCT178nwX7i5exCOZiCZF8ntow0mMUuJiE6B1Rav9H1SlL53Rj+H1OjmSt8nxUqn0wKbCndw5wpBOie0x2MDxyM9vrWSTn7HoP553Y8PBNypFqejBPbKI7zv71+qUYSmeBl+CaLgvxWAlXAjU6YH7sttpBFej3yYLAo7BRKHxez6p30LMSClF1IUFgFtYlOlf8DA1D44ImZYORU8UwkFujTrgL8PvEvG7x/asr/SmRS/2ztP7vkHmhOr21kpZ/4c7MfvvItn8bXfJpV+vbUsIQGA+dxG2iKDBEWlyNMBKtM0Ig5vnPcELlDQOfBE6NjgvtJsPLnidWwVn73czYIO8uyfMvheZDRNU3rGf4wZGz7CI4ufCbh6JqNP5/052I8mjBB2doGaAsAnAjaCAhQwmkKxAcKFCFD1ZMAxzCYznhs+Abf2uCpg6nb2/sV4atUMrM/fAo+XpUCg0yOxE+7pexO6N8sICMNPPLbkBby87r2Aq2s6sVRDwX7sR7nj+Z9Nwr769WiK/63HCFAA+/O5rbRFJg0Sf1TNF/DfAUH8mX1gsYwgl9l6oLxn1Wkf3xY3d7sMfZp3g9vjxu6SA/LsNRM4UGTDUW2HY9Kgu3FTt0sxovVgpZf6j0GJnG6f8xjeC6AAP8fjqM4Xxr+QO6AWmPCCP87+a7sCMBEtYEMut5Y+PYKcAm0RiQFxt7QVMH3EZOWdA0+Etgf+s+kzfLlrlhygGXWJsUZjbPtzcW+fGwNmtn+MzYU7cOfcydgYoJktyfCT0x94A02jCkYynmx45j99BACRhQ/E63XcYjpIAHOY9AewhjcNiPslx7tXz52K4a0CL3I0CYE5B5bim92zZfphjiWgBhSyt0tCBi4Shv/i9iMDzvATH2//Dg8tfBKVzqqAbAM650/7/l4Ou60VHwq7er3/p5BaMBUjhQjklGx6DYCUPliIAHIODAQoRsC0sx/Enb0CVyMuzF6BWfsW4YtdP3GYYYOID4/FZRkXYHTaOUpGoawLLo8bk5a8iNc2fBCw7UDOfmT82eNfy5kezsMUzA0MAeBbBVgDPhKoG5awKIRHJSvvE3A813a+GM+f8yiirVEBW++0KpBdnocZGz+UqXHLHBXcGTWElvj7tOgqnUoz4tsG5Gz/GORb8vDCpzD/0LLANf4U478qVwYqYzRjrbCnZ2mjK7RiMsbDjFe47fSDjD+JABIDgQJ5aE8fMQn9WgT+wRESAxvyt+O7vXOxKncjCqrZE9pfM33qHxe1H4n+yT0C2ugf49MdP+DRxc+iyF4SsN+BjD4ZfxIBjIZ4cDcex6uBJQB8kQEpskost6COIkDGCEiG2RIRMPccZY3EQ2f9Gff3vUV6bwcDx8TA/OzlWHhoBfKrCtk1qh4kRMTjnFYDZJbJvi26BYXRJ2iPf/LS6fjPpk8D2ya57bCT8eez/lpThiI091fkP/0EAJGF58XrQ9yG+mINj0d4ZLLS0QJPBsXp/8fZD4nBPiPo2mRj4XZ8vWs2ftq/EAfLcgLW2UtLEdgypgVGth6CqzqPRbjFGjRG/xir8zbhwQVPyJwZgW38KbtfLpw1JdxxtecFYUcf1uqXay0A6AnmQOuGiICmcjvAbLYG1H03sUXj0QF3YnzvG4K2bWh1gPwFFh1eha1Fu7C/NBtVIZamOCIsHG2apEqxNyilD4a16hd0Bv94KKhP1rLp0ukvoI2/xymX/Tm7n250EnZ0Z2AKAJ8I+ES8XsXtqD8yWmBkC5lEKNCgmAFPD/sb0uPaBH070YxwV/EBKQwWZK/AnpIDKHdUBE0UQjqmF22NlqF4h7Xqj55JnZEe2xr9k3sGfdvuLT2IRxc/h1n7FwX8d6E8JDXVeRzlTz8+Ffbzai0voIcAyATnBzBQBDSrFQFhAXfvdDrgwbNuwQNn/RkWkzmk2o3EwNHqUqzO34StRbuxv/SQTAlbVlMhVwtcip23Jt+NyLAIxNpi0CIqEenxbdAlob2MppgcnRjUs/uTGkvx57X1H+CZVW8ERfAoOt/vM/585FVH/Br33xgB4BMBJAAyuT1ZBDSEvsKITB58jwznygDLjqyTqwR7Sg7KzItkYEodFahwVApxUI0qpx12dw0cbqcUClTc9QxlTDkcyKhTzAabxYZwUaKEgSdRRoW2auLCm6BlTDLai5l9+/g0DG15FjeOYGnOWkxe+pI8CRIUYoaNvxEsEHZzhNYX0UsAXC5eP+c2ZRHQUGgF4Pae1+Lh/n9Bs4h4btA6zkKdbhdWHFmPapcdNW4HqoUwqHJWo7D6KHIrC+T/lxSZIGbpSYi0RiLSEi6NPc3mB6b0htUSFhD5G1SgpKYML675P7y+4UMpvtj4M43gCmE3vwgOAeATAevEa29uV6NFQPOA9Ak4BqVynTTwbozrwPmmGHX4cd8CTFv+styuCRoBKff889n46896YS/76DKx0u0rZYIk8ThuW+OgDIJerwcWMbtTPY3wqThqL8HXu2djuZjVpsW1QusmKdywjGHQMv/986fh2VVvBFXgJ4/HgZqqfDhr2OHPAP6OBXLCrDn6ru35jjNkcPsaizwiGNlc5hAIZGwWK67rMg739/0T0mJbccMyunGo/AheWf8e3t78hdxaCSYopj/N/PmonyHsqj0+rwv6TgMzQYdg/8BtbPQDbpd7exQt0BygPgEEObatz9+KD7d9K3+msMK2AAt+xAQWTvHcvLLuPdwx5zEsPrwq6DJCul12OKrz4HRwkB+DmCxm/6v0upj+3j1TsRdetON2Nh4KG0wrAYGUO+B0dGzaDrf3vAY3dbtMeq8zjL+gAD4fbZ+JGRs+kkc0gxEZ21/M/Dm8r0GYsA9TkK7nJfXfCPatAlzIra3CSkANvB6HPBkQ6NsBBCVWmX1gMX7ct1CGkm0f30ZuEzBMQ6HjlN/umYM7507CO1u+QEF1cDrEuZzlYuafL98ZQ2f/K/XVHEaQhT3iNZ3bWw0sYZGwRTaH1RYXVN/rrBbdZdpYSjvMMPWFMva9vflzGXchmHE6SqXxJydhxjD2CrvYXvex35CvOkKeCGBfAEUgfwCPmx5+sxQDwcKRynz8sHe+PKJFwWvoCGGwZBtkNDKG4ln4Tsz475k3FTM2foTsityg/r4U1pf2/Gk1kDEQk/T8X63/ZY0iC1vFaxdueYX6oMkCW2SS9AsIRshJ8NYeV2JU2nCkRjfnBmf+S2F1MeYeXIo3hNFfk7c5JL6zPONfXQBvkDkyBiDbhD3saozuMIqpuAlevMNtrx5SBEQkBWzUwDPRJjYVV3cai2s6XxQSyYaYU5NTkSed+z7b8SN2FO8Nie8so/vZC6TxZ5SY/d+MKXg3tASAbxVguXgdyD1APShWgE2IAAoaFKwkRjbF+W2H4o6e16J3867c6CHElqJdeH3DB5hzYAmOVIaOIZTH/ITx5zP+yrBC2MFBxmkPI5mKcfDiG+4DahJmjZGrAWHWJkH9PSnxzZi0c3B157EyN33zqGbc+EEIxeqnRD2f7fgBM/fMqXeCpEDH5+lfIN4ruDOoM/v/o5j9fxuaAsC3CvA92CFQXeNoiUB4ZCKs4Qkh8X3p6OCotsPwxw6jhBjg1BXBAO3pf7vnF/xy4NegitVfHyikb011oQwCxijDD8L+jTVWfxjNJAyGBUu5LygsUqVzYCJsEYkBm0OgvkSGhaNHYme5KjA2/VyZ454JHCgu/8/7F+Hj7d9hbf4WmQExFCEHP4e9UMz8C9nZTzXcGIJpWBbaAsC3CvCmeP0L9wi1kX4BkUmwWCJC6nvH2mJwQdpwUYahf3JPzjugKBSff3XeJsw9uATf7Zknl/xD2r647XLJn/f7leTfwu7dZvjkThEBQCMqueBy2DbFkX4BEYkyjHAokhydiLNT+2F4q/64qP15aBYRz53CQEpryjFzz1wsOrwSvx5eLb36GchwvjTz5/1+JaE4OOnC7mWzAPifCJgoXp/gvqE+ZrNVigDaFlCpC+kNxRKg0wNXdLxQ+gu0iE6CxWTmDqIxOZX5cl//850/YnXuJhwO8mA99cMrl/vJ+Hs8Tq4ONfm7sHdPqnAjao3eWdgiXvk8VoBgi0iQQsAcYlsCJ4MiDQ5J7YvhrQage7OO6NW8C68O+IkyRwXW5W+RR/eWHF6DRdkr5d8xv4Uc/OR+v/0oV4a6bBV2rpsqN6OWAJiKy4SA/YL7SOBgsUZLERBseQQaC4Ud7iaEQM/EThjS8iz0a9GDMxTWkQpHpXTco1n+xsLt2H50T8h679cVGc9fGH+3s5IrQ2VMuBxT8CULgFOvAnwuXi/nnhJAfVoYNlt4MyEEmgVt9MDGEGEJR1JUggxFPKxVfwxO6YOWMckcb0BQ7bIjr6oQO4v3YcWRDVh+ZB32lh5CYfVRONy8hH0mKKqfw14ER02R/MwozRfCvl2hlh5RTwB0FK87uK8EHrQKYBUigBwFmdNDAmBwah/pO5Aa0wJtm6SitShx4cEbdIm88slT/0DZYWn0txXtwYaCbVhfsJWNfQMgBz+nMP40+2cCgk7Cvu1kAXBmEcAOgQGKWcx2yTfAGt4MJnaIqzMxtmi0jG6BVk2SkRydhI5N28lthA7xbdFKiAXyMQgUyh2V2Cdm8WTo95QeELP7/cipyJfOeuTAR0v8TCNm/V4PnGLGT3v9nMUvYFDG8U99AeATAavEaz/uNwG6GhAeL7cFyEeAaTgUgyDaGikFQpsmqVIM0IoBrSC0iU1BYmSC/O9RYZG+d1FMGjzWLo8bNcLY2N0O1LhqUO2iz3bkVxVhT8lBaezJ6O8pPYij9hIhAqpQ6aziBvQztMdPy/3OmhKujMBhtbBn/VW8MXUFwGSMhBlzuO/wagBzgrgyh8kVARIF0cLwN49uJiMVJgkxQO8kCsi/oIUo9P+cCVp+dwjD7qT9ZI8TTvHzsc+VwpAX15TJ5fsSu++9uKYUxfZSFAlDX+W0o9RRzrN6nvUzp8KD8/A45rIAqP8qwHTxeh/3oAA3WLZ4WIUQYN8Ahqk/vr3+o3A6eNYfgPxT2LH7Vb05tQXAbbCiJbbAiwzuRwG+GmC2CRHQVCYVokBCDMOcYeJIqzE1wvDbi8VnB1dIoGHCLhxGN7wJZT1c1c7ssgYeZOKA+HQN96bAhhKR0P6lb/nSBEsYBw9imFNBe/yO6nwpADiJT8ByC17ANpVvUP3UbguwQ4iAJPFpAPenYJjVOGRecq+Y3VDMAF4NYJj/4XZVScNfIwrv9Qc0ryILL6l+k4ERyP0NWHEEm0DnKJmggZwEZYZBUUwsBJgQhgSxo6ZYZu5jwx/w7EAKeuB2KB/cInAyuWRhtHj9iftW8EHOgSQEqDBMqOGsNfycuS9oGCPs1axAuFFLwFTpAuxGJmjjeCj3r+BCbgs4ysR7jVCkZrkywDDBjstRjprqPN9yPzv5BQtPC+P/RqDcbODlcs3CEvE6hPtZcGIyWWQQIVoNsIRFcYUwQQft8/tm/SXs4BdcLBX26exAuuFAzNwyXpR13NeCExoQKbkJzY5ICISJYuF0w0wwGH63HS5h9Mnw84w/KBkfaDdsCbgqXoBcjEC++PQH7m/BLQTcrkq4nRXyM50W4EyDTCBCTn0UvremKk9udfGsPwgx4S4x+/8+8G47UMnC2+L1Zu55oQGtAtBqAGUcZB8BJlAMP2Xqo1k/zf6ZoOUdYY/+FJi6JVD5F8JxFKvFp+7c/0JNCMTVCgHeGmBUNPz2WsNfyoY/+NmMBPTDvQjIs5umgK76xzEYHizlPhh6yBgCQgSEiWIJi+QKYQzH7aqGSxh+Mv58lj9UBiIMwWQsC9gJVUBX/nxksz9AaHK8j4B0qDKZhCiwccUwukPn9x32QhnBz+XkPf6Qgfb9p+DrwP4KwUAWXhWvd3GPDOFn0WRBmC1WFqsowdK1GWUlqJjpl0mnPnbsC0leE3ZnfKB/ieAZJbMwX7xmcr9kwqxN/isGONcA408oQ98xo085LZiQZIGwNyOCYqwMokYhL0zai0nm/hna0MBMxWwvgtUmxIA1FhZrNFcM02AokyUt7zsd5dLJjwlZcmttTVAQXOukWRglXn/mPsr8ppObzLWrAk3kOyceYuoCJeiRYtLhE5Rer4crhblA2JnZLABUZSruhBevcT9lTgYdHfQJgRgpBhjmRHwrSBXS8PNsnznOWpLT3+vB9ZWCkSw8I17/xj2WOR0kAixWnxjgo4ShjTzCJ4y+u9b4M8wJPCvsyiPBp2mClSx8LF6v5n7LnPEhoBMEUgzQqkA0BxgKEWh273L6jpK6akNOM8xJ+ETYk2uCcuwL5nFdNNoC8T6c+y9T505jDkNYWDSLgVAw+q5KeD0urhTmdCwSdiQTdO4zCAnm7CrUYKTa6HhgR+7HTJ06jTAIztpobrQyQKcHfIIgmtMTByiUfld68cvAUZU802fqys5aG+IN1i8Y/NFSstC7VgTEc39mGgMJgGNCIEwUPk2gqohzCmNf9V/DT+8MU09KRBkh7Mf6YP6SoREuLQvniddfuE8z/oICDElBIIo5LFK+03FDxgCD7/VII+9xVfuMPn0WIoBhGsH5wm7MCfYvGTrxUqfiCnjxGfdrRhNBYAmXJwkslshaQRAptxAYLQy+W3rtS4PvrvZ95uQ7jP+s4pWYgs9D46uGElPxZyEC/sM9nNF+hcAmhEBErSCIkGmMSSQw9YeMO6XV9bjs0uDTu0wAxTD+t4i3CuP/f6HzdUONKbhXfOt/ck9n9H7ULGE+EWCuFQMW+TkcnLjov3P7WmNfI9/JY1/+7LIjiP2wGHW6331ikviv0BqVQpGpeEQ09tPc4xnDVwosNpjN4bXCwOZbOaDP4p1SHAfnQOuVM3hp5OX7sc818jPDGGAJJ4jJ4TOh97VDlSw8Jl6ncc9nlHwwzWE+MSCKyWKVTod06sD3Lv6byaquQCAD73XKI5XkjEde+fLd7fQZfFH4/D2jEJOEPfhHaOqeUGaq0Hxe0fQME2gPrskihYDJJIrZctz78cXsc0SU72YpGEww1woH8bn2/QTrLey3V76TIRem3PdOiXBEIQc873/fa4uH3l3Hvbv4rD0TKBYwKzah59SyezaG6NcPdVgEMAzDhKTxF6P/1FCuAj6ntAALkQmarpzLTwTDMExIQMv+Ib8FzALAJwIWYQTI1fg8rgyGYZignvlPEMb/Ka4IFgDHi4AlOAfFonOM4cpgGIYJQuioXxZe5Io4poWY38LBghiGYYLR2oVUkB8WAA0XARw2mGEYJngsXciE92UB4A98CYSow3AWQYZhmMCEsvpdEQqJfVgA+F8EUCrhT0XpyJXBMAwTUOwU5apgT+nLAkBbEZAqXj8WZThXBsMwTECwSJRrxPidw1XBAqDx9ZSFj8T71VwVDMMwSvOJGK+vBWeQOiN8DLCuLMCXyESU+HQ2VwbDMIySPCuM/x1cDbwCoA1TcafQla9xRTAMwyhlze7CFLzOFcECQFuyMEq8vitKMlcGwzCMoeSKcpMYl2dzVbAA0EsEpInXt0XJ5MpgGIYxhAWi/EmMx/u5KlgAGCEEXhWvd3FFMAzD6MprYvwdz9XAAsBY2C+AYRhGT8vF+/0sABTicQyGB2+KT925MhiGYTRhM8y4DZOxjKuCBYBa/AvhOIoZ4tPNXBkMwzB+5R0k4A7cixquChYA6sJbAgzDMP60VLzkzwIggPDlESAHwSFcGQzDMA1iqSjjOZ4/C4BAFQJPidcJXBEMwzD14mkxfj7K1cACINBFwGjxOl2UTlwZDMMwp2WHKPeLcXMWVwULgODgDVhxBC8BfG6VYRjmFLyKFDyA2+HkqmABEIyrAReLWn8eXmRwZTAMw0hLtEuMiQ+L8XEmVwYLgODmNliRiufEp/u4MhiGCXH+iRz8FW/yrJ8FQCgxGSNhxtPiUz+uDIZhQozV8GACHsdcrgoWAKFLFiaK1ye4IhiGCRH+Lsa9J7kaWAAwPhHQsVYEXM6VwTBMkPJFrfHfyVXBAoA5kam4DF48Lj515cpgGCZI2CqszWRMwZdcFSwAmDOvCEyUr4CVK4NhmADFKccxXu5nAcDUWwS0ArkKAn/hymAYJsD4NyhPahayuSpYADANZRIGw4K/i09/4MpgGEZxfoAbT2Aap+xlAcD4j6kYB6+MjT2QK4NhGMVYISzKU5iCb7kqWAAw2gmBm4QQeER86sKVwTCMwWwTluQZYfjf5apgAcDoJwTulOEzgXSuDIZhdGavDGs+Ba9zVbAAYIwiC3eLlnxQiIF2XBkMw2hsNfaJseZFMe68wpXBAoBRRwjcBUqjCU40xDCM39kFSmuehde4KlgAMOoKgVvE6z2i9ObKYBimkawX5WUxrrzFVcECgAkcIUBhhceLksmVwTBMPVkgyqtiHPmCq4IFABO4QoAEwB2iXMWVwTDMGfhUlBli3FjAVcECgAkeIUAJh26DL7JgLFcIwzC1lMEXue9NTtTDAoAJZu5BOJriVpilr0BfrhCGCVnWwoO3UIz/4GXUcHWwAGBCiakYCS/+JD5dx5XBMCHDh2L0fxtTMJerggUAE+pMRAuE40YhBm4QP/XgCmGYoGOTGPHfF/P89/Ak8rg6GBYAzO/xOQ1eV1siuUIYJmCplrN9KuzUx7AAYOoM+Qo0wzXwnR4YzRXCMAHDLJA3fxE+5r19hgUA0zimoI3oLVeKT1eIMoArhGGUY6Uon8OLzzAVB7k6GBYAjP/JQnfxemlt6cUVwjCGsUGUr2TJwmauDoYFAKMfk4QAsGCc+ESFjxQyjPasFeVbuEWZJgUAw7AAYAxfGegsXsfWlnO4QhjGbywU5XtZsrCdq4NhAcCoCx0rtGGM+ESFHAg58iDD1B2KzEeOfD/BIQof22NYADABiy/g0Cjx6XxR+nCFMMzvWCfKL2JUns0BehgWAExwkoVWoueRIBgpfhohSiuuFCYEyRZlvngW5opnYa54LrK5ShgWAExoMQk9YJE+A+eIHjlMDIYtuFKYIBxt80TfXgzaz3eLMg2buFIYFgAM89sVgp7idagoZ4syRJQ0rhQmANkvylJRlojyq+jXG7lKGBYADFM/QUACYFBtGQhfICIzVwyjEB74AvGsEGW5LFlSADAMCwCG8RufwYKt6C96b394cZb4GyrduWIYHaGgO2tEH1wj+uAqdBXlSri5WhgWAAyjNw8jGrHoLeZhdMKglxiUe4neTVsJ4Vw5TCOoEX1po+hLFHBnA8xYhzKsx/Oo5KphWAAwjMpkibmZb3Wgmywm8bMXXbhimJOMhttE39gqPm2pLZtF/9nKFcOwAGCY4BEFYeK1sywmdBKDfkfxuaN4zxA/N+MKCmK8KBJtvEt82ined4qfd4jP22XJgosriGEBwDChypNCADjQXjwZ7cVP6cJAtBPvVNJEaSuKhStJaWgf/gB8Hvj7RDvuE+97RTvugU2UiUIAMAzDAoBh6s0/0BoetBGlNXwBjKi0FCVVFhNShLFhvwNtRivajz8iPuXUlsPwBdPJFmb/kKj1g3hMvDMMwwKAYQxbRahGMiwyoFFzYbSaiyctSXymkiiLCQni75uJ96biPTJER59q8d2LxXuReD8q/qawthSInwvE3+eLz/nCuOeJGsrl2TvDsABgmODiAWHeEhEvzGE8whAHjyhmNAElUDLJ9xhhEGPEe7T4OUq8R4mf6Z2EQ4QsJjH/9a082GqLtbaEif9mEf+Nti6omOVzT3+8v3n+6Ry7t/bdLf6LW/xEy+m0L+6sLQ5ZfDPxGvHZXluqxd9Vifcq8ff0Xil+rhDvFeLnclBiG494N6NU/LZScdclwsyX4CXx7xiGMYz/F2AAUO63ZSr13E4AAAAASUVORK5CYII=;sketch=1;curveFitting=1;jiggle=2;imageBorder=default;imageBackground=none;" parent="w12Q39UHSDCIKb3LfXtM-5" vertex="1">
          <mxGeometry width="37.77777777777778" height="37.77777777777778" as="geometry" />
        </mxCell>
        <mxCell id="SJGOTdjTq_HpJzbm1Io4-4" value="Linker A" style="text;html=1;strokeColor=none;fillColor=none;align=center;verticalAlign=middle;whiteSpace=wrap;rounded=0;fontSize=20;fontFamily=Comic Sans MS;movable=1;resizable=1;rotatable=1;deletable=1;editable=1;locked=0;connectable=1;" parent="w12Q39UHSDCIKb3LfXtM-5" vertex="1">
          <mxGeometry x="40" y="3.7777777777777777" width="90" height="28.333333333333332" as="geometry" />
        </mxCell>
        <mxCell id="w12Q39UHSDCIKb3LfXtM-6" value="tun : 10.18.18.22" style="image;html=1;image=img/lib/clip_art/networking/Router_Icon_128x128.png;sketch=1;hachureGap=4;jiggle=2;curveFitting=1;fontFamily=Comic Sans MS;fontSize=20;imageBorder=default;" vertex="1" parent="1">
          <mxGeometry x="-35" y="167.05555555555554" width="80" height="75.55555555555556" as="geometry" />
        </mxCell>
        <mxCell id="w12Q39UHSDCIKb3LfXtM-17" value="" style="group;movable=1;resizable=1;rotatable=1;deletable=1;editable=1;locked=0;connectable=1;" vertex="1" connectable="0" parent="1">
          <mxGeometry x="450" y="90" width="130" height="37.77777777777778" as="geometry" />
        </mxCell>
        <mxCell id="w12Q39UHSDCIKb3LfXtM-18" value="" style="shape=image;aspect=fixed;image=data:image/png,iVBORw0KGgoAAAANSUhEUgAAAgAAAAIACAYAAAD0eNT6AAAAGXRFWHRTb2Z0d2FyZQBBZG9iZSBJbWFnZVJlYWR5ccllPAAAA2ZpVFh0WE1MOmNvbS5hZG9iZS54bXAAAAAAADw/eHBhY2tldCBiZWdpbj0i77u/IiBpZD0iVzVNME1wQ2VoaUh6cmVTek5UY3prYzlkIj8+IDx4OnhtcG1ldGEgeG1sbnM6eD0iYWRvYmU6bnM6bWV0YS8iIHg6eG1wdGs9IkFkb2JlIFhNUCBDb3JlIDUuMy1jMDExIDY2LjE0NTY2MSwgMjAxMi8wMi8wNi0xNDo1NjoyNyAgICAgICAgIj4gPHJkZjpSREYgeG1sbnM6cmRmPSJodHRwOi8vd3d3LnczLm9yZy8xOTk5LzAyLzIyLXJkZi1zeW50YXgtbnMjIj4gPHJkZjpEZXNjcmlwdGlvbiByZGY6YWJvdXQ9IiIgeG1sbnM6eG1wTU09Imh0dHA6Ly9ucy5hZG9iZS5jb20veGFwLzEuMC9tbS8iIHhtbG5zOnN0UmVmPSJodHRwOi8vbnMuYWRvYmUuY29tL3hhcC8xLjAvc1R5cGUvUmVzb3VyY2VSZWYjIiB4bWxuczp4bXA9Imh0dHA6Ly9ucy5hZG9iZS5jb20veGFwLzEuMC8iIHhtcE1NOk9yaWdpbmFsRG9jdW1lbnRJRD0ieG1wLmRpZDpGREE0RDI4NjM3RkNFRjExQTE0MDg5NzI4OUJBOUIzMCIgeG1wTU06RG9jdW1lbnRJRD0ieG1wLmRpZDowRTVFQThBQUZDM0MxMUVGQUNCQjkwNjFFNzI1NzA0QyIgeG1wTU06SW5zdGFuY2VJRD0ieG1wLmlpZDowRTVFQThBOUZDM0MxMUVGQUNCQjkwNjFFNzI1NzA0QyIgeG1wOkNyZWF0b3JUb29sPSJBZG9iZSBQaG90b3Nob3AgQ1M2IChXaW5kb3dzKSI+IDx4bXBNTTpEZXJpdmVkRnJvbSBzdFJlZjppbnN0YW5jZUlEPSJ4bXAuaWlkOkZFQTREMjg2MzdGQ0VGMTFBMTQwODk3Mjg5QkE5QjMwIiBzdFJlZjpkb2N1bWVudElEPSJ4bXAuZGlkOkZEQTREMjg2MzdGQ0VGMTFBMTQwODk3Mjg5QkE5QjMwIi8+IDwvcmRmOkRlc2NyaXB0aW9uPiA8L3JkZjpSREY+IDwveDp4bXBtZXRhPiA8P3hwYWNrZXQgZW5kPSJyIj8+PHB0cwAAnX5JREFUeNrsnQd8VMX2x39bspveISEQeu+9I0GKir09u6I+yxPrs72/jWBBfZZn771hBxsCgvTee4cACQkhvSe7m/3PmQRFpAUy987unq+fu7sEzN07d+6c35w5c44FDMOYyz0IQTyiUS4OO6LETyL/OCyIEO/h8IoDCBN/DhXvoeLP9B4ijmB5WOAUP3OKz47aI6j2sIu/s4m/s4nPdFjFYZH/ecUB+Sev/A/yqBaHR/zMI/7kEZ/d4nDVHlXysKBS/F2l+FxRe5SLn5WJ9zLxc3ovFX8uEe8l4s/F4r1I/NZiceZC8dsKxbcuQI44/if+P4ZhTMPCTcAw9cwExAnTlijMbYL4U0NhBBuKJ62B+ExHvDwsiBU/jxPvMeI9JEBHn3Jx7fniPVe854mf5NQeB8SfD4ifZ4vP2UKG7BctlIWHxL9jGIYFAMOYwpNIFnPfpsK4J4s/Nak9GosjSR4WNKqdiTP1P1qR5yFTfNpXe2SII10eHuwVrb4Hj4h3hmFYADDMSc3eq9BKPBmtxJ9aCoPTQrzT0VwczVDjRmf0hZYtdosjTRy7xH3cJd53ivu4Aw5xsBeBYVgAMAFMKuzitb08LGgnjENb8bmteG8j/hzHDeTHeIUAsGCb+LRVvG8Vf94iPm+WR6qMd2AYFgAM4yfGvqN47SyOTvKwiD970YEbhjnCaLhJ9I2N4tOG2mO96D8buWEYFgAMozP3IQyR6I5q9BB/6iYG8m6id3cVn3k9njkVKO5grehLa8TnNbBiFYqwGs+jlJuGYQHAMEbzNWxiXtZHGPs+YkDuJX7Sq3aWzzBGsV4cK8QIukIIhGXoKI5/yPgDhmEBwDD1RqoMwOtfe/QTR1/U7GdnGF2g/AlLxbFEHIvlkSoDERmGBQDD1MHgk+t+sDgGiWMgaiLwGcbXIAGwUBwLxDFf9Ou13CQMCwCGOZRH0QU2DBWfhooeOQRemUCHYfxttN0v+vY88WkOPOJ4Auu4URgWAEygzfCbiJ43XAyGw8WfhqEmmQ7DBBqUxGiWeBZmimdhpngu0rlJGBYAjP8xXhr8UeLTSHH04AZhmL+xShy/iVF5OsYJQcAwLAAYn+QhJMCBs8QnOs5ETXEbhmFOjCJxTBXHr6gSxwTs5yZhWAAw+pIqs+udU3sM5QZhmHpjjjh+lkeqzFzIMCwAGJN5FN1gw/niEx09uUEYRjkrxfEDPOJ4QiYoYhgWAIxhM31KunNR7dGNG4RhTIMEwPfySJXJiRiGBQBTz4xDU9Fb/iE+XYqaRDwMw+gFJSL6Bl58jfHYw83BsABgTp474EQcrhCfLkNNIB/DML4BBRB+hVxMxKuo5OZgWAAwJ0YqUsTrVeK4Uhyh3CAM47OUieMLcXwunuvZ3BwMCwDm79C2PSeuhRfXiD914QZhGL9jnRjxP0UlPuFthQwLAOZggp7ra2f8DMMEBp+L0f9DTjjEAoAJNGhtPwb/hBU3gLfuMUwgsxLV+AD5eI9jBVgAMP5MKtqK15vFcRM4Mx/DMH9CmQffFcc7YpzYys3BAoDxH8OfIl5vRU00P8MwzLH4ShxvcdAgCwDGtw3/JeJ1rDhSuDEYhqkjJABeF+PIt9wULAAY3zH8tLZ/hzi6c2MwDHOKrBbHq2Jc+YCbggUAo6/hv0283i2ONtwYDMPUM9vE8ZIYZ97gpmABwOhj+G8Xd/Lf8KIFNwbDMIqtxi4x1rwoxp3XuDFYADBmMR7/Eg/ifeJTS24MhmEMZqewIM9jHN7kpmABwBhn+K8Thv9B8akDNwbDMCazSViSZ4UQ+JibggUAo87wny8M//+JT/24MRiG0YwlwqI8LYTAD9wULACY+uJRDIAND4tPZ3NjMAyjOb/Ag6fwBBZxU7AAYE6WVDQRr4+hJnMfwzCML0GZBR8X41g6NwULAKZuxv8h+QoEcWMwDOOjuOQ4looJ3BQsAJjjMR4XwytUM9CRG4NhGD9ho7A2j2EcvuOmYAHA/H3GT4V6nhLHJdwYDMP4KZRW+GEuOMQCgPnT+D9Ua/wZhmECgYd5WYAFQGDzGIbDimfEp97cGAzDBBjLUY3/4HHM5KZgARA43IwgJOE58ekubgyGYQKcl7EP9+MdGTDIsADwY1Jxnkyf6eWCPQzDMLWWaJtMa56KH7kxWAD4H2+LWX8m/ic+jeXGYBiGOSKvoxHuwS3sDWAB4D+z/jNBZTSBdtwYDMMwx2QLqKx5KqZyU7AA8HXj/7R4/Q83BMMwTJ14Royf/8fNwALAFw1/d5A7CxjIjcEwDHNSLAQtm6ZiNTcFCwDfYDz+BS/e4IZgGIapF0t1G8bhTW4IFgD68gqcyMNb4tMYbgyGYZh65SPE4lbciUpuChYAevE4BqAa74hPnbkxGIZhlLAeVtyMx7jUMAsAXWCXP8MwjJGWi5cEWABoQKoM9LuNG4JhGMZQ3hDjL+dVYQFgiuFvLl4/FEcKNwbDMIwpzBbH9WI8TuOmYAFglPEfJV4/FkciNwbDMIypZInjOjEuT+emYAGgFl7vZxiG0dGacVxAHbFxE9Rp5v+seOUa1gzDMPpxNlIQitmYwU3BHoD6badUfCHeL+emYBiG0ZovxXh9pXj3clOwADjVWX+SeJ0ojtO4MRiGYXyCueK4Qozf+7gpWACcrPGnfP5fiaMtNwbDMIxPsVUcl3EdARYAJ2P8R4jXb8QRzY3BMAzjkxSI41IxnnNcAAuAE2S86DBefM0NwTAM4xeW7h8YJyd0DAuAYxr/G4Xxf48bgmEYxq+s3T+FCHifG+JPeBvgoYzDneKV95EyDMP4H+dhKPIxB0u4KVgAHD7zf1C8vsANwTAM47degLMwDBWYjQXcGCwAakjFI+AEPwzDMIHACKTAI0TAXBYAPPMfJ14f52eCYRgmYDgdw0ClhOawAAhk4+8V83+GYRgm0EgJdBEQuAKgxu3PM3+GYZhAFgEBvBwQmNsAKeDPi2e47zM+++BabLBY7eJdHFbbIe+HHlb5Dvlupf9JPPA17/ToW2rf/4oXXq9XvosP4rW65t1L79Xi3SM/17zXHtX07j7k3S1/zjA+ZAn/g3Gy2BsLAL+GtvpZ8DL3eEbrB1MYd6vVIQ+LLUi8B4mfHXwXf2cJqjXkGiIEQ7XXJYVAdTW9u2rePfReJQ/6O4bRq9/iLjE5fIUFgP/O/DnJD6MVVhsZead4d9Z+dtR8Fu/aGvj6EAgkBDyVte8HP1fKzwxjokUMqGRBgSMAOL0vY/KjZrMH1xr6mnebrcbwc0LOP6dgJAQ8JAbkUVHzZ3cFuLIrY+CjGjBpgwNj5Kkp7PMb92zGsJk9zeSFwbfZQmrfg2uNPVNXakSBEANCCHg85fKdPAcMo5CRgVBAyP8FQE1J31ngqn6MSoNPM3p7SK3BD5GfZQAeU/9+Aq8HHjcJgXIpCORnIRIYph6hKoLD/L2UsH8LgFQk1Rr/ttyfmfqd4QcJIx8qjxqDH1oTac+YIAiqhQgoqxEE4l1+rnZxwzCnytZaEbDPXy/Q7ufiZiIbf6a+kAY/KEy+28ngCxHAaPCgC+FlDwoH6CBBIIy/u1YIeFyl8p1hToK2tTYkBX4ahOK/HoBUeeMu5z7MnLxhsUmDb7eH/WH4Gd/joBBwu0vlO+coYOrIl8KeXMECwHeMPyV0eID7LVPnB8JqrzX44WJWGSYj9hn/gXYWuMkr4CqRgoDzETAnyH+FXXmQBYDujMe/4MUb3F+Zusz0yYXMRj+AxYA42DPAHMda3oZxeJMFgL4z/1HidRr3VOZEqDH6ETXv9hBukACGdhKQCPC4iuU7wxyFM4Sdmc4CQD/j31y8LhJHIvdR5mjQ7N7uqDH6dmH8GeZw3LUiwF1VLL0EDHMIWeIYIOxNml9MgvzoxnzIxp85osqVUeIRtYY/gqP3mWMPikE1/cQbHF8jBqqK5bssiMQEOom1tmYYewD0mf2/Ll5v477JHD7bD5JGP1JG8TPMySJ3EbiK4GKvAFPDG8LujGUBYDYc9MccaQbniJSHlWf7TD1CCYbcVUU1h6uYGySQ8YOgQN8WAI9jAKqxkHsiIyP5a41+kDi4wA6jFi9cB4WAOHgHQYBixUA8JmPPWAAYyitwIg/LxafO3AsD+PmzOv4w/PbaTHAMYyQ1AYM1QoCLFAUc6xGL3rgTPlmMwnerlfTDe+J1FPe/ADX8NiccwXFwhiaI91jxZwc3CmNSX3TIAFOKM7Fa7fB63ewRCBwaohxNMBs/sAfAKHjdP2Chsrp2ZxSCHFGcsIfREgoSdFUVwl1ZKMsYMwGAj8YD+J4AqCnvu4p7XCAa/uhaw+/kBmF8QAhU1gqBAhYCgUEPXysf7It5AF7nfhY4kLEPkoY/mg0/43N91xnSUIpWV1UBXEIIkChg/BayTYN8amLlY7P/p8XrFdzPAmDwtDpq1/gTpfGnIj0M44vIAlO1tSasFpssV8wxAn5JMlIQjNmY6TN904eM/5ni9VfuY34+WIoBUs74nTFcfpfxS6g8sasyX3oEWAj4JWcJezWVBUB98TaCkIl14lM77lv+S42rP0ZGVDOMv0Mphl1VNUKA8Su2oBG64Ba4dP+ivrEE0BuvSFXF+CXkHqXtfOTu53V+JlCQ8S0yqNUBeKs5h4D/EI8SxGI2prAH4FRJxXni9QfuU346ADpj4BAHF+hhAhmKC6iSywL5HCjoP5wv7NePLABOlpsRhMbYAC/acF/yIyxWafR5nZ9h/srB+AASA+Dqgz4+zmEbMtAJ7+i7FKD3EsC5eFG8juae5D9QoR5nSILcHsWFehjmr9AzUVPEipcF/IA4RCASs/UNCNTXA/AYhsOKGdyH/GVgcyAomGb9sWz467NdLVY4bY4/DoctSL5HOSMQGxyN0KAQ+ecgq10cQfLvHbQtzUr/ruY+VFGFu2o3qjyuv3x2ifdSVxlyyvNRWFks/67KU4VK8XeV9O6uhIdnqcqgyoOuyjy4KvJZCPj0jcQIPK7n1kB9N1db8Qz3HP+A9vEHBcdysZ6TJCwoVBjzKEQ7IxEXEiONe7OIJCSFJyAhNF7+nH5G79HBkYh0hMMmhAGJg3oZv4SRJ0NfUlWK/MpCKQboKKgswv6yXOwr2Y/0kizkVxRKsUD/hj4Xi3/PnJo3gLxlNnuYEAF5MpkQ44s3UtqyPuwBOFFS8ZB4fYp7jo/3e1mwJ1bM+uNgqSdj5M+Q0W4T0xwto5rK96bCyDeNTELDkDg0DI2Txt+pedEjd7UH2eW5yBVCILM0GxnF+7G7OAPb89Ows3Avtubvkp4Fpm54hQBzVeaiSggBDhL0SR4Wdm0CC4DjG/+2oH2UjG/P+p3RcAjDTxXSmMMfOosw5tFoEtEIfRO7oVNca7SPbY0GIbHy5zST90fIa5BbkY8DZXlCCKRhQ+5WLN+/DmmF6eLnBdLTwBwbj6sUVUIIcO4An6SdsG9bWQAcWwB8I14v4b7Cs35/wW61oU10zcy+fVwr9Enoip4JnaT7noE0/iuEEFiWtRabcrdLT8G2gjQZh8CwN8CP+FbYt0tZAByN8bgYXtFIjG/O+h1RCAqO47V+AbnuhzcdiN4JXdA2pgU6iBl+hIO9IScCBR5uztuJ7QW7pTCYsWcBdhTs4YY5DLerBK6KXFlxkPERLGJyOw7fsQA48ux/g3jtyL3Ex/q01S7d/VS8J1CL9sSHxMgZ/shmgzEsuT9aRCXLnzGnTl5FAXYXZWD23iX4bfd86R3ILsvlhiFvAO3YECKAlgW8HFvhC2wUdq4TC4C/G38O/PNBaI3fERwvZ/+BBgXq0Qx/YFIvnC6MPq3pM+rZX5aDGbsXYEnmaizNWoNNeTsCvk3IC1BVkSNjBBjt0SYgUA8BkIom4nWnOHiDuA9Ba/1k/K224IC5Zlq3P6/VCKQk98OApJ6IC47mjmAiFFg4f99yLNq3Et9tnYp9pdkB2xbVngopAig2gNFbr4mjpbB76SwAagTAO+L1Ju4XvgHtTybD7wiJhy9VlD5ZaL89Retf1u5sOeOnLXmMfhwoz8PaA5vx9ZZfhChYgfTizABsBS+qynOkEKBEQoy2vCvs3s0sAB7FANiwkPuDb0ABfmT8KV2pvzOq2RAMa9ofV7Q7FzHBUXzzfQhKQvT11l/w+55FmLJrdsBtMXRXFUkRQIGCjKZ4MBBPYFFgC4BU/Cxez+beoD+ycl9IA9j82OVPwXtXtD9XBvLRrJ/xfVbsX495Gcvw5eafAipewENLAuUHZHEhRkt+EfbvnMAVAONxPryYzP1AbywWm3T308yfPvsbtD1vSOM+uKHzpdLoU1pdxv+gVMaUeOijDd9hbvpSmX/A3/F6PTVxAeU58jOj2+CKCzDOvHL35gqAVCwWr/24F+gLBfg5hfGnIj7+BgX0XdhmFK5qfz66NmjPNzuAoLwCn2z8HpO2T5dbDP0dKipUKUQABQoyWrFE2MH+gScAxuM6Mfv/iO+/vsj1/pAGsoSvP9EupiVu6nqZXONvFtmYb3QAk1l6ANN3z8M7a7/E+hz/zkDudhXLJQGOC9DOCzAG4/BxYAmAVGwUrx347uuJXO8PbgCb3X/W+wcl9cL1nS/B6BYpssIewxyk3F2B3/cuwnvrvpKBg/6Kx01bBTkuQDM2CXtoSgI8cwTAePxLzP7f4PuuJzTrdwrj7y9Z/Sgl73UdL8L5rUfyzWWOC2Ub/HjDd/hp5+9+eX2UMbBSiADyBjDaeAFuwzi8GRgCIBUUituS77pmfVAG+wnjH9LQL65ncOPeuKvnGOnqZ5i6Mid9Cd5Y/Rmmps31y+urLM+WIoCDA7Vgp7CLrfxfAKTidvH6Kt9vvbDaHHAEN5TZ/fzB8N/a7Srp6rdxRULmFJm9dzFeWfUxZu7xv3QllDWwqiIb1Z4qvtHmc4ewj6/5twAYL5SOFy34XuuDzR4iZv4NfT6f/4BGPXBLtytxYetRfFOZeufXXXPw7rov/U4IyDoC5dnwuMv5JpuJBbswzljPuLECIBW3idfX+U7rgz9E+lOq3gf73IzL25+LYJuTbyqjlImbf8J/l72DnYX+U6KYdwhow1hhJw2LjzNaAGwVr234Hmti/B2Rcr3fZvfNiHhK4DOm08W4q+f1aBASyzeUMQxKKvTq6k/kroGccv+IqPe4y2RcAKURZkxjm7CTbY06mXFp3VJxg3i9nu+vHpC73xmSKN3/vsjFbc7EK6ePw5Xtz0NYUAjfUMZQHDaHzB5JcSblngpZhMjXoSJfsrKn141qTyXfZHOIQwr2YjZW+ZcHIFVeUHe+vxoYf2eMnPlbfdBd3jm+HR7pNxZntRjKN5LRhgX7VuCxBf+TqYZ9HTL+5AngXAGmsVrYyx7+IwBScYl4/Ybvqw7GPxbOUGH8rQ6f+t5OMeP6V7er8J++tyLEHsw3sq6DurcalR4XZu9dhCJXKUqrylBYVSz/LtIRjvCgUJkciXImUFtbefdEnXFVu/Hyyg/xkjioGqFP95fqKlSWZcsUwowpXCrs5rf+IgBmidcUvqfm4giOkzN/izXIp773aU364rH+d6BPYle+iYewMnsDlmetw+a87dhVlI6iyhKUuctR4RYzOE+VNPiuapc0TJ5qDzxeOqrh9XqPMhhYpOG3W22wicNOeSGEGHDagsTP7HKphYIso4Ij0SwiCe1jW6F7w45y9wXzJ+tytuCpJa/LXQO+jFf0HZkroCKXb6rxzBZ2c5jvC4BUafhn8f3Uwfgn+FR2Pwrye6jfbbipy+UI8pOshHVhWdZa5JTnyap1G3K3YWveLuwtzkR2ea6cYZJR98Jr+vckwUDeg4YhcWgS2QjtolugY1xrNAyNQ1xITMCWVf5k4yQhBF5DVmmOD4sAtxAB+1kEmMMwYT9n+7oA+FK8Xsb3ko1/XaA1/vED75aFewJlNj8vfRnW5mzGlrydwmgcQFFViZzJ+3TfswUhPCgMjcMT0C62JTrHt5U1GQJFFJDxf3Des5i8fTqLAKaufCXs5+W+KwBqtjNs4fvIxv9EoZnkI/3H4rZuV/v1fSFD/8P2GZifsVzuJ8+vKJLu+kCAlhNinJGyEuOApJ44u+UwRDrC0Cmurd9e8zdbp+DBuc9Kbw6LAKYOtKvdPu+TAuB58Xov30OzjH9srfH3jTX/gcIYPHfaf2Skv78xP2MFtubvxLS0eViStVoY/ELuoIdAgYj9GnWXdRto+YDSOfsbaUXpuH/OM7L8sG+KAFetCODAQAN5QdjR+3xPANwBJ+KQTc8230PjkVv9QhPl3l5f4J5eN8hAP3+KPidj//32aVidvRE7CnbLYDzmxDwEraKaokdCJ1zQagTOapHiV9f30soP8MTi1+Cu9r0iPNUkAsqyeIugcRQhFw3xKpQkZlAnAB7DWFiNLWzAHDT+0TLJDxX40R1a438x5WG/mPFtyN0qZvbFeG/dl1i4b6UM1jtaxD1zogOUBfEhMXKp4OYulyM2JMovlgooX8B9c57GquwNvicCaIdJOYmAAu6ghjQ4bsfjalLoqxMAqVghXnvy3TN49uSIRDDN/G3675W/qM0Z+F/KI4h2+q6TiIz+zoK9mLFnAX7ZOQsHytk9qpLY4Gic03KYXCpoGZ3s02KgzFWOhxe8gA/W+16KlGpPBSrKsjhtsDGsFPa0l+8IgPEYDi9m8H0z2PgHhUu3vy/k9qdsfvf3udmnDf/326bLvd70mTGe9rEtcUbzobis3WifFgJvr52I/5v3X5mjwZeQtQNIBHABIfVYMALjMNM3BEAqPhOvV/FdMw4y+mT8SQToDFXue3nYo3IG54tGP6+8EC+ufB+L961CmbuCO54GUGbIngmdcG+vfyIxLN4nxQDtBrlz1njsKPCtCoNk/EkEkBhglPK5sKv1vjWq/gXAQ0iAA1l8v4yDcvoHhzaS7n+doSj/l4c9hrYxLXzO8C/MWIl31n2Jrfm7uMNpTMuoZNzY5TIMS+7nc0JgX2k2bp8ppnl7FvqWCKgqQkVZJhcQUk0VEjEB++t14ljvX3IEbhOvI/luGQPt76c1fwr805lrOl6AD854Fgmh8T5l+J9Z+qaM2J60fbrP7uEOJPIri/C7MKA/7fxdirVmkUkyI6EvQJkvL2t3jiw1vDRrrU9NQCwWW40XwMeWMXwKO7IxG/WqDuvfA5AK6rld+G4ZYv4RHNYIjmC9jSpt77u39z99plUpK99zy96RMzFfz8QX6FAmQso8+HC/sT5VS+KtNV/IDII+NUGtyEFFaab4xDtfFLFO2Nd67cT1KwA477+hUGEfWvfXFcrf/8rp43Bl+/N8oj3npC/BG6s/l4laqnkm42dS2YKhyX0xtts1GNXcN+JPyOs0duY4lLp8Z32d4gGogBCjjHqtD1C/SwApeBi89c+YmQ1l+QtNgEXTxDnkdp04+mWc0/J07duSXP13zXocE5a+Id3GXp7B+CVpRRn4btuvWJy5Cq2im8n6BDrTIbYVhjUdgPkZy3wmc6TNHgJQ1Ul3OXc4NbiF+f9JPw9ATeY/2gQdyvdILTV7/RvJtTcd6ZXQGe+OfFoMsk21bkfKx//Eotekq59K5TKBg9ViwaDGvfH4gHvkDgKdodwS1097QBaL8gUoGJCCAjlHgBLKkIvY+soMWH8egNG4RrxeyvdHtcIORXBIQo3S1pCRzQbjs7NelNv9dJ7xU732++c+zTP+AIXu+J6iffhs02TsKNwtkwrpGiwYFhSCC1ufIdNJb87boX3bUmAypSAnIeANkAJXBhIkptg7MBur9RIAKXhavLbm+6PywQqSbn9dt/ud12oEPj3rBVnRT1fD/8nG73HXrCewOHO1zyVeYVQIAa/oF9vw9dZfUVxVigahMVoKAYqnuaD1KCla1uXoX2CV0pBbrFbeGaCGYCEAPq8Xm1IvX2ccmorftJvvi+K7HtoIjpAGWn63qztcgNeGp8pgKx0N/67CdDw0/3nsLsrgjsQclaSwhnh6yP1oE9Nc2zwCd89+Ah+u/9Yn2rOq/IBcDmDqXbk2w3icctao+vEADMNN4nUU3xV10FY/XSP+x3S6BK+ePk5b4//k4tfx7LK3UVhZzB2JOSbFrlJM3v4bdhbuRZcG7bT0BpzZfCiKKkuwbL/+uQJsQWHwyqBAzhRYr1iwrz5yAtSPAEjB/8RrY74raiCXf03Ev02773Zj53/gpWGPaGn4v9s2FTdNf1i6eBmmLqQVpePLLT/LWIEoZ7h2QmBEs0GocFfKpSzdsdqdqK6u4kyB9Uu0EADvmS8AUtFZvD7F90PRw2MLlsZfx6C/27tfg/+e9h/tvtfK/Rtw9+wn8enGSajiICTmJHFVuzE3fanMytc5vi0ah+vlgRuW3F/GsSzct0LvyaqYuFBgIG0N9Hrd3LHqh8Zi4v2dEAGnlHTh1AVACm6lvsj3Q8WTY4UzJAFBzijtvtpdPcfgyUH3ajfrf2/917j993FIL+Z1R6Z+yC7LxZebf0aVx4W4kGitvAGnNemLEDHDnr13ieYTGQcNaHC7qXIg77qpJ/YLATDHbAHwsnhN5HtR/zhC4mW2P924pesVmDD4fu2M/+2/j8e3W6fwnn6m3qmunWnPy1iOQY17aiUC+jfqIWbWXizQ3BNAXkyOB6hXYoUAeMs8AfAousGKVL4P9U/Nun+iduv+N3W5HM8N/T+tDD8FbY2Zdj/28qyfUQwVhPp002QE2eyIdIRpIwSGNOnjE0WEaEmT4wHqjUQMwWTMPfkKgadmXU7HLWD3v4KHxCmNv27r/pe3O0dG++tk/MctfBlvrf0C7mqe9TPGQOvu5HLfWpCGbg3aayMChjcdKFMGr9i/Xtu2+zMeoEx6A5hTNRbIPJVlgFMTACl4Ubw24rtQv1DQn27lfS9qcwbeHjlBplDVgelp83DllHukCGAYM6CkPN9um4oW0cloH9tKi+9EmTh1TxZUEw8AuF28LbceiBIC4B3jBUAq2oOj/+udg0V+oNGeeiro88lZL2hh/Mngf7jhW9wz+wmUccERxmSoXPQPO34T75VoEBqrhTeAntftBbuxMXe7tu1WEw/g5qJBp04jMRH/SoiAHGMFQArGgJP/1PNDESqj/imPti70aNgJE0e/BEetajfb+D++6DUpADh/P6MTizJXaZU86KzmQ2WiIMpnoCcWmdq82lPB9QJOnd0nmxToVATABPHanNu+vp4HC4JDE2F3RGjzlZpFNsZ3576OeDGzMZtlWWtx3dT7sXz/Ou4rjJaQsf111xz0SuyM5AhzV0ZtVhvObjkMs/YuRlbpAS3biyY6FjHu8VLAKeMUAuAj4wTAQ0gQ/+dr3O71h0z1q9GWPyo+8o0w/jqsbU7c/COu+fVe5Fbkc0dhtIZSCX+1ZQriQ2LgsAWZ6g1w2hwYnjwQk7dPR4lLz613cimgmrcGniLNMRBvYR5KjREAw2XZ3wu43evrIQgTs/8EGR2rhTK3WPHVOa9gSOM+pn4PcvlTudb75z7De/sZn4FyBkxLm4twB6UQNjcuIMoZgZ4JnfH9tqna7pSxCqHkcfNSwKkZEWw4mRLBJycAUkAbwTtxq9cD0vWfAHuQPq5/yu1/cZszTTf+zy59G2+vnch9hPFJlmSuxv6yXLSPbWmqCKDliNbRzWS+DC2HQDHx4aWAU6ZKCIA6l4g8WQHwPmjdgTllHMFxWrn+7+9zM+7sMcZ043/7zFTMTl/CHYTxabbm78LK7A3ok9jVVBFAS3mh9hAZE6DlBFYuBfCugFPReUIAPKNeAIzHcPF6E7d3/XR6Z0girJq4/s9oPgSvnp5quvGn/f2b8nZwB2H8AgrCm5o2FynJ/UwVAf0bdUd6cRbW5mzW1BPgQLWnTAoBps44MQzzhQjYVZf/yVrn03h56199EeSMFSIgWIvvQi7Cd0ZOMPU7rDmwCedOvhlphencORi/IqNkP874bgzmmOzV+l/KI+ib2E3TCVGwHBOZk+QkbLP1JE4zklu6Pox/jEz6owMUrfzuqKcR7Yw07TtQCd9zJ9+E3HKO9Gf8k+KqUlz+852Yn7Hc1Gf99eHjEaLJxONv30+MiTQ2MidFnW1z3QRAKpqI1x7czqeG1eqo7eR6ZPsjt3/PhubFdE5Lm4czvx+DwkoOAmL8mzJ3BS744Rb8tGOmad+hbUwLfHLW85q2kEWOjTRGMnWmR62NPmHqFgMwDBeCt/+dusoNiYdDE1fXDZ0vxX29/2na+WkgvHbqfajiLUBMgEDbBCfvmI7G4Qno1qCDKd+hVXQzmSdgjoaBtlQrwAsPPK5S7ix1109rMRtr1AiAFNwrXrtxK5889qBwmetfhzK/gxv3xkdnPie34JjBlF2zMWbq/XBx0A8TYFAi66lpc9AorAG6N+xoyncYkNQTG3K3yZ0KOooAShNMpYOZOlEsBMCkE27nOv5yLv17iuji3koMi8cHZzwrk/6YNfO/aso9bPyZAPYEeHHnrMfxxaYfTfsOLw97zPS0xUc0TH8skzIqbfSJT0MfRRchFx7k9j01419T6c983hk1QRb6MYOZexbi6l//zdn9GEYwJW02WkQ1Qef4toafO9QejK4N2mPi5p+0axfaJk0eAPIEMCdMJIbge8xFdv16AGwYym178lC2K10U7XWdLsbZLcxx5izNWiONP8/8GaYGr9eLsTPHYbZJSXpoKfCeXjdoO2nSJUW6z1AHW10X/y8LgFPsyLT+bzatoptiwqB7TTk3lUw9f/LNKHNxti+GORQSxJf8NFZ6x8zgkf63o1+j7tq1C42ZvBRQZxQIAAuGcLueHFZbMIIc0Vp8lzeGP4FwR5jh56UMf5f9fIfcBsUwzJFFwNVT7pGlrw2fNFqseO30VIQFheo3eRJjJ42hTP3b6hML/05FV/G6hlv25HCGJmqR7//hfmPxQJ+bTTH+F/7wL+wvy/Ht58pigdPukAmTmkc1QZf4dmgakYRIRzgihKiin4cekmAlrSgDq7I3YnvhbuwtzkR2aY4sy+r28PIHc3Rig6Px84XvolOc8TEBH6z/BvfMflK7Nqksz0ZlWRZ3jhOnm7Dbx1WSJyoAbhOvr3ObnoSytochJKIprNYgU7/HwKSe+PGCdxFk8HoaGf+bpj8s330NypqWFJGAllHJ6N6gEwY37iXrq59qe8zLWC6OZVicuQo5ZZz5kPk7baKb4+OznjNFBFBejh80qxxYXe1CefEeeNycG+AEGSvs9hv1JQA+F69XcpvWneCwxrLin6keCJsD8y7/Cu1iWhpu/B9Z8CJ+37PIdwSb1YpOYmZ/adsz0SehGwY06qG0fRbuW4mvt03B8sx1MkEMwxyEigdNGHyf4SIgs/QABk68BHkVBVq1R1VFLipKM7hjnBhfCLt91XHHuxPriXhBvEZzm9aNmqQ/ibCYtNf+IOT2v6C1sSUcyLh9sfknfLXlF5+4Vw3D4nBLt6vw/Gn/wYN9bkG/xO7K90dTZbheCZ1xbYcLcW6r01HoKsGOQjHLqebtkUzNEhIlDEqOSDS0iiAtZ9Gy1rS0uVq1h9XmRLW7nJMDneBtxGy8fOoegFQ0F6+7uD3rTkh4E9OrW9E69e+Xfi7d2Uai61ri4bSKaYbrOl2EEckDTXG3Hkk4vb7mU3y/bTrKXRwwearYrDbYxUGiyu2jwip14F24p6ex2/Q83mpc+MOt2qUKdlXmobyEq4WeIC2E/U47VQFwuXidyG1Zx9m/I0IIgGamz/6nXfyxrANuJFTZb+R312g94DaLaowHet+MHg07amH4jyQEXl39Kb7c9JOYBXr5gToGJG4bhMaiaWRjmdSmSXgiYpyRYiYbjmhnBAYl9ZZLLUVVxbLgVLGrFJml2ViVvUHOsrPLclHhqtT2+ihb55SLPlC6HHUkNuftxGlfXYZKjz4zbq8QJuUlu+Gu4sJhJ8AVwn5/eaoC4CXxehe3ZV1n/8mm71+9ruNFeOX0cYYbrvMn34ID5Xla3peo4AiZ9GRU08FaGv7DoXoJt89KRS4HC/7FIDYIi8XApF4Y0/FiNAiJOaV7SX22qKoUn2/+Eb/vXYj9JQe0E6/xIbH48YK3De+zTy99E88sfUszL0C+EAF7+UE4Pi8L+333qQoAiuDqz21Zl9l/JELDm1L6P9O+A61fL7ziW7mWZ6Txf3DefzEvfZl298Rpd+LGLpfi6vbn+4ThP7xdn1vxLiZtnR7Qz1W8mOWf03IYLm93rvLgzA83focfd8wQYkCfravkrXp9+HhD+2+Vx4WUr6/UaxePtxplJXvgripiY3NsFgv7PeBY/+DYQYBfi78/gLegS+F6H4H2/Nvs5ibUoKQeRpYapQHiqy1T8LWGQX9Dkvvg4zOfw1XC+BsZTFVf0HembWHxYXFYkLE84J6nxPAGuLf3TXi031hc2/EiQ4IzRzUbgtOTB6B9XGtsLtiJokrzXc5ZpQfk2nzTyEaG9WOKoWgT01yvWgGyeqmXBcDxScJteArfHH0N8dibwjeiD+peMTCwZ/9BEbA7osw1eE364LzWIww957b8NLy88kOt7kVIUDAeHXAHUhr39blZ/+Ec/P603v3EwlcD4lmKcIbj4X634bTGfUy5f3ROOgbVls19YN6zyC8vNLVNPtrwHUY0HWRoe5zWpK+sHfLLrln6jLNijLUHFcDt4liAY2CtteGLT84DMAwXitezuB1PHIeY/dtNTKdJiX7eHvEUmhhY4pNm/1f8cjeqql3a3Ie+Sd0wcfRLcuDyxVn/0WamUY5w9EvqIcsp+zPntxmJt4Y/gdEa3D86Pxnckc0GwWOpxprszaZ+n6lpc3BWi6GGtkuXBu3wycbvtangSVk5qYiS28VegGNSjbWYg6UnJwBSZAbA7tyKJ4YtKAzBoQmmRv7/o+1o3NrtKsPOR8b/4fkvYGu+PjtF7+t7M+7pcb3Pz/qPZow6i+uKC43Bb2nz/e76aJ3/s7NexJnNh2h3/6jtz2o+FP2FAFuQucK0ZQGqGbAuZ4vMIWGUCIgLiZFprBdnrtZnemsLgsddBq9GEw/tsCAbszH5ZAXAE9TvuRVPDGdIA1Mr/oXYnfhUDJ5RzgjDzvnllp/lnn8dCA0KxtujJuDWLlf4zaz/aATbHCh0l2Jjzja/uabBTXrjg1HPyKp0Ot+/5pFNMLRJX+yvyMXWPHOEb0bJfiRHJhm6NZCCED/f9APK3HpU85QTLW81LwMcG7sQAG/WXQDchzA45BZA5kRm//ZgOOXs32bad/hPn1sxumWKobP/MVPvR7XX/H3qLWOaYvJ5b4mBuV9A9DcykK2jmmJp9lpkl+b6/PU81H8sxna72me8NtT+7WNaolVMc8zau8iUTA1z05diQFIPKUgMEZ1ighHpDMdUjTIEWqx2eNwlQgdwga2jdVX0xvNYiCO6SY7uq45k13+dZFZQFKxWh2nnbxGVbLjr/7pf79div3TPxM747MwX/NLlfyzoet8e/iSCg5w+ew1BNjs+OPNZPNj7Zp+7f/R9SbRMOv9thAaFGH5+Et53/D7e0C16Yzpdgs7x7bS5BzTm0tjLHINj2PKjC4Bq9OCWO1EVGiT3/pvJfb3/KXN4G8Vnm37AtoI009s+pWl/vDZsXMAZ/0ON0H9Pe9AnvzsJl6/OeRUXtz7Tp+9BSpN++P68NxHmMD74d3dRBt5c84Wh53y0/+16Tb7E2Gsxudqq1hzDlh8rWq0bt9wJzmJEB7TZQ0w7f6e4NjI5ilHMz1iBt9Z8bnq7j26VggmD7g1Y43+Q3g27YHByH5/6zuHOMEwWM+dTLa+sC7QW//MF7yE+1Pjsn59unGRozv4zm58mtxrrAo29QSZPwDSnW90FgJcFwAkr0KAIU89/Z88xsuCJEZC78b65E0xf9x/ZYgge6Ts24I3/QS/A04Pul+50X4D290+/6CMMSPQvJ2PPhp3w4/nvyJ0MRkOFt4xcCvh3zxt5DPYVvCcjACzoyi13Ah1PKE8z3f80+NPWP6OYvXcJNuVuN7XN+zfugfH972Tjfwhd49vhDiEEtX9erHZ8Ofplv713dF20jdFpNzYeaEfBHkza9pth50tJ7qeVF8DscVhrjmHLjywAUtFRvDq55fRXng/0uUkWRzFq9j9+0SumXm+Xhu3w4mkPsfE/Ape0PgNRwfoOghbx39fnvIrBjXv79X2g5YCJZ79s2HN5kP+t/ABrDmwy5Fx0bXf3vJ7HYt/AWWvTT9gD0Jnb7AQeAluwqaqze8OOMlOaUcb/sQUvmVoatElkIxn1zsb/6LPPMZ0u0vb7PTXkXgxvOjAg7gXFNjyf8pCh53RXu3HfnKcNWwqglMQDk3pq5QWgMZk5cZt+NAHQidvrRDpcBKwmRp/e3v0amRveCPYU7cOMPQtMu1bK6//12a+w8T8Ol7U9W1Y+1I0rOpwro+UDif6J3XBTt8sNPefSrDXYlLvTsPM90OdmfSZkcjcWewHqYtNZAJwsFoupLqcOsa1wcRtjtk/RjOLeORNMbe53R05g43+CXoBrO12o1XdqFtUYd3S/NiDzNFzf8WK0im1m6Hn/b/5/DfMCDEseoNWSjhyTLVy89tQEgOXI6wXMXzuamWl/b+h8qWFrjDN2L5SpR83i9p7XomVUMne6E/UCtDnb8PXno87KxGD83sinAzpPw9unPymDH40iuywXPxpYLOqmLpdpNC6HcyxAHWz636VSqiwRzNUVjkNwWGM4gs3JV94gJBYrrv7RkJz/NJMY9e0YlLhKTblWSvSj617/wqpirDiwHhml+7G3JBPp4p1+FuuMRnxwNFpENsHopinis/F7w/tNvAibc3eY3kaU4pey/AU6r635FA/Pe9648cnuxO+XfmbIc1PursDgL/+B7QW7tWjrqopcVJRmsJH6O0HCvv8lZ/KRZGl7bqfjzGpk+knzVOaYzpcYVvDnw/Xfmmb8Y0NjtDP+2wrTMGffUvyWvgDr8rYisyxbGn1vZZEsTAKKCTkYKBkchTZRLXBe8+G4vfM1aB7R2LDvSaVrzRYA7eJa4pwWKTxgCIY16YcuDdtjnUGlhCvclXhxxQd4f9Qzys8VYg/GNR0vxLiFepSOobGZxujq6irueH+37ev/YstYAJxEB3OEw2ozJ++/U5z38nbnGHKutTmb8eGGb01r5+eGPKiN8d9RtAd3LXgSfb+7CLfMfRRfb/sRm3K3oNRVhmCbE5FhjRAV0QRRYQmIikyWR4g9BNvyd+CFVW+j//eX4HPx/xjF2S1ON30ZILX/XRy3UQu1w/gBdxl6zu+2TpVZO42AMpHGBUfrMUETYySN0czxbfvfRwgL2nE7HRubibP/C1uPQutoY4KKnlr8umnFfkY0HyQDHc2mxF2GJ1a8joGTLsMrK99EVbUbYcKwR4rBLkocoeKzQ8z6LUcIPKKf07+hf5tdnoerp43FC2veM+R70170xpGJprXbmS2GollkEg8Wh0BbA89vM8Kw83nFf08sftWQgMDEsHhcIMYmHqM15gi23XqEXsOS/VgdSwz4Zgb/XdfpYkPOQ4PGtN3zTLlGKhLz+IC7TZ89frD5Wwya9A88tmACsssOICa8EYKsdjmztsBSh+fOgihnOILsobhv3nh8tvUHQ74/1W83gyBbEB7rf7sWs3+XEGwlrjJT81ccyoO9b5FbWo1iceYq5JTnG3KuW7tdqc04TWO0mfVZtOQItv1IMQAsAI6pLMPFbM9myrkp17hRiTeeFLN/r0n5/h/qd5upxiO7PBf/mjcO32//hR4ahIc1kLUWqmmN/2SfPdGWYc4IFIpf+O9FT6NfQne0iVLryaF99z9um2F4+13b8UJT79+Owj2Yl7UMK3M2Iq0oA7mV+YgUzy3tJOka2w6DEnuhc6w5309uDex8Cd5Y9Zlh53xxxfuID4lRfk/axrTAua2G4ycDdyAcVXSLMZrGao+7nI3WMWy7/QgqoQ14G+XRlaXdvNk/Bf8ZAa0bTk2bY84A2aANRphYIW5mxkLcMf9xbDqwAREhcX+so9eHGPIKARHliMCBkn0Yt+wVfDHiBaXX0j+xu1yaMFLIUQ78Gztfasq9SytOx8trP8LXO6ZiX/428bAGw2JzwibuYTX9t9sFuEoQG9UcFzQfiX93vR6dYtsY/j0vb3uODK4td1UYcj6q35FfUWzIua7ucIEWAuDgWF2FA2y0DrXth/HXJYAJiBPGP45b6iizf3uoUJVhppybov7Pb2XM+uHLKz80rdrf04MeMG32+Nzq93DOrzcL478RMWENlQTR0bqszRaMX/fOwfo8tWuz1I6xIcYGZp3fepQp9++N9V9g0KTL8NKK17CvNAvRFJApBFykIxxhQaGIELPBqOAYREc2RUFlET5Y8wGG/ngVJqx80/Dv2q1BB9FOIw095/hFLxsSCzA4qRdaRjXVY7wWYzWN2cxBt4iw7RP+at//OsJVoRW30rE7lMWkyOqL2pyBaKf6ugMr92/Ab3vmm3KNl7U/G0Ob9DX8vBWeStw4+yE8sOBJVHlciA6NVyqAQoVBKijeJ2aqU5RfW6to4wZjm9WG6zoYW4uA7tcdCx7H2LkPS8MfGd5IPCdRUmgd2QvjlcsBURFJyC3PxcOLnsY1v98n97IbyS1drhDtZdxYQimCjYgFCHeE4ZyWw6ADNFabNWHTlsNsvPUwhcAC4BjY7eZ1pkvanGXIeV5Y8Z4pa/+hjhDc1WOM4ectEwP/P6bfiQ/WfoDIkBhhHMKg+uptFENisWBR1ippwFTS1MBI/NOS+2Bw414G3rtyXD7jbry24k3Rf8KF4Y+WAZfe49zBg39P/z4iOBafrf8CF00bi9zKQsO+O8XzGF1O96WVHxoj5NudLbfGBvqYrakX4BgCAGjJLXSUQdseIoNKzKBLfDv0a9Rd+XnIRTjdpMj/m7pcbrjrmAzB9b8/gJ+2fIew0IRa42HMee3OSKzO3YRtRWlKz0XZCI3iX12vNuxc5KEZM+tBTNoyCeFhDeGwOY5r+I90H0iMRYYnYOr2n3HtzHtPKdCzrtzT80ZD+/vc9KWGlAvuLMarXgl6FJS18W4AHMvGWw97Ilpw+xxNAJjn/j+v1Qi5/Uw1X2z+SfmM9EhEOsNxWdvRhp6TtoVdNeNefC2Mf3hEY0Pa9y8eDzEo5RSnY3OB2sptCaHxhlxPfGgsmghDahS3LxiPbzZ9i1BxfXaL/aS9ViQCSPiFhSdiihAB1/x+PzwGiYAGITFIijCuzSinx6cbJxtyLsoMqMWEl5YB2AtwVBt/uEVjAXBUJWlOJ6I1tSvan2vI7H+iEABmcEu3Kw2d/dMAP2bW/Zi4cSIiwxLkLNALY5c9LLWvaUXpio1MrCHXc1WH8wy7h5Sf4c1V7yJYXBslW6qPexck+kB4WCK+2Pgl3lhvzBY9aq8LDA4G/GLzD4YEA45ukWJY39N17NaUYwqA5tw+f0emljQpmpS2ciVHNFJ+nuVZ65BrUMKQQ4kKjsCFrYwdBO9e8CS+XPc5QkPiYTVzz6voV1RESCUxzmiZw0Dp8yFmWRe0MiYLHO3xv3/Rs3JQpxz09SXc6LdQOwU5IpC6/GWszTUmZ/95LYYbGgxY6irH9N3qg3xp19J5rUZAB2jsNit1u4Y0P5YAaMbtc4Rxmtz/VOTFBIxIr0kzgpdXfWzK9V3e/lxDZ/8Tt/+C11a/h+DwxJNaN65nZYmsshy5R10V/RK7KV+66tKgnQxqM4KHl76IvNL9iBAGpr7X62kZgXZo5JVk4ZFlxhS2GZDUE+1ijQ29emvNF4Z4AUY1H6LF+E1jNy8DHNnG/zkyPAkquG7j9jmSADBn9k8znOFNByg/DyUJ2WFCKU+qkX51+/MNO9/Wgl24d+FTsDtCZZSyqca/ZmiCq9oF9V9D7QlSkvsb0lqTdv2Gb3ZMQQht81O4UyU4OAY/7fgV3+z81ZDrOs3gra9ZpQewOW+n8vP0SeyKxuGJ0AHOB/BnU9Ta+sMEQCWactscaYy2mNZ5hjcdiCQDAqteX/2JKdc3qEkvdI03pvikx+vBrfPGIbMgDWH2MA2MP2T54AhHhOlV+05Nwlhk8hcj7t9za95HtasUDptab1ywvWYL27Or3pZldVVzbovhht+3zzapDwak6oBm5PU4qgCwcIrbw2299RBdkMwtc+SOY9Y2EiNcaOQKnJO+xJTru6vH9Yadi1Lvzto1A2GhDQAdjL8UAF5EBPn2zCQmNAqjmqnvp5N2/oZFGYsQGhJnwG3xIlKcZ0XmCkxOU19LYXDj3jIWxkgWZKwwZEvgiGaDNBnHQ9gLcARbf+jUowm3zFGUowlQEM3gpN7KzzM3fZkMDDKaNrHNkRhqTNbphftX4pkVr0njYfR2v2NbGg9Cg4wQl+pmPp3i1OfSp4p+b2z8Qs7gVM/+D20xqzAar6z7xBBvUU+D983TNtiZexYqP88ZQhw2DNUjuzwLgL/behYAmnaaPgldDUnj+uXmn025vgsMzBn/1Mo34Kl2wWl36uH6P8QDEK44OGlB5kqlyW3Oa6k+0nth1krMSl+AyOBYQ7NUUpzIsgNr8eueucrPdV5Lc5YBVAcD0jbmIY37aPG4sQA4tgBozO1y2CzAYjfN/T80uZ/ycyzKXIU1OZuMfxCtNgxPHmDIuSanTceU3XMQ6ow2NMvbiQmAaoTa1aZMLa4qEeLHo+j5sGCQAeWp39jwOTWW4Vs2g2xBcFcV46PN3yo/V5e4drI9jWRHwR7kVxQZIPZHavG40VhOYzrzp60/VAAkcbv8vcNYrcbvH6WZx8hmg9Ubx23TTcn7nxzZCAMaqTcclPnsmZXvAJ4qvVz/B6l2Kc/UV1JVqux3R4jZnWovDuVJmJu5XIhGc7ZsWuzBWLh/NXYV71V6HoqYjwqONPz63lv3lfJz9BbXRjuazIbGck4L/FdbzwLgOALADMj13yFWbV0mcv39uGOGKdeX0qSfIef5ZOskLMlYhDBnlHZ9q7K6Ck5h/FtGqI29LfOoq3LXLEr9quEve2bhQFk2nCYlcgkNCkdGwS7Mylis/FxNI4wfguekL1W+DJAo+vlAAzxFOo/p+gsACxpxuxymGE3qLEZUCSsSM8N9pdmmXN/l7c4x5PpeWPM+rEEhYvYfpF3fqnBVoE1Uc7SIVBvnkV2Wq+x3G7GFc1bGEniqik3z4FCKYKAa8zKXKz9Xx7jWhl9fXkUBMor3qx1HLVZt4gCsLAD+YutrBMAExMELJ7fMIW0kHnyz1CLt/1fN55t+MOXawhyhiHSor6o4a98ibDywHhHHqA1v3vMncJWJ2X8TNFK8BLApd4ey3z2wUQ+l3z23Ih+bCsT3N3HQrqncGIUF+1chRxhLlbSPMacY61dbf1F+Dlri0MUDYLEEeL47svVk8/8QAOVIBPO3jmLG+j8Zx24NOig/z4zdC0xp11bRzQyJ/v9y+88y177Fq1/fkqGIXg9aRqnPvL2rSN3adaOwhkq/+5rcLdhesBNOk4u5hNqDsS1/J3YW7VF6nhZRTWRiJaNZtG+l8mUAKmneMsr8XHMcB1BLrc2vEQA2JHCLHNZRbOYErVBaUNX7ZinxT1bZAVOuz4jMYDuL0zEzYwmCbE7tZv9y8u9xwRocjS6x6oUQpX1VgdPuUJ7Cdl3eZpSX5SDEZq5zUhplIdhWHFiv9DzntDwddpvxSx0ZJfuRrngZgPKa9DI414FuY7teM9wam38wBqAht8jhHgBzOgllBVM9C5i6a64p0f+EEWuBX2//BQfK9sNpC9Kyb1V4KtAwJB6DG6lN9ESzusKKYiW/m5ZyVK/LbyvcDdRjxb9Tsxp2bMjbpvQUdosdIUHmiJ2paXOUn6N/o+4BPbZrRsM/BYCXBYAOKpEMP7nKVLMoc6UpbRrqCEGjsAZKz1ElZte/7pkjt/7ZNF3r84rZZL+GXdE2qrnS8xRVlcBd7Vbyu6OdaresVVW7sKNoDyxWPUKT6NncWrhL+XkiTFru+H3vIuXnGJDUQ4/tgOwB+MPmW2t7dwNukUM7iAM2m/HrRI0jEtE2poXSc6zM3oBNeTtMaVda2lAdOb4kezVWHNgAuyNS0+fOS5vLcU1b9VUQp+6eq/ReqiSvohDbCnbDYdejjjtFsu8qzkCZW23abDNyARB7ijKUxwG0j22NxDDzTQ2N7VabAwFNrc0/uATAAuBwhWhC5ajW0c2UD6zb8ncZUuHsiALHgNKga/O2oLQkA2GauvkqPS60jmyKEY3VF0mZn6Fu65pqT06xqwQZpVlwaLKFkwRAiasU+8rUbp2ND44x5fqqvV7M2qu2KJhNtKERHs7jGz8LewHwVwEQD+YQhWhO51Cd/If4ddcc09q1eaT6xDGb8neKG+iEjoU/KdVrZXkezm8xQgZFqYZSvarCqTgwL7eiAK5qlylR8UcWABa4PG6leRWI6GDzPFc/7Zip/Bz9dIkDYAEQzwLgqB4Ac9Ydeyd08elZ4fFIVuwBKHdXYF3uZliCQjWM/QcqxPezB4XgvOanKz8XxXkUVRYr+/00m1NJRilFpVugi5IjD0BldSWyynOUnifUxC1qG3O3KV8G6KtJPgCrLeDT3hwiACyIZbNvbuegsrCqk2WszdmMA2IGahaNwtXGmtLWxrVCAIRous+3ojwfw5sNw5BG6ndCLM1aC0+1uuJHQYq3q5W6ygCNZBx5IqgscX5lodLzUH0Fs6Cg0d1F+5Seg3IBxAVHswAwv0PH/ikAvIgDU9Mu1iBTOkeziCQ0i1RbkHF62nxTB1DVD/7WwjQUVBRos258KBQ8FhIai0d7/ssQt/asdLW561WnV/ZquIZDVRVLVQcBOiJMvcZ5GcuU/v6Y4Cj0MsDTeSICwGLVc5uwIXgPzQRoQQyY2o7hMCVVZO9EI9z/y0xrV5vVqrzCIQUAihuoX/IfWj+uKsU1bS/EoMReyk9HbtxlWWsVCwC1HgC3x63VXaQYAKouSbNkpQLAaa4AWJ+zRe04YLGie8MOGjyStsDeCVBr8624ByHiSePciAcfdJP2HXeIVV8IZGv+LtPa1SYMRrDqwLHyfA2fMwuqXBWID0/EQz1vNeSca8UgXlJZqvY5URwDQAGTFs3uJGUDpDgTlYQHhZp6lVvz05Sfo01084Ae6zXxAISQ7bciHtFgDvEAmNMpOserTQu75sAm5JhoIJ0G7OcurCrWrj95UI3yijzc3XUMmoU3NuSc322fqvwclZ4qtf1Fu9mZV3pyHIo9H6rb9XgcKMvF/IwVSs/RNLKx8iBSncd6bRC234pyFgB/7RTGDzz0MCRHqK3GvDp7o6mDixHlXPMqi3SbM6K47AA6JfbC3V3GGHJOcv/PT1e/06NCcV9yyEJc+vgAZOZs8Zyq3v6oeonhuILVW43tBWq9AE0jk5AYZn7y2YBPBlROAsCOKDb7h3QKEyoANo9qgljFAXKUAdBsY6iagqpC6OQ4LnNXwuEIxyuDHkaYQa7dabvno9xVofw8VYoFQLBdPw8ApZYOtjsV95ly0690wT61HoAkYfybRJhfgNaMsV4rhO23opoFwB9GyqTAkHYxLZUH/2zM3W7y8KmePMX12usqeaqEIHmgx604vfEAw2b/H2341pBzUc0FlcQ49RqWqP+SFytGcYppI8Tb8Vixf73yczQJ10AAmBTwrRGRVlgRAcbUDtEquqnymeve4kyTB1C1EoCWNygGwKKFA8CCwrJsnJZ8Gsb3vsuws+4u3ofdhRmGnMulqMjQQRoEx8ButWmTCqDaWy3jEqiKo1oPgPkCQFUJ6UNpKca8QJ3w6SUAxAub/toOYdK+0BZRycoHrwLN1sfrG7uYnVnFA+012WCQkCuszEe4MGAvDXpEbh8zik83TTbsXCqzDBKUES/aEQG316OJB8Ar80s0CFGbM02HQNZyd7nyjIDtFBc9033M10cAWNgD8IcHwKQ1IdU58mftXax8+9JxRYjCrHQEBVImhJib0ZqMf7GrFA5bEL4Y8T/0iO9o2LkpxmPqTuPqPOwvU5sSN8IRjuTwRqisdmkxNlBWRVr/bxGhdieHEbPv408YvEgv3q/0HLQVMMRufhR+QMcBCNtPHoBwNv0HO4PxapBSfyaGqTVcuRqsjVd41FcgbCYGZ7OSANG++HJ3GTyeKryb8izObT7c0PM/vexN6ekxivwKtSlxKSNe2+gW8JhUufJvRhEe2b/iFFfry9Ekl8WKbLVxAMmRSYYFxuo25mtEuFWMlywADgoiEzpDfEgsGoSozcS8Pmer6W1b5XZh5t6FSs/RMYaqKRovAGjmXyZm/pVCaL04+DFc2/YCQ8+/LGsNfjM4zXNJVZkwitUK2xRoG9UCEKJKh50dNCvuGNNG+XmKKkugA1vzdir9/ZQWPNJhvvM5wNMBh5MHIAyMaWowxhkpRIDaWYUOAoBmp/tK1LoVByb2FJ262tDrIuNE+eErq0oxftAjuKfrGMPb9pnlb8NrcPBDhZiZz01Xm1q6fXRL0cB2eEyOA5ACxONG99j2ys9V5jJ/GyCRVpSu/BxJ4RrkAghsD0AYxQCEgqlVg3bDz0n7/1WnVd1TlKFF++5XXEu9k5ihNY9sblgktUXct6KqYrjE+V4a+gQe6zXW8DYlr8rMtAWmCLpixUlrOsW2QUJUMyGwzI1foeQ4VGOiT0O19Tpmpy9BpUePJY+s0hzl52gakRSQY74+Bg+hZHlYANQO5ma4gxLDGig/R3Z5rhZtTOV6VUJuxdFNT4OrIl+525hy1ReI83ir3Xj/9P/iri7XGd6eFKn9yIIXTNspt71gt9LfT0sAbYUAqDY5Ox5FxXcQYoRK2apkc94OpSWc64IRGQkpGZDZKYFpzLdokJbYJEIpBoAFQK0SNKMjqM6IRUaC1mt1YJMByYho/T3UGY0SuXasQjRTVTg3CoSYSQxtiEmj38UN7S8xpT1n7l2EjTnmJXhanLlK6e+n3RTd46lynNe04E55vysLMSSxF2IVJyfaXrgbulDhrsD8DLUppZtENEK4w9wV6JqJX4B6Abw1HgCuBCg7gjmdoLHijFgHyvJMX0M9iBHVCPsldMdl7S6AW8zOq+t5XVzO+isLUFqehwtbn4PFF3+H8w2O9j9U2E1Y8oa5gk7MWFVzVvJpCAmJNa2ORRUlPLI5MDSpr/Jz6RCrcxBa9tiSrzYQsKkQAGF2882PWWO/BoSQAAhm82/OWhCVx1UdCGN2DYDDxcgixbNGIrX3HWgS0xZF7tJ6WQqg3yGTKZVkIU4YoxdOexzfn/EGmoWbs4ZJxp8C/8xOG0t71lUnjBma1E/mA1CdevholFUVo0VMa6Q07q/8XDsK9PEAELsK1QYCNgyNR6TT/E1oARwHEMwC4A8VaHwKYEosEqe4CJARs7QThSLVtxao9wI0FYb5lcGPyhJuRa6SUxIBNPMsqMhFqasM13S6EnPPn4h/d7vB9Jn3j9tmmH4/K91VyteKQ+3BOLfZMHirXYZvB5TLDuK8KY36IClUrVCnct255TrVsgDSFacPDwsKkdugA3Hs10cAWBDgRZHNU4GUW1z1Xti0wr1atfP03fMMOc+FLUbiuQH/QXXten3NTP5EB4SarX2FJfvgrvZgSOMBmHzmW/jk9OfQUcwGzYRm3P+eMyGg7uc1bS+A3RYMt8FbPF0eNxyOSFzTTn1eh4152+Gp9mj1rKreCugQ41+UFrkAAtQDIGw/BQGyADBJBTrtDkQHqy3FkK9ZDYA5e5cqdxsf5L5uN+K7M99Em7h2KCzOQLGYxctwMm/tcchncvFTuuTCigIUCNEULAani9pdgs9HvCBn/ec2P930tqN2G7f4FfEd9bmnM/YsUn6OzrHtMLrpUJSU5xhWW4HOUuGpQL+GXTEsSb37f/KO37QbE/MV9zN6xlSPf+wBOAbC9pP0CfCiyOZ1ArvFjoggtVGwZq2dHo3iyhJsztuJTnFtDTnfRS1GyQRBn2/9AZ9v+wnrcjfLGT6FB3qF0T+488Mu7n/b6OboHtdRRp4PSuyF/gndtWo72if+2655Wn0nWrcmYaLyftJWsZs7XY4padOFSKuUnjPV0Fzc66nE3d3GGNKOS7PWaDcmVikOvKQYKEqExgLANBwsAEzsBNHOCATZ7IofYpd2bf3Jpkm4uM2Zhp0vMSQe93a7Ef/s8A9klh2QpZEzyvYjtyIfscExaBbeCElhCbIErepc76cy+39swUvafa/SqjJsMkDQnd00BUOaDMastN/gDGukeCyworg0C33FzP/spsOUt+GyrLXILy/U7t5WKS7E5LQLARAcZfp1BroACOhciIc+9EZDATCqA5vciuu2nwwr9q9XPms8ErTeSIdMMetDUFuNmf6glveSmLdvKS4xQNCN63U7FmetlIWlaPaoinJXqRDmwXii792GeBt+2vW74amcdZg8kGcnWgsPQMAmAgqysgAw0QNgwPpXVbV+HgBaBqAkNsyJGf/nV7yPrbk7tf2OVBPAiLgO2ot/V9cxqJSVCNUIZzLDlZVFuLnLtRjVZLAh7ffb7vla3lcSnKorTEbzEoDpAiCAkyEf2guMV4HhBpTD1CW16OG8s+5Lw4IBfdn4/7BzJr7fOlXr77kzfw/yKoxxYf9fj1vRJaEbCstz633mRjU5iiry0aFhV4zvfach10N5MbZotFX3LwLA65G7YFQS4dCgGG3gegDstA0wYOXPX1Wg8Z0gyIDtJ26vnm7jvYX7tMpRoKcA2I5nl7zlE9/1002TDTlPpDAYb572hIydKa4srLclNPo9Ja5SMSLa8frgccrzcxzkx50ztBXptC1RdRbRIA224AXsEoCw/bQNkAVATS/wOwFA6l3XwYV4fsV77AU4CpN3zMAtvz3sM9/3l12zDLuXgxJ74rWhT8HjcUujfaoDOBn/YvF7XFWleG7QIxhmQNa/GoG3FT9ouP3vIJRKe+G+lUrPQfUeAnHs1wIvCQCwAKgZBEzwACju/FRatNqrrwDYlLMd6SX7ufMdBm0J++f0B7W+d4dTUlmKtTlbDDvfzR0uw4QB/4FbGO5yV9lJl9SmvAK039/jKkFq//txt4FVHfMqipBRpG//pzwZqrcCauEBQMAuAUgBELBX7+8egFl7F2tvRO6a/Th7AQ5hXsZynD3pRpmFztd4a+0Xhp7v/3regv8OGYfKqhLkV9Y9BoFm/oXi/60QIuLpQY9iXO87DP3+/13+tvb3tFJxEDF7AEzFagUQsFd/+HBgNA6r2s5P6Wy98Grd6pnF2fhs8w/c/UDlfRfikp9u0zJ3w4mwev9GzNyz0NBz3t/tn/hg5EsymrywNFu2neU4Azr9Pe2OKSjZh3B7GN49/Tn8p8cthn5vyv0/P3259vdUdV/UQgAErgmkYsgsAA4OCoZ7ABR3frOrxZ3wzHH1F1pVLTTL+F/28x2ocFf69HW8s36i4ee8vt1FmDL6fQxrloLyyiJZtdEjszxa/jbjp7iYgpJMlFcVY1TLM/Hz6Hfwz/aXGv6dX1vzqU8s8aheAnDazM9EbwlUD4B4IOxigsgCwCwPgGIBoLpSW31BA+E1U+/F12e/YnhyILOh5Y81BzbjtpmPaZkMpq78ljYfa3M2o2t8e0PPOyChO34/7zN8smUSvtj2E6btnQt4hJg61MAIY2a1h2B0q9G4rNXZuLbdhaa0Ec3+f9wxwyfuZ1ZpDo/9/oqXBADDaEB6USYeXfgSnhh4d8CIADL+H278Du+u+dJvrol2nfxv5Qf4cNR/TTk/GXU6FmWtxMyMxcgsy5Y1N1xeF5LDkzCiyUD0adDF1Db6dPNkVLh8w9OjehsgO6DNxQ6LXCbmu2ACqtfXInVIslEHZu5egHaxLXB1+/P9XgSQ8X98yWuYunOO313b5G2/4Y5uG9AzoZNp32FAYk956HjfP9kwyWfuZaxTba5+X9rp4ncI22/VPkrMj3EpFgChQSE+1yZvrPoMCzJX+vXOANoud920+/3S+B8c1B9c8Czv7jiC8adyzpU+FOcRpThdOW1VZkzCSwIALAAOtobhAkBxcRdKNeyLLrb7Zz+NWelL/M6A0PV8tmkyRnx7Dbblpfn107R03xpxvdt4WDkEynmhWznn42FTnCWvSosCVwFrAqUAYB8MtYQJAViqC/UMbdJXJjrxRR6e97xfiQC6jhdXvo+xM8f51AzwVHhiyWvsBTjk/j+26H8+971D7MFqx0ANtrz6Q/DtSVJNAsDDj6dJHgDFnZ+22Fh9uNIViYCvt03xaSNC331K2myc9+Mt+HbL1IB6ovYU7sMXW35iESD4edcsbM7xvdoXqsshq95myB6AY+KhPAAsAGpkoPECQLH7y261wWb17USPLy3/EHf6aLZA+s5PLnkdV/x8F3JK8wLysXpt5SfIKstBIEPZHZ/xkaJOh0LplQc06qFWAOhQrjxQPQAWEgBeFgA1GtD4lRAjOr/dD3Z6Ls9ch5HfXYtPN03yCSFA3/GV1R9h1PdjMGXn7IB/tm7+7eGA9QLQdd804yGfjHa3WWgCodaDWKmBB8AbqKvgwvaTdXCDMUUFFlWqT9Rjt/pHrafSqnLcPjMVg5r0xnNDHtRymyAN9rSD4dVVH0v3t1GzNLrHDrsDofZgWV+CBtVKjwsuITAr3VWmr3HmlOXhyaWv45G+YwMq0VNN3McHyCz2zYJX1K/siuuVFFYWswfAPNx0d11gRB8wXgUWVBYpP4cO1bbqkwXpyzHkq8twXuuRuKfH9ejWoIMWA/203fPxxppPcUCRq58MfcOwODSJSES7mFbCkLZGg5A4mQOfgj2PtFbrrnZj5t5FyC3PR05FPnYU7Mb63G3YU5QhjHK+obPSKTtmo31sa/k5EEQA9Ylfd8/Ft1t+9dlrIOOveheAEWOgjmO/JrhYAPzRC4zvBDnlNYOwVeFD5m8CgKBsc5O2TpPu9UvanoVrOl6AAYk9DP8ev6bNxldbf8H0tPkorSqr/3tnsyM5MgkXtzkTF7YaWWfDSQP4Gc2GHNNA/bBjBnbk71by/Q/nxWXvoVt8u4AQANsK0vDEwld9+hpUpyqnGKiCCvMFAAJcAFSBESrQ+FAIcn9RHECwwoIY5Br2V2g73ecbJ2Piph/RKqapEAIXYkTyQKUGZkPuFryz7iv8Jmb8GYpcuzTTv6TtaFzd/jxl10K/l477ev5TioFvtwlBlaY+Un3M1AfwxdkOjG6e4rf9cvruebhh2oM+fx2qq5VS4au8ikLTr9OMsV8TqlgA/NEJjFeBbtHxSAQEh6oTAME2h9/fO/KiUGKdx+b/DxOC3sCIpoNxZvMhSI5ohJQm/U/pdy/LWoPthXsxL2MZZu1diMySA8rW1KOCIzC2+9U4p8Xphs6SD4qBS9qcgZ3iWmnr5bRdc2X8QP0/Z15pHKdd9JEWyzf1DRVCun76g9JL5es4FU8eKjyVvARgugCwoJJzAZqjAmkGm19RhITQeGXnUJ3IQzeoyMrPO2bKg7ZARjgj0Di8oSwEE+kMR4QjDFGOSMSHRMtaCYdmSqTBaE9JJjJLs5FVegAZJVlyrVyFITwUcvXf1PVy02sgHBQC57YcLr0CtDzw/vqvZRvUJ1SmmnZ1TBz9MoY3Heg3fY9KOl/9679RVlXuF9ejeuyokOMfewBMQ9h+KgfMyZjNEgCeKhRVqY2CbRTWEKuwMSDvKc3CCsoL5bHhgJ5pabs0bIfXh43XbjZ8UAyc32oEvto6BR+s/wbF9bhrhUTVP36+A++f8QwuaDXS5/vazzt/x5hp98Pl8Z9NVcnhjZSPf3p4AAJUAAjbT9FnFWz+zekERrjA2se24purIRT4eUfP6/D28Ce1doWTCHh8wN2YdtGHuKLDefUasEq7FG6Y9gA+3TTZZ/ME0Pf+Wgik66be51fGn2gW2VixAKhkAWAuFSwADnYCE4pSUB7srFK1WdK6NezAN1czooMjMfn8t/DkwH/7TEQ8fc+3hj+BmZd8ip6J9Vfml7w0t88ch499JMnT4cb/s80/4Kbp/yfEjP8ZkcYRCUp/f2bpAZS5zF8u8VYHbCocKQDKwZimAmmdWSVtopv5bEEgf6RpVBKmXPg+hjbp55Pfv2dCZ7w2LBWpA++q1zTTb6/+AmN/H+czIoC+552zn5Dlq/0Rio1pH9NS6Tn2FmWi2FXKHgDzKKdaAGVgTFOBqgUAzdwCLRBQV/omdcOXo1/2+X3w9P3v6XkDpl30MZLqcZa4av9GnDnpBny7baq2QqDG5f8Lzpp0I5ZnrvXbvko5AM5qkaJWAJRkopQ9AGaqvDKS8CwApAo0pxOoXgIg4kNi+QabzKgWQ/DS0Ef8KglOn8Su+Pac1zCyxZB6+51FFcW4cdqDeGzRS9qJAPo+4xa/gpumP4RCHRLYKIR2y6gmvThTixoJZo39GlBGxYBYANSqQDP2g9I2GK/ifZiUPpYxj+4JnZDa/06/zIBH1zReXNv9fW+u1987I20Bhn97DZ5d/pbpQoDO/+zytzHsm6vw2655AdFn40NilJ9jT9E+06+TxvyA9QAI20+JgErB1HYEFywKs/IdCUoHTEcDhbP0djEtsSBjBd9kE2gW1RhvnJ7q1+lvD15bq6imuOP31HqLhqd8ARMWv4m31k7EmI6XyERFRrajdPdvm4KPN3yP/PLCgOq3yRFJim2PF3uKMzWY+LkCORFQKSUCKuFEQH96AWCwAMityEd2WY5SAeCPGdd8gXBnGCaOfikgct8fzBvQPLIxrvz1HuSVFdTb76bf9eLy9/Duui8xNLkvbup8OVIUBVGS0c8o2Y+PN36PWXsXG1IjQUfaRDdX+vtp6bPMzev/piJsP3kASsBIqoUaNLp4bnFVqdwOo9JIJIU15JtrArRtLpDK3xIDGvXEz+e/i+um3S/TM9frs1JZgp+3/y6P6JBI9E3shsvbnoMWUcno2fDktyauzN4gUyB/s+0XLNq3CoUVxQHfd7sr3j5MFSl12AJIY34AU0KZALm3/6EGzekMu8XDoJKY4ChZLpYybzHGMLrVMLQUhikQIdHz8RnP4ZaZj2Jd9mYl5ygoL8L0XfPkQVUPG0U0FOdtI71diaHxCLY74bQ6EBIUjCGN+8h9+r/vXSifAUpBu680G2sObMLG3O3IKjkgkxIxByeGFnSOVytcqVqiDuORN5AFgLD95AEo4i5vrhpMK0xX+vspWpvy3h8oz+ObbACxodF4pO9tATf7P1wEvD38Cbm3n7b3qYSM997CffKYunPOX42ZxSKzF1IRourAXeutE7QFUHXf3ZafFtBjviYUWVHNHoA/O4M5inR7wW7l52gczjsBjOKZwQ8EtPE/VAS8fvp4We/AtEmOMPweMftn43/iGLEDYFdRuhbXataYr8fFo9gKKwq5y9cOFiapQRIAVBZY6WAc34ZvsAG0immGznHc1n/1BDyJhPB4bgwfoV2s2gyAJMbSNdgBYOaYrwXC9lvhZgHwR8f0VJmSFnJX4V7kV6q9DT0adOQbbACP/T975wEfVZX98d/MZCaVJIQEktBCIPQuXcAgiuCirL2XdV0bdt0VWYEga2/s2tDdv713sSHSkd577yGkkp5Mpv7vuRN2ESkp8967M3O+fO7MBCXvzb333fO79557zqB7ePZ/EhHwyYX/QpQtkisjABjRerCmv59OWWgdAbVOxl+M9Z5Q9otykQCIRAl3eWM7hJP2MMu0VcQDUnrBarZyI2tI58T2MvcC83vIS58cAxn16Zmo7ZYNOT3nVRaF7IRPGYTtN6OQBcBvOoVBe0I7ivdq+vvJOzohIo4bWEMmDRjPs//T0DKmhd8jBjL+hU4MJUVpGzqcVgC8CgSfCen9f6KQBMBLqIaJMwIerwqNYEvRLs2v0TGhHTewVsatSbI8j86cGhJHl7Q/Xx6RZNSEojlqLWL36OD0rPJYrwRk81+ibICEF8Xc9Y91ihpDrrsmb7Pm1xiW2o8bWCOu6nSh4bN/yqxW6VJby1Md0RHJDBajSqL1+X9yAKT4C6E81itBrc0Pq1UDReIvUrn707KQMZ1if1m2jAiYEp2k2TXObTMET658nRvZz4RZwjAmLVP36xbXlOGX7CVYlb8ROVX5OFR+BCYT0DomBS0iE+VsrmNcGtrHtkG7WHVWJ0gEvH7u4xjz9Z/8ljeA8Q/DWw3Q9PcftZdidd6mkB7rFVkBKPqfAPCCI8T8VxX6HENMJn2DApfVVMgH46L0czW7RpQ1As0im6Komhd8/EnfFt1kWFq9cLideHLd6/hizyxsKahdObLYYDH7Hmc3RbWjFKcuMcBZo4QQSEOXpu1xVYc/4PqMcUrUGQWnemH4RNw7/3HuQIoQLfpKZ42PANKJp0IFxp+QPwFQa/PNtT8WcvevrReP05ClIXKKWZe/RfOZ1+CUPtzIfuaP7c/X7VrbS/Zh9A+3YOqSJ7ClcDNiI5shPioJceGxiBEDOBX6HBeRgPiYVDGox2BP2SF8v2smbpj7EIZ/cw0+2vWdEqFv+yX3wMi0s7kDKUL7eO33/5WZ/Ysx3hvaUQALWQCcpnMYwZZC7fOej2o7lBvYj1jMZs0y0/1u9lSWjYuE8Z+/fw5iYpIRH5kkQ92eyqOa/j7MbEGcLUaIgZYIt0Rgcc4KXDfnfiEi/oyFOSsNrTsyNtMG348m4THckRTgvDbai7GVuRtCeoxXVQAUcPc3vnNQREDKDqglPZI6y1jfjH9IjErQxfmv0F6MMT/+GbuLd8uZvcVkqddRKvp/Iyw2xEXEIzY8FnMPLsSI767H7YsmYU/pQUNFwOND7ueOZDAmUS5qP1LbcZUdAFWi4H8CwMsC4Hjcbrsh1yVHQK3jAVBAlvYcrMZvDEzprct1Jq+ajh35GxEX1bzRZ6gp21vTqERYTWF4c90bGPn9jfhy78/G1WFyL/RqwZEqDRWykQmNSqlcF3YU70NORX5Ij/HK4D1eAJiQz4/A8erQTl4iul+XUpZuLNiu+XXYD8B/XNguU/NrzD+8HG9s/RQRkYnyyfXXbCwqLAJNYlriQHk2rvrlXiEy/gmXAZHRaBXg+WETZNY+xhiGttT+iPCSw6tR7VLA8FJmyFAXALU2/9gTxwLgNwLAIRSiMeepl+Ss0fwaYzU8aRBSz5DJhE5x6Zpf5/mNb8HjrEK4n7duSEqYxXeIt8XBZrFh2vKnMe6n23GkSv8FQTpFcX23P3KnMoix6SM1v8ayI+sUmf1Xh/YJgONsvk8AuJHHj8BJVgEM4NfDq1BSU6bpNZKjE9EiirOzNZYoa6Q8Aqgl6wq3YcmRVbBYI7SbEIk/4WYboiKT8OOu73Hl7Hukz4He3NHjGkRYw7lj6UxCRDy6NNNWyJY5KjQ/5aT62K4UtTbfJwAikcs1ckL9GLRUlVtZiM0anwagJddhrfpzIzcSPfKm/3RwIUrLcxBtjdb0OiQCbGYrYpuk4NfsJbhk1p26rwRQv7yp26XcsXRmSGpfzR1ZNxXuwN6SQyE9titFrc33CYCJKIIJNVwraqjEOQeXaH6NW3tcxY3cSFoLY6kldFZ/ed46wBIhHfe0hkQAXSc2Kgm/HlqMy36+CwU6B225qculiLJFcefSkbHp2udmWJ27SYkEQLwCAEhbP9EXCdB83NN/hB+F41VitWHZohZla38+O9YWjeZRzbihG0G6xsl/DlfmYXXBZth0PidvFiNEEyEClh36FXcumqT7KsCfu1/OnUsnYqzR6JnUWfPrLD68Sg3jL8Z0tyvEc98dZ+uPd7vN4cfhuDryug3rKHRcho4Eaj3Q6uHBHuyDp5YcqjyCI+WHEWEJ13l88Mo4A7Exyfhyx5eYuPIFXa9/TaeLEGWL5A6mA/2Su2u+/E85TpbmrFVmYuc14KSLYuSwAKiLWjRIAFQ4KrHw0ArNr3NJh1HcyI2ZKZu1PbZ2sNwn1E0GfLdj2wGRUYl4avXLeGfH17quAlzXZRx3MB24tbv2W4Fr8zej0lkV0mN6IAiAw1wvv1eLRrH48GrNr5EUlYCM+DRu6AZCTnNaUuosF9bf2LPx4RabuAcL7l08BesKt+p23Ws7XYyw2uRGjDZQYrD0eO2zRH6/Zx6P6Wpx+GQCIJvr5fedxSg/ADoOqHXWLJppXdZxNDd0A7FqHFKZjubBYMcpr9eL+Ih4lNeU4p4lj6NGp/PTFJUus81A7mQackXGGM2X/6uc1ViQvUKJ78v7/7+39SwATjv4uQzrMLRvtkSHVYCL24/0zfKY+q8AaCwAtF5hqI8IiItKxJJDS/DM+n/rdt27el3PnUwjKIiVHuJ/7qFlyKlQI8yMb//fxY1/UgHgxiGul5N1GuP2rvQ4DkgzgD4axwAP2r7h0daZSBUBUKsCYLZG4cX1b2JNgT4BXZKF6EjTYYk6FOmV2EVGX9SaXw78ymO5cgPX/2z9/wRAOA5yzajVab7bO0/zqIDEfX1v5oZuAFUarw6Fh1kNyUlxKppYo1FaVYgHlz2pS0x3EqeXsqOqJlzdeazm1yitKcf8Q8t4LFeN42z9/wTAY1IVuLl2ft9pjNoGKLaX4lcdtgHaxqYiJbo5N3Y9sbu03Q+3mtVL2xwT1RyLDszDuzv1ORVwecZoma+A8WMbCiE3XIdIoHT072CZGofLaAxnAVA7/3/sZCsAPg5w/ZyAmIEZ2XG+3j1bl5nW7b2u4bautwDQdhYsfTO8bqhk/sLMZlhssXhxw1u6rE5R3+zcrAN3Nn+Kqo6jNXf+I+apNvtXaDXNQH5j408UAPu5fk7ReQyC4gHoMdCOajsUTWzR3Nj1oLimVNPfnxSRgMjwODgVClxCDoE0g9x1dBde3vy+Lte8LINPqvhPwFlwW8+rNb8OxTL5RofJSyCM4Yqx/3QCYB/Xz8k6TyW8Hqch1y6oPqrLgySPBPJAWy/opIaWJEclIT2urRo51E/EbMWb2z5DTpX2mcSHt+wvDRfTeEannaPL7H/W/kXIrypSQ7SKsZvGcOb3Nv63AsDEAuBkUO5ol6HbAL/A4/Vofp2bul0mQ8AydUPrAa5ZRFN0iG0j+p96ebpibFHILt6DD3d+q/m1yFu9TVwqdzg/cEv3K3S5zkfbZyrznWns9rgd3PgnsfEnrgDs5Ro6xSqA0zgFuTRnDTYWbNf8OhR8ZUjLvtzYdaTEru3WjMVkRroQAHCqF7wkzBQmRg8LPtw1EyU15Zpfr6sOs9Zgp3dSVyRHJ2p+nR3Fe3VxXg6EsVtB9p5aAHixh+vnFJ2ItgF0mIWfDIfbiZl75+pyrb8PvIsbu45QlLO1+dqeiU9r0pKitsCjmAMT5QqIiUzAhty1mHt4qebXO7f1YO5wjWR8nxt0Wf7/ZPv3ukWMPGM/FWM2L/+f2sb/VgDYWACcWgBUCyVZYdj1P97+nTQ4WhNri8GQVF4FqKswq9F4eT4jLg0RUUnKDKi/WQWg4cNixbf752h+rUHJvTQPvRzMUOrqbjqcpiB/lZl75ijzvWnM5vC/p7bxvxUAE1EkFEIR19LJcRmoJCmc5uwDizW/Ds0Q/j5wPDd2Hdl6VFvNPCylHzrGtYVDwWVMWgWItMVi1qFFOFB+WPN+2TwqgTtcA3li6MO6zP4XHFqB3SXqnCZ38ez/+Ae2SNr4UwoAwoRdXFOnUpPGbQMQb2/5UpfrNI2IxTAdAoUEA+SfoSUx1igMbN7bZ24VPMccZrKgoLoYvxzWPmx129hW3OEaQFcx86dgX3rwyY7v1bF3tPzP+/+nte0nyzW6k2vqFAKAogIa2KGW5azVfM/52Gzrgb63cIPXgW1Htd81G5s2AhG2JnB51QvUKQcQjxPzspdrfq0uCe25wzWAiQPu0mX2TzP/H/YqlPpXjNV8/v/0tv1kKwAsAE6Dy2WcHwDtA7+1+TNdrkXewoPZF+CMHCg7rPk1RqQMRMvoFnB6FMxkJsP0mrCxaDtKHdqeBhiU0ps7XAPEfLpOCZVeWf+eUn3UyLFa0RWAOggAL3ZwTZ1OVVbAa+BMbOaeucguP6LLwPH4kPu5wc9AlaMaW4q01cxNbDEY2WoInM4q8QyrFxffGhaOg5W5WFOo7epUp6btlfz+Ss/+B96py+yfApbN3K2O8x+N0UY6bSvJSWz7ybYAtnNNnUYAuKrhMrBjUYatL3b9pMu1KADL5R05OuDpoABNs3VIeToubSRdDW54lKsDyllQXpWPTYXazh16JXVGlC2SO10dGZTSB+3i9PGb+GjbTBTZS9SZ/bP3P+pi21kANGgVoNzQ67+x8RNdjgQS9/X9ky8pDXNK5h7S/hz8ea2GYGirs4WhLVRuFiyjR7od2FayW/NrxYU34Q5XpzYx47lzJugy+6e4/x9s+4bH6KAQAFlwifFlG9fVadSlo8LQ0JJ0JPCLXbN0uVbPxM64p89N3OinQQ9HQJvZhvHdr5fR91SMCYCwCByoyIFb4+2x2PAY7nB14Iaul8hnVw8o69/OYnWiyMvQ7Q5e/v8NZNPJttdhBYD2CrZyjZ2mg3lEBzNYYf5n06fyHLYeXJoxCs0im3LDn4LCyqP4af9C7duh3SgMTO6PakeZepVgsSG3qlDzZeD48FjucGcg2hqpS8a/Y7yy/n2lvj+NzTRGM2e26eZT/O9buMbO3MmMZEPBNny7+xddrkXLiP8Y8iA3+mlYdmSdDqsAVtzV7VqYxLvbq5YvgFXcU54QAIX2Yk2vkxjJwYDOBG3bddMpd8IP++ZjxZH1PDarzxYWAH7uZC6DvUxfWvu2bqsAvZp3Rs+kztzwp+AXHRwBiaszxqJvUg9UOMphMqnjC0DJgUodFajU2DelRVQz7mynoWVMC4xNH6Hb9V5c/X+KjcsVLAD8IAA2c32dAa/X8I62Pn8rvt+jT+ANmlE8O/wRmE1mbvuTsK1wt1yV0WMVYFK/u0EnAsgXQBWHQIvZjGpXFarddk2vww6pp+e1kY/rNvv/bu88rM7bpN7sX8GImQqwue4CIEvuF9RwnZ2hszlor8lp6D08u/pN3VYBBqf0xfjeN3DDn0wPij/v6+QJTUcC/9LtelRXFSizFWAWf7xCkDg1fh48PLifEnL8S9IpXwIdf3153btKfX8ai10Onv2fhJpam17nFQAa0TZyvZ2hw4nZjstgh6yNBdvx1a6fdbveNZ3HokVUIjf+SZi5d47mQYGO8Y/+DyAjsRvKHaXKCCCYzJqvEOkldgMNco68s9e1us3+5xxcot7evxiLPRqvQAXo7GTjqYX7qTBhA9dcHTqdAvtN09e+DZdHn+iENMC8ft40bviTkFdRiOzyPF2u1TwyAc8MngCTKUy2vdEbAdIsC+Nv4S0iQ6DtOb2MP/Hkitd5LA4UTmPLT/e0sgCoo+pUYRXg2z2/6HY9yhNwVac/cOOfhH9t0G9Z9JJ258vYAJVV+YbPi+n8f5Q1GlEWbSP1ebwe7mQnMLRlP3RP1M/4f7N7Ntblq+UnrsI4rDANEABmrON6Cxzl+fzqf+uWiINmGvf1vRlJfCTrdyw7vEaXjI3HmHTWeHRq3h2lVQVS6huFQ/S9ZuFxiLVpG6inuKaUO9lxRIZF6Dr7J8fTZ1a9wWNwIHEaW35qAVCG9VxzdcMplKfRcae3Fu3Gmxs/1u16NOD869wp3PgnzoQ9Hry19XPdrtc8shm+uuB1tIptg9Lqo4YdDXS7nWgR1Vzzc/q5FQXcyY5jxnnTdF36f2fLl3KsUeqZE2Ovk2f/aIgtP7UAeB6U+J6PA9YBr/Q+Nb4DPrf63zIrl160jU3FXb2u5w5wAl/umKWbMyDRtWkHfH7Bq0iIaoYSe4kQAfruw8ujiM5KpMe2RkJ4nKbX0jrQUCBxSYdRyGiaptv1aGx5VsXZvxh7vQafxlKYzbW2vJ4CwMcarr86dkJnqeHhJ4vtpXhmpX4PKM08ru86DhnxadwBjoMSNX2w/VtdrzmoRW98fP50RFhsqJAiQL+VAA9lKPR60LlpuubXKqnhpV6iuRB7f+3/F11n/9PXvIXCarUEmC8sO28LNdSGm88g7VkA1BG3y67EKsC7W7/EZo3Tsp4oAl4emeXLCMf8l//b9LmuqwDEqFZD8eF502E2m1EiZsp6BQmqFn0/KiYZw1P6aXodqs8yFgBS3L035nldjf+Wol2YsfEjJWf/NPYyDbPhpxcAXqziGqw7TkcpvF6XoffgcDsxeel0Xa85OKUPnh72N+4Ax1HjqsGbmz/R/bqXpl+A9877J5pGJKCkurB2DNBWCDhd1egY11YIgAHa1qno21UOzvH+QN9bZFAuPcla+k/djhrXFRprnQ6e/TfGhp9eAHSV/5jP3dR1FcBZCWeN8asAcw8uxewDi3W95tkt+2Jc+/O4ExzHB1u+xcbC7bpf96r2Y/Djhf9Bh6YZKK3K1zRaoNfrCwA0Lu18WM1hmn6vlbl8Mnl4q/64vOPooB9P6iQ8xVhLYy5zSjy1NryBAuBKkORbyfVYd1xyFcB4zfTo4ufk0qxe0HLkIwNuR/v4ttwJjvUFjwvTVryi+1YAQT4BC8d9iDHpo1FeVSD7gr9XAuj32d12pEan4tbOV2j+nZbnhvbJZEr0Qyttei79Vzgq8cjiZ9Sb2Iox1sWz/zNq5lob3kAB4GMF12M9Bn3KEqhAx9xdcgBPr5yh6zVpYHp/zPOICovgjlDL7H2Lsa8025Brp0a3wPdj3sSDZ90FhzDUJdX+PULnFhMMR3UxHup1C1rFJGv+fbYd3ROy/YhWVz4Y85Kuxp94etUM7Crer+REi8/+N95210UALOd6rB9yX0qBVYAZGz7CJh0dAo+JgOkjJnEnOI4HFz1hyCqAfMBNZrwwZCI+v+A19EjqidLKXBkwyh+rAeWV+RjS5hzc1vVqzb8H1d+hsiMh24eeGf4I+rbopq/1OLIeL697T73KEGMr7/3XiTPabhYAmqjTMiU6qN1dg78ufEr3jHEUlvS+vn/ijlAL5Qh4d+vXht7D5emjsWjcR5gy6BGEidlkSVVeg9IJH/v/Syvz0K5pB7w38jnEWKO0n/0X70Wloyok+8+NXS/BoJTeul6T+sbDi55SdoLFYX/9IwDOfHZrAUqQiZvFp3iuz3rJVITZ4gyLzHaM7IpcpEQ3R5/mXXW7Jp1Rbh6VgLyqIuws3sddQbAufzPObTMYLXVYKj8VEWHhyGw5CCNSByLHfhTbj+6A3V4Mr9kGWx0c+Kgv13gcqBAz//RmnfHpBS+je4I+S9KU9np7UehtAZzTaiAmDLhd96X/V9a/i093/KDeqComMzXVefC4HTyonJ79yMLUxgsAIhN0vqcH12ndoQ5qsdhgCYs0/F6WH1mPqzqPRRNbtK4ioHNCOlbnbRZCoJDloCiLc1ZheMv+sm6MhPbrr8u4GO1i28BlsuBQZS7KRKnxuOCpneHTQOvxesXPXpmAh1aTqoRYcAkBcEWnS/Heuc8J45+h2z1PWvoiSkMsBkB6XGu8dt5U3Y3/9qN7cevsCcod+yNcjmI4qnk8qQM/isn7V/4SADRt4fRv9R71PQizxeoemvVEaPDeV3oIl3cco+t1ydANSOmJWfsXodzBx3VK7GU46ihDRnxbw0UA0TuxC67NuAgXtB6KYa3ORkp0Mhyir5Q6K2CuXbkiERBmtqB70wxc0uFCTBvwEB7tcweaahzy93gWZ6+S/iyhBCVV+mrc67obf+LGnx7CXjFeqDf7d6OmKs/wiKsBwgwhAM4Yx6du69NZ6AlOD9wgIqJbwhbRTIl7eXXkVFzf5Y+6X5ccuM7/4kZUOjmIi5HtUBfKHBUocZTjaE0JSmrK4PQ40TI6Ba1jktHEGm3IPd29IAvvb/46ZPqHzWLFzD/+WwbY0pvnVr2Jf6x4Vcl6cdiLYK88zANI3egl7PZG/wgAYipy4UULrtf6YQmLRmSTNjCbrUrMKhZe9THS49rofu3v9szFDbMe8gWOCXHCw2yYdcnb6NuiOz8gdRGPX94UUg6Ab13wDC7LGK37ddfnb8UoUdc1Cu6ve4QQrS4/CLeLVxLPiAl5mII6ORvVfW3ai8Vcs/WHOqyzRo0EGjS7u3tuliHXvqj9SLwz+jl5LC3UqXE5cNWP9xp2NDCQWHpkXcgYf5qN/XvUU4YYfwr4c8ecx5Q0/gSNoWz8/W+r657BJVPO/i/k2m1Ae3hcsIRFKbEKcKj8iDzKNbRlP92v3Tmhvdz7/nn/opDvE7QdsjR3PQan9FbCH0DV2f+kZdNRVB0aKYCzhtyHW7tfaci1Jyx+DrMP/KroJKoaNdX5hudZCSBex4K6RfCt+3TMjYVcrw3D47bD6ShR5n5eWPMfrM7bZMi1B6b0wnPDH+VOIdhWuAtPrnydVwJOwa6S/dhZtDckvuvjQx7AqLZDDbn293vn4f82f6Zs3dDYSWMo439bXfcVgEXIRyZuFZ9iuYYbIAI8Dnkk0GyxGd8/vB4sO7IW13S+GOE63w/NdiPCbEiLa435h5aFfL+gOAkOuNC2SSqvBJww+79r3pSQSP87YcAdGNPuHEM8/ilk+KUz75LOniriclbIc/8qRFYNELLxOCb4XwAQmSC31F5cxw2gtgNbbXFK3M5RewlyKwswNv1c3a9Nhi7GFoWEiKZYmrMm5LvGxvzt8JpN0tOeRYCP7/bNw+fbfwj67/mXHlfh6s5jDTH+xA0/PYQ9QgSoChl/t6uKH4i68y0WoM5HZuonAEbI2f8fuY4buArgtssVABWCAxGUJyA+PBb9k3saIgKaRcYjo2k7zDm4JOT7xrq8LQizhCE1pnnIiwCa/d/6y0TpLBnMTBp0D67oNMYw4/+3RU/j692zla0fcvyTs3+m7pjwkhAAdT6yX98VgCLx+iDXcuNWAizWaJhMFiVuh3J9D07tg7TYVoaIgChrBLondsIvBxYj1A8IrsnbDLvHKdqiZciKADL+f1/6InYEedjfKYPvxeh2ww0z/u9v/QbTlr+s7mTJ44CjOp+D/tSfe4QAqHOihPpZIfrFmRgnPqVwPTe8Y5vMFoRZY5S5p4XZK3Fph1FoYtP/nsjQ9WneDSnRSTJiYKizqWA7Dlflo2vtiYlQ4/t98zBjfXBH/ZMOf2lDDTP+mwt3yKV/l0ddr3qHvVCZ49MBxDpk4bn6/IP6T0MzkS5ez+a6bsQigNsJc1iEEg6BBIXp3VCwDdd2udgvaWIbQu/mXZHRNA3f750Pb4ivBewuPoC1BVvk1kwoiYC1+Vtw46yHZO6BYITCK79+3jS54maU8ad8Cpd/Nx65VQXK1hM5/jmq8mXoX6ZevC8m6XO0FQAj5Oh8I9d1IwRAbce22silwqTEPR0sz5FCYGSbIYbdQ9dmHTAotbc8luRwO0O6j5CD5o8HFmJE60EhIQJo6f+qH+9DqT04vf7ptM0HY17EJRkXGNqelORn6ZG1Ko+O8sw/B/1pACZMEQKgXulX6y8A6AKZ0g8gnGu84ZBDoMlslQGCVGFV7kYkRSYYGqKWfBEuSBuGnw8slpELQxmKzvbRju/QJjZV/hysQoCM/+1zJ2FP8YGg/H5NI+Lw4YUv4XyDzvkfY/LSl/DeVrVzKjjsR+XeP1NvypCF2+r7jxrmieY7DtiN67yxKwEumSvAXIdc7Hrxy4Ff0TOps1yONwoydJmtB2JV3qaQTyVM+7SURyFYYwWQ8X969RtYfGhlULZfWlwrfHXxaxiQbOzp6Xe3fImsZf9Uuq7cLrsw/nkycipTb+j43xd6CQDyFuPjgI0VAKKjU9bVMJtasZXIGe/cNoOREt3cUBFAUQMPlediT+nBkO8rFCtged56DAqi0MFk/J9Z/SZm7poTlG02KKUP3jz/CcP2+49/nv88e4Ly9UXG3+UoA9MgnhcCYL0+AmAIjoh/+TDXuR9UL8UGMKsTG4CgqGDLctbhik4XIiLMuJ0eMnTdEjtIp5N1+VtDvq8UVB3FB9tnwhZmRRNrVEALATL+4+dlYcHB5UHZVtd0vgiTB99tuPHfVbwf1/54H6pcaofS5TP/jVVPuAOLUW/HiYYJALpQJkaIT2lc8/5YCXAjTAzoJoW2AorsxViasxaXZVwg85MbKQJaN0mWfgkLslcIcRLay4Nu0VfmC6O5tnAr+rfoEZAiYGXuBlz5wz1BuedvFc/wk0MfxpVCPBtt/Cnx14Vf3YK8qiKl64z8oWrI65/P/DeUhZiGVxvyDxsejSYTieJ1FNe9PwQAebybEGZrotR9Ha7Iw+7Sg7ikg7HNTEaO/BLOb3s25mcvR0kNLxPmVhTg/W3foNJVJeonISCEAM36v9r9M26d/SjKaoLPwTM5Ogkf/+GfMp2v0e1Bp2iu+eFebDuqfkAl8vp3OUrZEDScV7EAS/UWAEfF691c936a2bmrldsKIHYc3Yvs8lz8IX2EEgPs8Fb9fcKk5AD3Ga8Hy4+sx48HFsEj/sQovC1Axv/xFa9gxvoP5X0HG+e0Goh/j3oC/Vr0MPxeql12XP3Dffj18Grl642X/v3CfUIANMhbuuECgC6YiYvBUQH9uBLg8mUMNFuVuq+NhdvljO28tsbHfyIDR/ECKJvgkpzVQWlM6gsdF5x/cBl+PvgrEiObysgSqggBMvyLc1bhpp//is0FO4Ku7i0mM/424HaM73294Uv+hMvjxs2z/ipP8ygvYF3V0vh7PU4wDWYtsvBkg/tvoy6diWQAI7gN/CUAnLWnAmgrwKTUva3K2wi7q0YGplFBBAxM6Y1hrfrL2AXkr8BAijQ6Mjjn0FJUuqsRZ4sxTAiQ4Z8r7mPCr8/hrU2fy74TbLRukoL3xryAG7r8URnBdeecSUon+DlutGOvf/8wQ0zGFxojAIahBGbcwW3gX1VMzoAqBQg6Bi03y2Zv2V+ZAXhIy75yFWBDwXbuPLVQuNdFh1bik53fY6UQbrFCCHSIb6ub4f9x/wJMWvYS3tn8JYqqg1OcXd5xDF7MnIj+yepkR7973hR8tH1mQNSfw14k9/6ZxhoMPIBFaPAeSuOnmVny7GEvbgn/YbaEIyK6pVIJg46Hkpnc1/dmpe6Jwgf/deFTyKnkQeVktIhJRP8WvXB1pz8gPa61X5eryejnVhbi/e3fYGnOGuRVBG/wpoSIeDwz/BFRfx2UWPI/xsRfn8er698PiDqkWP/2ysPwuGv4wWwcG4T97d2YX+APATBZvE7ltvAvFByIRIBq/gDHeGLow7i79w1K3ZMMLLPyDXy7Zw53oNNAKZjbN22LjPg0dE7ogNToJLRp0hLntBpQp3+/KncDthfvxe7SA1iduwkbC3egLEhj+B/PiDaD8cTZDypl+IkpS6dj+tq3A6IOPR6nNP689O+fphf293GjBQAFjt/EbeF/bJFJiIhS18dy6pD7cH/fW5QTAQfKcjBh8bPi/TB3oroKTrMF4WHhotgQFRYhtw1ibNEyM1+1qwYOt0PGYKC9/GJ7KWpcoXNmmxwrnxr2N+Vm/cRfFz2NNzd+HDB1aa86Akd1AT9w/qGHsL+bjRUAPhGwQrwO4PbwMyazEACpsEUkKHuLEwfehUf6367cfZEQ+Hj795ix4cOQDx7ENAxK33tj10txW8+rlTP8xL3zpuLdrV8FTH1Soh97VQ55O3Pnajwrhd0d2NhfYvHLrWQiHhwUSAO88Hgc0ifAbLEpeYeLD6+Sx9CMTCN8Msgrm/IZZLYehPX5W5GveDQ0Ri3IT+K90S/g9l7XKhdbgVZl/vLLxIBx+CNo35+P/PmV6Q0N/uN/AXAOsmHCA9wmGkgAr0sUNywUKthkUfIeV9JRvOoSjEobpty9tYxJlkmFOjZNx9r8LTJICsOcirjwJnio362YMOAO9Evuqdz9Uf+95of7pNNroECTGDL+blcldzD/zQ3/goVodPhE/1gUupFM0AHxDtwyGjxAtd6yqoUKPp61+ZtxpCIfY9plKndvNIPrl9xDhhKOEkJqQ8E2uIWoYphjWM1WXNdlHKaPeAyXdLhAyYiKFAL7hp8ewrxDSwOqbmuq8mTEP8ZvzMJUvOaPX+S/KWUmyF2dUwRrhNtVBZPJDIs1Wtl7JMO6s3gfLkgbLpOiqCgEaFuAViqyK3Kxr/QQdywGQ1v2w9ujn8Wfu1+pbChlOt56ozD+tOUWSJDDH5/39ztPNCT178nwX7i5exCOZiCZF8ntow0mMUuJiE6B1Rav9H1SlL53Rj+H1OjmSt8nxUqn0wKbCndw5wpBOie0x2MDxyM9vrWSTn7HoP553Y8PBNypFqejBPbKI7zv71+qUYSmeBl+CaLgvxWAlXAjU6YH7sttpBFej3yYLAo7BRKHxez6p30LMSClF1IUFgFtYlOlf8DA1D44ImZYORU8UwkFujTrgL8PvEvG7x/asr/SmRS/2ztP7vkHmhOr21kpZ/4c7MfvvItn8bXfJpV+vbUsIQGA+dxG2iKDBEWlyNMBKtM0Ig5vnPcELlDQOfBE6NjgvtJsPLnidWwVn73czYIO8uyfMvheZDRNU3rGf4wZGz7CI4ufCbh6JqNP5/052I8mjBB2doGaAsAnAjaCAhQwmkKxAcKFCFD1ZMAxzCYznhs+Abf2uCpg6nb2/sV4atUMrM/fAo+XpUCg0yOxE+7pexO6N8sICMNPPLbkBby87r2Aq2s6sVRDwX7sR7nj+Z9Nwr769WiK/63HCFAA+/O5rbRFJg0Sf1TNF/DfAUH8mX1gsYwgl9l6oLxn1Wkf3xY3d7sMfZp3g9vjxu6SA/LsNRM4UGTDUW2HY9Kgu3FTt0sxovVgpZf6j0GJnG6f8xjeC6AAP8fjqM4Xxr+QO6AWmPCCP87+a7sCMBEtYEMut5Y+PYKcAm0RiQFxt7QVMH3EZOWdA0+Etgf+s+kzfLlrlhygGXWJsUZjbPtzcW+fGwNmtn+MzYU7cOfcydgYoJktyfCT0x94A02jCkYynmx45j99BACRhQ/E63XcYjpIAHOY9AewhjcNiPslx7tXz52K4a0CL3I0CYE5B5bim92zZfphjiWgBhSyt0tCBi4Shv/i9iMDzvATH2//Dg8tfBKVzqqAbAM650/7/l4Ou60VHwq7er3/p5BaMBUjhQjklGx6DYCUPliIAHIODAQoRsC0sx/Enb0CVyMuzF6BWfsW4YtdP3GYYYOID4/FZRkXYHTaOUpGoawLLo8bk5a8iNc2fBCw7UDOfmT82eNfy5kezsMUzA0MAeBbBVgDPhKoG5awKIRHJSvvE3A813a+GM+f8yiirVEBW++0KpBdnocZGz+UqXHLHBXcGTWElvj7tOgqnUoz4tsG5Gz/GORb8vDCpzD/0LLANf4U478qVwYqYzRjrbCnZ2mjK7RiMsbDjFe47fSDjD+JABIDgQJ5aE8fMQn9WgT+wRESAxvyt+O7vXOxKncjCqrZE9pfM33qHxe1H4n+yT0C2ugf49MdP+DRxc+iyF4SsN+BjD4ZfxIBjIZ4cDcex6uBJQB8kQEpskost6COIkDGCEiG2RIRMPccZY3EQ2f9Gff3vUV6bwcDx8TA/OzlWHhoBfKrCtk1qh4kRMTjnFYDZJbJvi26BYXRJ2iPf/LS6fjPpk8D2ya57bCT8eez/lpThiI091fkP/0EAJGF58XrQ9yG+mINj0d4ZLLS0QJPBsXp/8fZD4nBPiPo2mRj4XZ8vWs2ftq/EAfLcgLW2UtLEdgypgVGth6CqzqPRbjFGjRG/xir8zbhwQVPyJwZgW38KbtfLpw1JdxxtecFYUcf1uqXay0A6AnmQOuGiICmcjvAbLYG1H03sUXj0QF3YnzvG4K2bWh1gPwFFh1eha1Fu7C/NBtVIZamOCIsHG2apEqxNyilD4a16hd0Bv94KKhP1rLp0ukvoI2/xymX/Tm7n250EnZ0Z2AKAJ8I+ES8XsXtqD8yWmBkC5lEKNCgmAFPD/sb0uPaBH070YxwV/EBKQwWZK/AnpIDKHdUBE0UQjqmF22NlqF4h7Xqj55JnZEe2xr9k3sGfdvuLT2IRxc/h1n7FwX8d6E8JDXVeRzlTz8+Ffbzai0voIcAyATnBzBQBDSrFQFhAXfvdDrgwbNuwQNn/RkWkzmk2o3EwNHqUqzO34StRbuxv/SQTAlbVlMhVwtcip23Jt+NyLAIxNpi0CIqEenxbdAlob2MppgcnRjUs/uTGkvx57X1H+CZVW8ERfAoOt/vM/585FVH/Br33xgB4BMBJAAyuT1ZBDSEvsKITB58jwznygDLjqyTqwR7Sg7KzItkYEodFahwVApxUI0qpx12dw0cbqcUClTc9QxlTDkcyKhTzAabxYZwUaKEgSdRRoW2auLCm6BlTDLai5l9+/g0DG15FjeOYGnOWkxe+pI8CRIUYoaNvxEsEHZzhNYX0UsAXC5eP+c2ZRHQUGgF4Pae1+Lh/n9Bs4h4btA6zkKdbhdWHFmPapcdNW4HqoUwqHJWo7D6KHIrC+T/lxSZIGbpSYi0RiLSEi6NPc3mB6b0htUSFhD5G1SgpKYML675P7y+4UMpvtj4M43gCmE3vwgOAeATAevEa29uV6NFQPOA9Ak4BqVynTTwbozrwPmmGHX4cd8CTFv+styuCRoBKff889n46896YS/76DKx0u0rZYIk8ThuW+OgDIJerwcWMbtTPY3wqThqL8HXu2djuZjVpsW1QusmKdywjGHQMv/986fh2VVvBFXgJ4/HgZqqfDhr2OHPAP6OBXLCrDn6ru35jjNkcPsaizwiGNlc5hAIZGwWK67rMg739/0T0mJbccMyunGo/AheWf8e3t78hdxaCSYopj/N/PmonyHsqj0+rwv6TgMzQYdg/8BtbPQDbpd7exQt0BygPgEEObatz9+KD7d9K3+msMK2AAt+xAQWTvHcvLLuPdwx5zEsPrwq6DJCul12OKrz4HRwkB+DmCxm/6v0upj+3j1TsRdetON2Nh4KG0wrAYGUO+B0dGzaDrf3vAY3dbtMeq8zjL+gAD4fbZ+JGRs+kkc0gxEZ21/M/Dm8r0GYsA9TkK7nJfXfCPatAlzIra3CSkANvB6HPBkQ6NsBBCVWmX1gMX7ct1CGkm0f30ZuEzBMQ6HjlN/umYM7507CO1u+QEF1cDrEuZzlYuafL98ZQ2f/K/XVHEaQhT3iNZ3bWw0sYZGwRTaH1RYXVN/rrBbdZdpYSjvMMPWFMva9vflzGXchmHE6SqXxJydhxjD2CrvYXvex35CvOkKeCGBfAEUgfwCPmx5+sxQDwcKRynz8sHe+PKJFwWvoCGGwZBtkNDKG4ln4Tsz475k3FTM2foTsityg/r4U1pf2/Gk1kDEQk/T8X63/ZY0iC1vFaxdueYX6oMkCW2SS9AsIRshJ8NYeV2JU2nCkRjfnBmf+S2F1MeYeXIo3hNFfk7c5JL6zPONfXQBvkDkyBiDbhD3saozuMIqpuAlevMNtrx5SBEQkBWzUwDPRJjYVV3cai2s6XxQSyYaYU5NTkSed+z7b8SN2FO8Nie8so/vZC6TxZ5SY/d+MKXg3tASAbxVguXgdyD1APShWgE2IAAoaFKwkRjbF+W2H4o6e16J3867c6CHElqJdeH3DB5hzYAmOVIaOIZTH/ITx5zP+yrBC2MFBxmkPI5mKcfDiG+4DahJmjZGrAWHWJkH9PSnxzZi0c3B157EyN33zqGbc+EEIxeqnRD2f7fgBM/fMqXeCpEDH5+lfIN4ruDOoM/v/o5j9fxuaAsC3CvA92CFQXeNoiUB4ZCKs4Qkh8X3p6OCotsPwxw6jhBjg1BXBAO3pf7vnF/xy4NegitVfHyikb011oQwCxijDD8L+jTVWfxjNJAyGBUu5LygsUqVzYCJsEYkBm0OgvkSGhaNHYme5KjA2/VyZ454JHCgu/8/7F+Hj7d9hbf4WmQExFCEHP4e9UMz8C9nZTzXcGIJpWBbaAsC3CvCmeP0L9wi1kX4BkUmwWCJC6nvH2mJwQdpwUYahf3JPzjugKBSff3XeJsw9uATf7Zknl/xD2r647XLJn/f7leTfwu7dZvjkThEBQCMqueBy2DbFkX4BEYkyjHAokhydiLNT+2F4q/64qP15aBYRz53CQEpryjFzz1wsOrwSvx5eLb36GchwvjTz5/1+JaE4OOnC7mWzAPifCJgoXp/gvqE+ZrNVigDaFlCpC+kNxRKg0wNXdLxQ+gu0iE6CxWTmDqIxOZX5cl//850/YnXuJhwO8mA99cMrl/vJ+Hs8Tq4ONfm7sHdPqnAjao3eWdgiXvk8VoBgi0iQQsAcYlsCJ4MiDQ5J7YvhrQage7OO6NW8C68O+IkyRwXW5W+RR/eWHF6DRdkr5d8xv4Uc/OR+v/0oV4a6bBV2rpsqN6OWAJiKy4SA/YL7SOBgsUZLERBseQQaC4Ud7iaEQM/EThjS8iz0a9GDMxTWkQpHpXTco1n+xsLt2H50T8h679cVGc9fGH+3s5IrQ2VMuBxT8CULgFOvAnwuXi/nnhJAfVoYNlt4MyEEmgVt9MDGEGEJR1JUggxFPKxVfwxO6YOWMckcb0BQ7bIjr6oQO4v3YcWRDVh+ZB32lh5CYfVRONy8hH0mKKqfw14ER02R/MwozRfCvl2hlh5RTwB0FK87uK8EHrQKYBUigBwFmdNDAmBwah/pO5Aa0wJtm6SitShx4cEbdIm88slT/0DZYWn0txXtwYaCbVhfsJWNfQMgBz+nMP40+2cCgk7Cvu1kAXBmEcAOgQGKWcx2yTfAGt4MJnaIqzMxtmi0jG6BVk2SkRydhI5N28lthA7xbdFKiAXyMQgUyh2V2Cdm8WTo95QeELP7/cipyJfOeuTAR0v8TCNm/V4PnGLGT3v9nMUvYFDG8U99AeATAavEaz/uNwG6GhAeL7cFyEeAaTgUgyDaGikFQpsmqVIM0IoBrSC0iU1BYmSC/O9RYZG+d1FMGjzWLo8bNcLY2N0O1LhqUO2iz3bkVxVhT8lBaezJ6O8pPYij9hIhAqpQ6aziBvQztMdPy/3OmhKujMBhtbBn/VW8MXUFwGSMhBlzuO/wagBzgrgyh8kVARIF0cLwN49uJiMVJgkxQO8kCsi/oIUo9P+cCVp+dwjD7qT9ZI8TTvHzsc+VwpAX15TJ5fsSu++9uKYUxfZSFAlDX+W0o9RRzrN6nvUzp8KD8/A45rIAqP8qwHTxeh/3oAA3WLZ4WIUQYN8Ahqk/vr3+o3A6eNYfgPxT2LH7Vb05tQXAbbCiJbbAiwzuRwG+GmC2CRHQVCYVokBCDMOcYeJIqzE1wvDbi8VnB1dIoGHCLhxGN7wJZT1c1c7ssgYeZOKA+HQN96bAhhKR0P6lb/nSBEsYBw9imFNBe/yO6nwpADiJT8ByC17ANpVvUP3UbguwQ4iAJPFpAPenYJjVOGRecq+Y3VDMAF4NYJj/4XZVScNfIwrv9Qc0ryILL6l+k4ERyP0NWHEEm0DnKJmggZwEZYZBUUwsBJgQhgSxo6ZYZu5jwx/w7EAKeuB2KB/cInAyuWRhtHj9iftW8EHOgSQEqDBMqOGsNfycuS9oGCPs1axAuFFLwFTpAuxGJmjjeCj3r+BCbgs4ysR7jVCkZrkywDDBjstRjprqPN9yPzv5BQtPC+P/RqDcbODlcs3CEvE6hPtZcGIyWWQQIVoNsIRFcYUwQQft8/tm/SXs4BdcLBX26exAuuFAzNwyXpR13NeCExoQKbkJzY5ICISJYuF0w0wwGH63HS5h9Mnw84w/KBkfaDdsCbgqXoBcjEC++PQH7m/BLQTcrkq4nRXyM50W4EyDTCBCTn0UvremKk9udfGsPwgx4S4x+/8+8G47UMnC2+L1Zu55oQGtAtBqAGUcZB8BJlAMP2Xqo1k/zf6ZoOUdYY/+FJi6JVD5F8JxFKvFp+7c/0JNCMTVCgHeGmBUNPz2WsNfyoY/+NmMBPTDvQjIs5umgK76xzEYHizlPhh6yBgCQgSEiWIJi+QKYQzH7aqGSxh+Mv58lj9UBiIMwWQsC9gJVUBX/nxksz9AaHK8j4B0qDKZhCiwccUwukPn9x32QhnBz+XkPf6Qgfb9p+DrwP4KwUAWXhWvd3GPDOFn0WRBmC1WFqsowdK1GWUlqJjpl0mnPnbsC0leE3ZnfKB/ieAZJbMwX7xmcr9kwqxN/isGONcA408oQ98xo085LZiQZIGwNyOCYqwMokYhL0zai0nm/hna0MBMxWwvgtUmxIA1FhZrNFcM02AokyUt7zsd5dLJjwlZcmttTVAQXOukWRglXn/mPsr8ppObzLWrAk3kOyceYuoCJeiRYtLhE5Rer4crhblA2JnZLABUZSruhBevcT9lTgYdHfQJgRgpBhjmRHwrSBXS8PNsnznOWpLT3+vB9ZWCkSw8I17/xj2WOR0kAixWnxjgo4ShjTzCJ4y+u9b4M8wJPCvsyiPBp2mClSx8LF6v5n7LnPEhoBMEUgzQqkA0BxgKEWh273L6jpK6akNOM8xJ+ETYk2uCcuwL5nFdNNoC8T6c+y9T505jDkNYWDSLgVAw+q5KeD0urhTmdCwSdiQTdO4zCAnm7CrUYKTa6HhgR+7HTJ06jTAIztpobrQyQKcHfIIgmtMTByiUfld68cvAUZU802fqys5aG+IN1i8Y/NFSstC7VgTEc39mGgMJgGNCIEwUPk2gqohzCmNf9V/DT+8MU09KRBkh7Mf6YP6SoREuLQvniddfuE8z/oICDElBIIo5LFK+03FDxgCD7/VII+9xVfuMPn0WIoBhGsH5wm7MCfYvGTrxUqfiCnjxGfdrRhNBYAmXJwkslshaQRAptxAYLQy+W3rtS4PvrvZ95uQ7jP+s4pWYgs9D46uGElPxZyEC/sM9nNF+hcAmhEBErSCIkGmMSSQw9YeMO6XV9bjs0uDTu0wAxTD+t4i3CuP/f6HzdUONKbhXfOt/ck9n9H7ULGE+EWCuFQMW+TkcnLjov3P7WmNfI9/JY1/+7LIjiP2wGHW6331ikviv0BqVQpGpeEQ09tPc4xnDVwosNpjN4bXCwOZbOaDP4p1SHAfnQOuVM3hp5OX7sc818jPDGGAJJ4jJ4TOh97VDlSw8Jl6ncc9nlHwwzWE+MSCKyWKVTod06sD3Lv6byaquQCAD73XKI5XkjEde+fLd7fQZfFH4/D2jEJOEPfhHaOqeUGaq0Hxe0fQME2gPrskihYDJJIrZctz78cXsc0SU72YpGEww1woH8bn2/QTrLey3V76TIRem3PdOiXBEIQc873/fa4uH3l3Hvbv4rD0TKBYwKzah59SyezaG6NcPdVgEMAzDhKTxF6P/1FCuAj6ntAALkQmarpzLTwTDMExIQMv+Ib8FzALAJwIWYQTI1fg8rgyGYZignvlPEMb/Ka4IFgDHi4AlOAfFonOM4cpgGIYJQuioXxZe5Io4poWY38LBghiGYYLR2oVUkB8WAA0XARw2mGEYJngsXciE92UB4A98CYSow3AWQYZhmMCEsvpdEQqJfVgA+F8EUCrhT0XpyJXBMAwTUOwU5apgT+nLAkBbEZAqXj8WZThXBsMwTECwSJRrxPidw1XBAqDx9ZSFj8T71VwVDMMwSvOJGK+vBWeQOiN8DLCuLMCXyESU+HQ2VwbDMIySPCuM/x1cDbwCoA1TcafQla9xRTAMwyhlze7CFLzOFcECQFuyMEq8vitKMlcGwzCMoeSKcpMYl2dzVbAA0EsEpInXt0XJ5MpgGIYxhAWi/EmMx/u5KlgAGCEEXhWvd3FFMAzD6MprYvwdz9XAAsBY2C+AYRhGT8vF+/0sABTicQyGB2+KT925MhiGYTRhM8y4DZOxjKuCBYBa/AvhOIoZ4tPNXBkMwzB+5R0k4A7cixquChYA6sJbAgzDMP60VLzkzwIggPDlESAHwSFcGQzDMA1iqSjjOZ4/C4BAFQJPidcJXBEMwzD14mkxfj7K1cACINBFwGjxOl2UTlwZDMMwp2WHKPeLcXMWVwULgODgDVhxBC8BfG6VYRjmFLyKFDyA2+HkqmABEIyrAReLWn8eXmRwZTAMw0hLtEuMiQ+L8XEmVwYLgODmNliRiufEp/u4MhiGCXH+iRz8FW/yrJ8FQCgxGSNhxtPiUz+uDIZhQozV8GACHsdcrgoWAKFLFiaK1ye4IhiGCRH+Lsa9J7kaWAAwPhHQsVYEXM6VwTBMkPJFrfHfyVXBAoA5kam4DF48Lj515cpgGCZI2CqszWRMwZdcFSwAmDOvCEyUr4CVK4NhmADFKccxXu5nAcDUWwS0ArkKAn/hymAYJsD4NyhPahayuSpYADANZRIGw4K/i09/4MpgGEZxfoAbT2Aap+xlAcD4j6kYB6+MjT2QK4NhGMVYISzKU5iCb7kqWAAw2gmBm4QQeER86sKVwTCMwWwTluQZYfjf5apgAcDoJwTulOEzgXSuDIZhdGavDGs+Ba9zVbAAYIwiC3eLlnxQiIF2XBkMw2hsNfaJseZFMe68wpXBAoBRRwjcBUqjCU40xDCM39kFSmuehde4KlgAMOoKgVvE6z2i9ObKYBimkawX5WUxrrzFVcECgAkcIUBhhceLksmVwTBMPVkgyqtiHPmCq4IFABO4QoAEwB2iXMWVwTDMGfhUlBli3FjAVcECgAkeIUAJh26DL7JgLFcIwzC1lMEXue9NTtTDAoAJZu5BOJriVpilr0BfrhCGCVnWwoO3UIz/4GXUcHWwAGBCiakYCS/+JD5dx5XBMCHDh2L0fxtTMJerggUAE+pMRAuE40YhBm4QP/XgCmGYoGOTGPHfF/P89/Ak8rg6GBYAzO/xOQ1eV1siuUIYJmCplrN9KuzUx7AAYOoM+Qo0wzXwnR4YzRXCMAHDLJA3fxE+5r19hgUA0zimoI3oLVeKT1eIMoArhGGUY6Uon8OLzzAVB7k6GBYAjP/JQnfxemlt6cUVwjCGsUGUr2TJwmauDoYFAKMfk4QAsGCc+ESFjxQyjPasFeVbuEWZJgUAw7AAYAxfGegsXsfWlnO4QhjGbywU5XtZsrCdq4NhAcCoCx0rtGGM+ESFHAg58iDD1B2KzEeOfD/BIQof22NYADABiy/g0Cjx6XxR+nCFMMzvWCfKL2JUns0BehgWAExwkoVWoueRIBgpfhohSiuuFCYEyRZlvngW5opnYa54LrK5ShgWAExoMQk9YJE+A+eIHjlMDIYtuFKYIBxt80TfXgzaz3eLMg2buFIYFgAM89sVgp7idagoZ4syRJQ0rhQmANkvylJRlojyq+jXG7lKGBYADFM/QUACYFBtGQhfICIzVwyjEB74AvGsEGW5LFlSADAMCwCG8RufwYKt6C96b394cZb4GyrduWIYHaGgO2tEH1wj+uAqdBXlSri5WhgWAAyjNw8jGrHoLeZhdMKglxiUe4neTVsJ4Vw5TCOoEX1po+hLFHBnA8xYhzKsx/Oo5KphWAAwjMpkibmZb3Wgmywm8bMXXbhimJOMhttE39gqPm2pLZtF/9nKFcOwAGCY4BEFYeK1sywmdBKDfkfxuaN4zxA/N+MKCmK8KBJtvEt82ined4qfd4jP22XJgosriGEBwDChypNCADjQXjwZ7cVP6cJAtBPvVNJEaSuKhStJaWgf/gB8Hvj7RDvuE+97RTvugU2UiUIAMAzDAoBh6s0/0BoetBGlNXwBjKi0FCVVFhNShLFhvwNtRivajz8iPuXUlsPwBdPJFmb/kKj1g3hMvDMMwwKAYQxbRahGMiwyoFFzYbSaiyctSXymkiiLCQni75uJ96biPTJER59q8d2LxXuReD8q/qawthSInwvE3+eLz/nCuOeJGsrl2TvDsABgmODiAWHeEhEvzGE8whAHjyhmNAElUDLJ9xhhEGPEe7T4OUq8R4mf6Z2EQ4QsJjH/9a082GqLtbaEif9mEf+Nti6omOVzT3+8v3n+6Ry7t/bdLf6LW/xEy+m0L+6sLQ5ZfDPxGvHZXluqxd9Vifcq8ff0Xil+rhDvFeLnclBiG494N6NU/LZScdclwsyX4CXx7xiGMYz/F2AAUO63ZSr13E4AAAAASUVORK5CYII=;sketch=1;curveFitting=1;jiggle=2;imageBorder=default;imageBackground=none;" vertex="1" parent="w12Q39UHSDCIKb3LfXtM-17">
          <mxGeometry width="37.77777777777778" height="37.77777777777778" as="geometry" />
        </mxCell>
        <mxCell id="w12Q39UHSDCIKb3LfXtM-19" value="Linker B" style="text;html=1;strokeColor=none;fillColor=none;align=center;verticalAlign=middle;whiteSpace=wrap;rounded=0;fontSize=20;fontFamily=Comic Sans MS;movable=1;resizable=1;rotatable=1;deletable=1;editable=1;locked=0;connectable=1;" vertex="1" parent="w12Q39UHSDCIKb3LfXtM-17">
          <mxGeometry x="40" y="3.7777777777777777" width="90" height="28.333333333333332" as="geometry" />
        </mxCell>
        <mxCell id="w12Q39UHSDCIKb3LfXtM-20" value="tun : 10.18.18.23" style="image;html=1;image=img/lib/clip_art/networking/Router_Icon_128x128.png;sketch=1;hachureGap=4;jiggle=2;curveFitting=1;fontFamily=Comic Sans MS;fontSize=20;imageBorder=default;" vertex="1" parent="1">
          <mxGeometry x="467" y="279.99555555555554" width="80" height="75.55555555555556" as="geometry" />
        </mxCell>
        <mxCell id="w12Q39UHSDCIKb3LfXtM-21" value="SNAT" style="image;html=1;image=img/lib/clip_art/networking/Router_128x128.png;sketch=1;hachureGap=4;jiggle=2;curveFitting=1;fontFamily=Comic Sans MS;fontSize=20;imageBorder=default;" vertex="1" parent="1">
          <mxGeometry x="467" y="150" width="80" height="80" as="geometry" />
        </mxCell>
        <mxCell id="w12Q39UHSDCIKb3LfXtM-24" value="Local machine" style="text;html=1;strokeColor=none;fillColor=none;align=center;verticalAlign=middle;whiteSpace=wrap;rounded=0;fontSize=20;fontFamily=Comic Sans MS;" vertex="1" parent="1">
          <mxGeometry x="830" y="89.16" width="148.75" height="30" as="geometry" />
        </mxCell>
        <mxCell id="w12Q39UHSDCIKb3LfXtM-26" value="" style="endArrow=classic;html=1;rounded=0;sketch=1;hachureGap=4;jiggle=2;curveFitting=1;fontFamily=Architects Daughter;fontSource=https%3A%2F%2Ffonts.googleapis.com%2Fcss%3Ffamily%3DArchitects%2BDaughter;fontSize=16;exitX=1;exitY=0.5;exitDx=0;exitDy=0;entryX=0;entryY=0.25;entryDx=0;entryDy=0;" edge="1" parent="1" source="w12Q39UHSDCIKb3LfXtM-21" target="SJGOTdjTq_HpJzbm1Io4-50">
          <mxGeometry width="50" height="50" relative="1" as="geometry">
            <mxPoint x="690" y="260" as="sourcePoint" />
            <mxPoint x="740" y="210" as="targetPoint" />
          </mxGeometry>
        </mxCell>
        <mxCell id="w12Q39UHSDCIKb3LfXtM-27" value="Modify Src" style="edgeLabel;html=1;align=center;verticalAlign=middle;resizable=0;points=[];fontSize=20;fontFamily=Comic Sans MS;labelBackgroundColor=none;fontColor=#CC6600;" vertex="1" connectable="0" parent="w12Q39UHSDCIKb3LfXtM-26">
          <mxGeometry x="-0.0824" y="-2" relative="1" as="geometry">
            <mxPoint x="21" y="18" as="offset" />
          </mxGeometry>
        </mxCell>
        <mxCell id="w12Q39UHSDCIKb3LfXtM-28" value="Router&lt;br&gt;192.168.56.1" style="image;html=1;image=img/lib/clip_art/networking/Wireless_Router_N_128x128.png;sketch=1;hachureGap=4;jiggle=2;curveFitting=1;fontFamily=Comic Sans MS;fontSize=20;labelBackgroundColor=none;imageBorder=default;" vertex="1" parent="1">
          <mxGeometry x="1240" y="120.00000000000001" width="80" height="80" as="geometry" />
        </mxCell>
        <mxCell id="w12Q39UHSDCIKb3LfXtM-29" value="" style="endArrow=classic;html=1;rounded=0;sketch=1;hachureGap=4;jiggle=2;curveFitting=1;fontFamily=Architects Daughter;fontSource=https%3A%2F%2Ffonts.googleapis.com%2Fcss%3Ffamily%3DArchitects%2BDaughter;fontSize=16;exitX=1;exitY=0;exitDx=0;exitDy=0;entryX=-0.019;entryY=0.363;entryDx=0;entryDy=0;entryPerimeter=0;" edge="1" parent="1" source="SJGOTdjTq_HpJzbm1Io4-50" target="w12Q39UHSDCIKb3LfXtM-28">
          <mxGeometry width="50" height="50" relative="1" as="geometry">
            <mxPoint x="1060" y="200" as="sourcePoint" />
            <mxPoint x="1110" y="150" as="targetPoint" />
          </mxGeometry>
        </mxCell>
        <mxCell id="w12Q39UHSDCIKb3LfXtM-30" value="" style="endArrow=classic;html=1;rounded=0;sketch=1;hachureGap=4;jiggle=2;curveFitting=1;fontFamily=Architects Daughter;fontSource=https%3A%2F%2Ffonts.googleapis.com%2Fcss%3Ffamily%3DArchitects%2BDaughter;fontSize=16;exitX=1;exitY=1;exitDx=0;exitDy=0;entryX=1;entryY=0;entryDx=0;entryDy=0;" edge="1" parent="1" source="w12Q39UHSDCIKb3LfXtM-28" target="SJGOTdjTq_HpJzbm1Io4-49">
          <mxGeometry width="50" height="50" relative="1" as="geometry">
            <mxPoint x="1080" y="380" as="sourcePoint" />
            <mxPoint x="1130" y="330" as="targetPoint" />
          </mxGeometry>
        </mxCell>
        <mxCell id="w12Q39UHSDCIKb3LfXtM-31" value="" style="endArrow=classic;html=1;rounded=0;sketch=1;hachureGap=4;jiggle=2;curveFitting=1;fontFamily=Architects Daughter;fontSource=https%3A%2F%2Ffonts.googleapis.com%2Fcss%3Ffamily%3DArchitects%2BDaughter;fontSize=16;exitX=0;exitY=0;exitDx=0;exitDy=0;entryX=0;entryY=1;entryDx=0;entryDy=0;" edge="1" parent="1" source="SJGOTdjTq_HpJzbm1Io4-49" target="w12Q39UHSDCIKb3LfXtM-28">
          <mxGeometry width="50" height="50" relative="1" as="geometry">
            <mxPoint x="1030" y="410" as="sourcePoint" />
            <mxPoint x="1080" y="360" as="targetPoint" />
          </mxGeometry>
        </mxCell>
        <mxCell id="w12Q39UHSDCIKb3LfXtM-32" value="" style="endArrow=classic;html=1;rounded=0;sketch=1;hachureGap=4;jiggle=2;curveFitting=1;fontFamily=Architects Daughter;fontSource=https%3A%2F%2Ffonts.googleapis.com%2Fcss%3Ffamily%3DArchitects%2BDaughter;fontSize=16;exitX=0;exitY=1;exitDx=0;exitDy=0;entryX=1;entryY=1;entryDx=0;entryDy=0;" edge="1" parent="1" source="w12Q39UHSDCIKb3LfXtM-28" target="SJGOTdjTq_HpJzbm1Io4-50">
          <mxGeometry width="50" height="50" relative="1" as="geometry">
            <mxPoint x="1050" y="380" as="sourcePoint" />
            <mxPoint x="1100" y="330" as="targetPoint" />
          </mxGeometry>
        </mxCell>
        <mxCell id="w12Q39UHSDCIKb3LfXtM-39" value="" style="endArrow=classic;html=1;rounded=0;sketch=1;hachureGap=4;jiggle=2;curveFitting=1;fontFamily=Architects Daughter;fontSource=https%3A%2F%2Ffonts.googleapis.com%2Fcss%3Ffamily%3DArchitects%2BDaughter;fontSize=16;exitX=0;exitY=1;exitDx=0;exitDy=0;entryX=1;entryY=1;entryDx=0;entryDy=0;" edge="1" parent="1" source="SJGOTdjTq_HpJzbm1Io4-50" target="w12Q39UHSDCIKb3LfXtM-21">
          <mxGeometry width="50" height="50" relative="1" as="geometry">
            <mxPoint x="740" y="450" as="sourcePoint" />
            <mxPoint x="790" y="400" as="targetPoint" />
          </mxGeometry>
        </mxCell>
        <mxCell id="w12Q39UHSDCIKb3LfXtM-40" value="Modify Dst" style="edgeLabel;html=1;align=center;verticalAlign=middle;resizable=0;points=[];fontSize=20;fontFamily=Comic Sans MS;fontColor=#CC6600;" vertex="1" connectable="0" parent="w12Q39UHSDCIKb3LfXtM-39">
          <mxGeometry x="0.0744" y="1" relative="1" as="geometry">
            <mxPoint x="5" y="15" as="offset" />
          </mxGeometry>
        </mxCell>
        <mxCell id="SJGOTdjTq_HpJzbm1Io4-9" value="Src : &lt;font color=&quot;#cc6600&quot;&gt;192.168.56.2&lt;/font&gt;&lt;br&gt;Dst : 192.168.56.6" style="rounded=1;whiteSpace=wrap;html=1;sketch=1;hachureGap=4;jiggle=2;curveFitting=1;fontFamily=Comic Sans MS;fontSize=20;" parent="1" vertex="1">
          <mxGeometry x="620" y="120" width="180" height="60" as="geometry" />
        </mxCell>
        <mxCell id="w12Q39UHSDCIKb3LfXtM-37" value="Src : 192.168.56.6&lt;br&gt;Dst : &lt;font color=&quot;#cc6600&quot;&gt;10.18.18.22&lt;/font&gt;" style="rounded=1;whiteSpace=wrap;html=1;sketch=1;hachureGap=4;jiggle=2;curveFitting=1;fontFamily=Comic Sans MS;fontSize=20;" vertex="1" parent="1">
          <mxGeometry x="620" y="280" width="180" height="60" as="geometry" />
        </mxCell>
        <mxCell id="w12Q39UHSDCIKb3LfXtM-34" value="Src : 192.168.56.6&lt;br&gt;Dst : 192.168.56.2" style="rounded=1;whiteSpace=wrap;html=1;sketch=1;hachureGap=4;jiggle=2;curveFitting=1;fontFamily=Comic Sans MS;fontSize=20;" vertex="1" parent="1">
          <mxGeometry x="1030" y="238.61" width="180" height="60" as="geometry" />
        </mxCell>
        <mxCell id="w12Q39UHSDCIKb3LfXtM-41" value="Src : 192.168.56.2&lt;br&gt;Dst : 192.168.56.6" style="rounded=1;whiteSpace=wrap;html=1;sketch=1;hachureGap=4;jiggle=2;curveFitting=1;fontFamily=Comic Sans MS;fontSize=20;" vertex="1" parent="1">
          <mxGeometry x="1020" y="90" width="180" height="60" as="geometry" />
        </mxCell>
        <mxCell id="w12Q39UHSDCIKb3LfXtM-42" value="" style="endArrow=classic;html=1;rounded=0;sketch=1;hachureGap=4;jiggle=2;curveFitting=1;fontFamily=Architects Daughter;fontSource=https%3A%2F%2Ffonts.googleapis.com%2Fcss%3Ffamily%3DArchitects%2BDaughter;fontSize=16;exitX=0.906;exitY=1.056;exitDx=0;exitDy=0;exitPerimeter=0;entryX=0.994;entryY=0.113;entryDx=0;entryDy=0;entryPerimeter=0;" edge="1" parent="1" source="w12Q39UHSDCIKb3LfXtM-21" target="w12Q39UHSDCIKb3LfXtM-20">
          <mxGeometry width="50" height="50" relative="1" as="geometry">
            <mxPoint x="700" y="450" as="sourcePoint" />
            <mxPoint x="750" y="400" as="targetPoint" />
          </mxGeometry>
        </mxCell>
        <mxCell id="SJGOTdjTq_HpJzbm1Io4-32" value="Src : 192.168.56.6&lt;br&gt;Dst : 10.18.18.22" style="rounded=1;whiteSpace=wrap;html=1;sketch=1;hachureGap=4;jiggle=2;curveFitting=1;fontFamily=Comic Sans MS;fontSize=20;" parent="1" vertex="1">
          <mxGeometry x="150" y="380" width="180" height="60" as="geometry" />
        </mxCell>
        <mxCell id="w12Q39UHSDCIKb3LfXtM-44" value="Src : 10.18.18.22&lt;br&gt;Dst : 192.168.56.6" style="rounded=1;whiteSpace=wrap;html=1;sketch=1;hachureGap=4;jiggle=2;curveFitting=1;fontFamily=Comic Sans MS;fontSize=20;" vertex="1" parent="1">
          <mxGeometry x="150" y="100" width="180" height="60" as="geometry" />
        </mxCell>
        <mxCell id="w12Q39UHSDCIKb3LfXtM-46" value="" style="image;html=1;image=img/lib/clip_art/general/Earth_globe_128x128.png;sketch=1;hachureGap=4;jiggle=2;curveFitting=1;fontFamily=Comic Sans MS;fontSize=20;imageBorder=default;" vertex="1" parent="1">
          <mxGeometry x="-45" y="360" width="80" height="80" as="geometry" />
        </mxCell>
        <mxCell id="w12Q39UHSDCIKb3LfXtM-47" value="" style="endArrow=classic;startArrow=classic;html=1;rounded=0;sketch=1;hachureGap=4;jiggle=2;curveFitting=1;fontFamily=Architects Daughter;fontSource=https%3A%2F%2Ffonts.googleapis.com%2Fcss%3Ffamily%3DArchitects%2BDaughter;fontSize=16;entryX=0.5;entryY=1;entryDx=0;entryDy=0;exitX=0.5;exitY=0;exitDx=0;exitDy=0;" edge="1" parent="1" source="w12Q39UHSDCIKb3LfXtM-46" target="w12Q39UHSDCIKb3LfXtM-6">
          <mxGeometry width="50" height="50" relative="1" as="geometry">
            <mxPoint x="-120" y="410" as="sourcePoint" />
            <mxPoint x="-70" y="360" as="targetPoint" />
          </mxGeometry>
        </mxCell>
        <mxCell id="w12Q39UHSDCIKb3LfXtM-48" value="visit 192.168.56.6" style="edgeLabel;html=1;align=center;verticalAlign=middle;resizable=0;points=[];fontSize=20;fontFamily=Comic Sans MS;" vertex="1" connectable="0" parent="w12Q39UHSDCIKb3LfXtM-47">
          <mxGeometry x="-0.2885" y="1" relative="1" as="geometry">
            <mxPoint x="3" as="offset" />
          </mxGeometry>
        </mxCell>
        <mxCell id="w12Q39UHSDCIKb3LfXtM-51" value="2" style="edgeLabel;html=1;align=center;verticalAlign=middle;resizable=0;points=[];fontSize=26;fontFamily=Comic Sans MS;" vertex="1" connectable="0" parent="1">
          <mxGeometry x="360.00257991696026" y="230.00153444211284" as="geometry">
            <mxPoint x="-3" y="-36" as="offset" />
          </mxGeometry>
        </mxCell>
        <mxCell id="w12Q39UHSDCIKb3LfXtM-52" value="3" style="edgeLabel;html=1;align=center;verticalAlign=middle;resizable=0;points=[];fontSize=26;fontFamily=Comic Sans MS;" vertex="1" connectable="0" parent="1">
          <mxGeometry x="169.98257991696028" y="209.77153444211285" as="geometry">
            <mxPoint x="456" y="-18" as="offset" />
          </mxGeometry>
        </mxCell>
        <mxCell id="w12Q39UHSDCIKb3LfXtM-53" value="4" style="edgeLabel;html=1;align=center;verticalAlign=middle;resizable=0;points=[];fontSize=26;fontFamily=Comic Sans MS;" vertex="1" connectable="0" parent="1">
          <mxGeometry x="179.98257991696028" y="219.77153444211285" as="geometry">
            <mxPoint x="840" y="-55" as="offset" />
          </mxGeometry>
        </mxCell>
        <mxCell id="w12Q39UHSDCIKb3LfXtM-54" value="6" style="edgeLabel;html=1;align=center;verticalAlign=middle;resizable=0;points=[];fontSize=26;fontFamily=Comic Sans MS;" vertex="1" connectable="0" parent="1">
          <mxGeometry x="189.98257991696028" y="238.61153444211286" as="geometry">
            <mxPoint x="1151" y="-27" as="offset" />
          </mxGeometry>
        </mxCell>
        <mxCell id="w12Q39UHSDCIKb3LfXtM-55" value="7" style="edgeLabel;html=1;align=center;verticalAlign=middle;resizable=0;points=[];fontSize=26;fontFamily=Comic Sans MS;" vertex="1" connectable="0" parent="1">
          <mxGeometry x="210.0025799169603" y="250.00153444211284" as="geometry">
            <mxPoint x="1040" y="22" as="offset" />
          </mxGeometry>
        </mxCell>
        <mxCell id="w12Q39UHSDCIKb3LfXtM-56" value="8" style="edgeLabel;html=1;align=center;verticalAlign=middle;resizable=0;points=[];fontSize=26;fontFamily=Comic Sans MS;" vertex="1" connectable="0" parent="1">
          <mxGeometry x="1150.0025799169603" y="209.77153444211285" as="geometry">
            <mxPoint x="17" y="-2" as="offset" />
          </mxGeometry>
        </mxCell>
        <mxCell id="w12Q39UHSDCIKb3LfXtM-57" value="9" style="edgeLabel;html=1;align=center;verticalAlign=middle;resizable=0;points=[];fontSize=26;fontFamily=Comic Sans MS;" vertex="1" connectable="0" parent="1">
          <mxGeometry x="219.98257991696028" y="259.77153444211285" as="geometry">
            <mxPoint x="549" y="-14" as="offset" />
          </mxGeometry>
        </mxCell>
        <mxCell id="w12Q39UHSDCIKb3LfXtM-58" value="10" style="edgeLabel;html=1;align=center;verticalAlign=middle;resizable=0;points=[];fontSize=26;fontFamily=Comic Sans MS;" vertex="1" connectable="0" parent="1">
          <mxGeometry x="229.98257991696028" y="269.77153444211285" as="geometry">
            <mxPoint x="330" y="-12" as="offset" />
          </mxGeometry>
        </mxCell>
        <mxCell id="w12Q39UHSDCIKb3LfXtM-59" value="11" style="edgeLabel;html=1;align=center;verticalAlign=middle;resizable=0;points=[];fontSize=26;fontFamily=Comic Sans MS;" vertex="1" connectable="0" parent="1">
          <mxGeometry x="239.98257991696028" y="279.77153444211285" as="geometry">
            <mxPoint x="106" y="22" as="offset" />
          </mxGeometry>
        </mxCell>
        <mxCell id="w12Q39UHSDCIKb3LfXtM-60" value="12" style="edgeLabel;html=1;align=center;verticalAlign=middle;resizable=0;points=[];fontSize=26;fontFamily=Comic Sans MS;" vertex="1" connectable="0" parent="1">
          <mxGeometry x="249.98257991696028" y="289.77153444211285" as="geometry">
            <mxPoint x="-104" y="-14" as="offset" />
          </mxGeometry>
        </mxCell>
      </root>
    </mxGraphModel>
  </diagram>
</mxfile>
